<?xml version="1.0" encoding="utf-8"?>
<!-- Generator: Adobe Illustrator 19.1.0, SVG Export Plug-In . SVG Version: 6.00 Build 0)  -->
<svg version="1.1" id="레이어_1" xmlns="http://www.w3.org/2000/svg" xmlns:xlink="http://www.w3.org/1999/xlink" x="0px"
	 y="0px" viewBox="0 0 154 154" style="enable-background:new 0 0 154 154;" xml:space="preserve">
<style type="text/css">
	.st0{fill:#1A1A1A;}
	.st1{fill:#116729;}
	.st2{fill:#FFFFFF;}
	.st3{fill:#040404;}
	.st4{fill:#090705;}
	.st5{fill:#808080;}
	.st6{fill:#F2F2F2;}
	.st7{fill:#AE0000;}
	.st8{fill:#FFFFFF;stroke:#AE0000;stroke-width:5;stroke-miterlimit:10;}
	.st9{fill:#317120;}
	.st10{fill:#FFFFFF;stroke:#317120;stroke-width:5;stroke-miterlimit:10;}
	.st11{fill:#FFFFFF;stroke:#000000;stroke-width:5;stroke-miterlimit:10;}
	.st12{fill:#29571A;}
	.st13{fill:#9E0100;}
	.st14{fill:#7C0001;}
	.st15{fill:#FFFFFF;stroke:#9E0100;stroke-width:5;stroke-miterlimit:10;}
</style>
<g>
	<g>
		<path class="st2" d="M76.1,147.9c-10.9,0-16.9-14.4-18.4-18.9c-1.7-4.9-2.4-9.6-1.9-14c0.3-2.8,1-5.7,2.2-8.6
			c0.7-1.7,1.3-3.1,1.8-4.2H20.1C15.6,102.3,7,99.1,7,87.1c0-0.4,0.1-7.8,4.4-12.2C10,73.1,8.8,70,8.9,64.8c0-1.1-0.1-7.9,3.8-11.9
			c0.6-0.6,1.3-1.1,2-1.6c-1.2-2.2-1.6-4.7-1.7-5.1c-0.7-4,0-8.5,2-12.5c0.9-1.9,2-3.3,3.2-4.4c0,0,0.9-0.7,2.1-1.3
			c-1.5-4.5-0.2-9.6,1.9-13.3c5-8.7,16.3-9.3,24.6-9.7c0.8,0,1.6-0.1,2.4-0.1C52.1,4.7,55,4.6,58,4.6c7,0,14.2,0.5,21.7,1.4
			c4.4,0.5,8.6,1.1,12.7,2.5c3.8,1.3,7.7,2.6,11.5,4.2c0.2,0.1,0.6,0.2,1.1,0.5c10.4,4.3,11.5,5.2,11.5,7.3v72c0,1.2-0.8,2.2-2,2.5
			c-1.1,0.2-28.1,6.3-28.1,44.2c0,4.1-3.9,7.6-7.5,8.4C78,147.8,77.1,147.9,76.1,147.9z"/>
		<path d="M58,7.1c7.1,0,14.3,0.5,21.4,1.3c4.1,0.5,8.3,1.1,12.2,2.4c3.8,1.3,7.6,2.5,11.3,4.2c1.3,0.6,11.2,4.4,11.2,5.5
			c0,0,0,72,0,72s-30.1,6.1-30.1,46.7c0,2.9-3,5.4-5.5,6c-0.8,0.2-1.5,0.3-2.2,0.3c-8.2,0-13.8-10.9-16.1-17.2
			c-1.5-4.1-2.2-8.5-1.8-12.9c0.3-2.7,1-5.4,2.1-7.9c0.4-1,3.2-7.7,4.1-7.7c0,0-44.4,0-44.4,0s-10.6,0-10.6-12.7c0,0,0-9.7,6.3-12.2
			c0,0-4.6-0.4-4.4-10.1c0,0-0.4-12.3,8.4-12.3c0,0,0,0,0,0c-2.6,0-4-4.8-4.3-6.7c-0.6-3.7,0.2-7.6,1.8-11c0.6-1.3,1.4-2.6,2.6-3.6
			c0.3-0.3,2.9-1.8,3.8-1.8c0.1,0,0.2,0,0.3,0.1c-2.9-4-1.8-9.6,0.5-13.6c4.7-8.3,16.7-8.1,25-8.6C52.2,7.2,55.1,7.1,58,7.1 M58,2.1
			L58,2.1c-3,0-6,0.1-8.9,0.3c-0.8,0-1.5,0.1-2.3,0.1c-8.9,0.4-21,1-26.7,11c-2.1,3.7-3.5,8.6-2.6,13.3c-0.5,0.3-0.8,0.6-0.8,0.6
			c-1.5,1.3-2.8,3-3.9,5.2c-2.1,4.5-2.9,9.4-2.2,14c0.2,1.3,0.6,2.7,1,4c-0.2,0.2-0.4,0.4-0.6,0.6c-4.5,4.7-4.6,12.2-4.5,13.7
			c-0.1,4.5,0.7,7.7,1.9,9.9c-3.7,4.9-3.8,11.5-3.8,12.5c0,13,9.3,17.7,15.6,17.7H56c-0.1,0.2-0.2,0.4-0.3,0.7l0,0.1
			c-1.3,3.1-2.1,6.2-2.4,9.3c-0.5,4.8,0.2,9.8,2,15c1.7,4.8,8.2,20.5,20.8,20.5c1.1,0,2.2-0.1,3.4-0.4c4.6-1.1,9.4-5.4,9.4-10.9
			c0-35.7,25.1-41.5,26.2-41.8c2.3-0.5,4-2.5,4-4.9v-72c0-3.8-3.5-5.4-6.8-6.9c-2.2-1-4.8-2.1-6.3-2.7c-0.5-0.2-0.9-0.4-1.1-0.4
			c-3.9-1.7-7.8-3-11.6-4.3l-0.1,0C88.9,4.6,84.5,4,80,3.5C72.5,2.6,65.1,2.1,58,2.1L58,2.1z"/>
	</g>
	<g>
		<path class="st2" d="M121.3,102.3c-5.4,0-9.8-4.4-9.8-9.8V18.8c0-5.4,4.4-9.8,9.8-9.8h17.1c5.4,0,9.8,4.4,9.8,9.8v73.6
			c0,5.4-4.4,9.8-9.8,9.8H121.3z"/>
		<path d="M138.4,11.6c4,0,7.3,3.3,7.3,7.3v73.6c0,4-3.3,7.3-7.3,7.3h-17.1c-4,0-7.3-3.3-7.3-7.3V18.8c0-4,3.3-7.3,7.3-7.3H138.4
			 M138.4,6.6h-17.1c-6.8,0-12.3,5.5-12.3,12.3v73.6c0,6.8,5.5,12.3,12.3,12.3h17.1c6.8,0,12.3-5.5,12.3-12.3V18.8
			C150.7,12.1,145.2,6.6,138.4,6.6L138.4,6.6z"/>
	</g>
	<circle class="st11" cx="129.9" cy="26" r="5.6"/>
	<line class="st11" x1="129.9" y1="31.6" x2="129.9" y2="40.1"/>
</g>
</svg>
