<?xml version="1.0" encoding="utf-8"?>
<!-- Generator: Adobe Illustrator 17.0.0, SVG Export Plug-In . SVG Version: 6.00 Build 0)  -->
<!DOCTYPE svg PUBLIC "-//W3C//DTD SVG 1.1//EN" "http://www.w3.org/Graphics/SVG/1.1/DTD/svg11.dtd">
<svg version="1.1" id="레이어_1" xmlns="http://www.w3.org/2000/svg" xmlns:xlink="http://www.w3.org/1999/xlink" x="0px"
	 y="0px" width="228.3px" height="228.3px" viewBox="0 0 228.3 228.3" style="enable-background:new 0 0 228.3 228.3;"
	 xml:space="preserve">
<style type="text/css">
	.st0{fill:#FFFFFF;}
	.st1{fill:#3E3A39;}
	.st2{fill:#008340;}
	.st3{fill:#040000;}
	.st4{fill:#0C0D05;}
	.st5{fill:#9FA0A0;}
	.st6{fill:#F7F8F8;}
	.st7{fill:#B61D22;}
	.st8{fill:#FFFFFF;stroke:#B61D22;stroke-width:5;stroke-miterlimit:10;}
	.st9{fill:#24893A;}
	.st10{fill:#FFFFFF;stroke:#24893A;stroke-width:5;stroke-miterlimit:10;}
	.st11{fill:#FFFFFF;stroke:#000000;stroke-width:5;stroke-miterlimit:10;}
	.st12{fill:#277639;}
	.st13{fill:#898989;}
	.st14{fill:#FFFFFF;stroke:#9FA0A0;stroke-width:5;stroke-miterlimit:10;}
	.st15{fill:#AC1F24;}
	.st16{fill:#931E23;}
	.st17{fill:#FFFFFF;stroke:#AC1F24;stroke-width:5;stroke-miterlimit:10;}
	.st18{fill:#93999D;}
	.st19{fill:#7C8285;}
	.st20{fill:#FFFFFF;stroke:#93999D;stroke-width:5;stroke-miterlimit:10;}
	.st21{fill:none;stroke:#000000;stroke-width:2;stroke-miterlimit:10;}
	.st22{fill:#FFFFFF;stroke:#000000;stroke-width:2;stroke-miterlimit:10;}
	.st23{fill:#22AC38;}
	.st24{fill:none;stroke:#FFFFFF;stroke-width:2;stroke-miterlimit:10;}
	.st25{fill:#22AC38;stroke:#FFFFFF;stroke-width:2;stroke-miterlimit:10;}
	.st26{fill:#FFFFFF;stroke:#FFFFFF;stroke-width:2;stroke-miterlimit:10;}
	.st27{fill:#FFFFFF;stroke:#22AC38;stroke-width:2;stroke-miterlimit:10;}
	.st28{stroke:#000000;stroke-width:2;stroke-miterlimit:10;}
	.st29{stroke:#008340;stroke-width:2;stroke-miterlimit:10;}
	.st30{fill:none;stroke:#FFFFFF;stroke-width:15;stroke-miterlimit:10;}
	.st31{fill:none;stroke:#727171;stroke-width:15;stroke-miterlimit:10;}
</style>
<circle class="st18" cx="114.2" cy="114.2" r="103.8"/>
<g>
	<path class="st19" d="M217.9,114.2c0-15.1-3.2-29.5-9.1-42.4l-28.4-12.1l-69.2,26.1l-61,51.6l51.2,79.8c4.2,0.5,8.4,0.8,12.7,0.8
		C171.5,217.9,217.9,171.5,217.9,114.2z"/>
</g>
<g>
	<g>
		<path class="st0" d="M112.7,193.5c-10.9,0-16.9-14.4-18.4-18.9c-1.7-4.9-2.4-9.6-1.9-14c0.3-2.8,1-5.7,2.2-8.6
			c0.7-1.7,1.3-3.1,1.9-4.2H56.6c-4.5,0-13.1-3.2-13.1-15.2c0-0.4,0.1-7.8,4.4-12.2c-1.4-1.8-2.6-4.9-2.5-10.1
			c0-1.1-0.1-7.9,3.8-11.9c0.6-0.6,1.3-1.1,2-1.6c-1.2-2.2-1.6-4.7-1.7-5.1c-0.7-4,0-8.5,2-12.5c0.9-1.9,2-3.3,3.2-4.4
			c0,0,0.9-0.7,2.1-1.3c-1.5-4.5-0.2-9.6,1.9-13.3c5-8.7,16.3-9.3,24.6-9.7c0.8,0,1.6-0.1,2.4-0.1c2.9-0.2,5.8-0.3,8.8-0.3
			c7,0,14.2,0.5,21.7,1.4c4.4,0.5,8.6,1.1,12.7,2.5c3.8,1.3,7.7,2.6,11.5,4.2c0.2,0.1,0.6,0.2,1.1,0.5c10.4,4.3,11.5,5.2,11.5,7.3
			v72c0,1.2-0.8,2.2-2,2.5c-1.1,0.2-28.1,6.3-28.1,44.2c0,4.1-3.9,7.6-7.5,8.4C114.5,193.4,113.6,193.5,112.7,193.5z"/>
		<path class="st18" d="M94.6,52.7c7.1,0,14.3,0.5,21.4,1.3c4.1,0.5,8.3,1.1,12.2,2.4c3.8,1.3,7.6,2.5,11.3,4.2
			c1.3,0.6,11.2,4.4,11.2,5.5c0,0,0,72,0,72s-30.1,6.1-30.1,46.7c0,2.9-3,5.4-5.5,6c-0.8,0.2-1.5,0.3-2.2,0.3
			c-8.2,0-13.8-10.9-16.1-17.2c-1.5-4.1-2.2-8.5-1.8-12.9c0.3-2.7,1-5.4,2.1-7.9c0.4-1,3.2-7.7,4.1-7.7c0,0-44.4,0-44.4,0
			s-10.6,0-10.6-12.7c0,0,0-9.7,6.3-12.2c0,0-4.6-0.4-4.4-10.1c0,0-0.4-12.3,8.4-12.3c0,0,0,0,0,0c-2.6,0-4-4.8-4.3-6.7
			c-0.6-3.7,0.2-7.6,1.8-11c0.6-1.3,1.4-2.6,2.6-3.6c0.3-0.3,2.9-1.8,3.8-1.8c0.1,0,0.2,0,0.3,0.1c-2.9-4-1.8-9.6,0.5-13.6
			c4.7-8.3,16.7-8.1,25-8.6C88.8,52.8,91.7,52.7,94.6,52.7 M94.6,47.7L94.6,47.7c-3,0-6,0.1-8.9,0.3c-0.8,0-1.5,0.1-2.3,0.1
			c-8.9,0.4-21,1-26.7,11c-2.1,3.7-3.5,8.6-2.6,13.3c-0.5,0.3-0.8,0.6-0.8,0.6c-1.5,1.3-2.8,3-3.9,5.2c-2.1,4.5-2.9,9.4-2.2,14
			c0.2,1.3,0.6,2.7,1,4c-0.2,0.2-0.4,0.4-0.6,0.6c-4.5,4.7-4.6,12.2-4.5,13.7c-0.1,4.5,0.7,7.7,1.9,9.9c-3.7,4.9-3.8,11.5-3.8,12.5
			c0,13,9.3,17.7,15.6,17.7h35.9c-0.1,0.2-0.2,0.4-0.3,0.7l0,0.1c-1.3,3.1-2.1,6.2-2.4,9.3c-0.5,4.8,0.2,9.8,2,15
			c1.7,4.8,8.2,20.5,20.8,20.5c1.1,0,2.2-0.1,3.4-0.4c4.6-1.1,9.4-5.4,9.4-10.9c0-36.1,25.9-41.7,26.1-41.8c2.3-0.5,4-2.5,4-4.9v-72
			c0-3.8-3.5-5.4-6.8-6.9c-2.2-1-4.8-2.1-6.3-2.7c-0.5-0.2-0.9-0.4-1.1-0.4c-3.9-1.7-7.8-3-11.6-4.3l-0.1,0
			c-4.3-1.5-8.7-2.1-13.2-2.6C109,48.2,101.6,47.7,94.6,47.7L94.6,47.7z"/>
	</g>
	<g>
		<path class="st0" d="M157.9,147.9c-5.4,0-9.8-4.4-9.8-9.8V64.4c0-5.4,4.4-9.8,9.8-9.8H175c5.4,0,9.8,4.4,9.8,9.8v73.6
			c0,5.4-4.4,9.8-9.8,9.8H157.9z"/>
		<path class="st18" d="M175,57.2c4,0,7.3,3.3,7.3,7.3v73.6c0,4-3.3,7.3-7.3,7.3h-17.1c-4,0-7.3-3.3-7.3-7.3V64.4
			c0-4,3.3-7.3,7.3-7.3H175 M175,52.2h-17.1c-6.8,0-12.3,5.5-12.3,12.3v73.6c0,6.8,5.5,12.3,12.3,12.3H175c6.8,0,12.3-5.5,12.3-12.3
			V64.4C187.3,57.7,181.8,52.2,175,52.2L175,52.2z"/>
	</g>
	<circle class="st20" cx="166.4" cy="71.6" r="5.6"/>
	<line class="st20" x1="166.4" y1="77.2" x2="166.4" y2="85.7"/>
</g>
</svg>
