<?xml version="1.0" encoding="utf-8"?>
<!-- Generator: Adobe Illustrator 17.0.0, SVG Export Plug-In . SVG Version: 6.00 Build 0)  -->
<!DOCTYPE svg PUBLIC "-//W3C//DTD SVG 1.1//EN" "http://www.w3.org/Graphics/SVG/1.1/DTD/svg11.dtd">
<svg version="1.1" id="Layer_1" xmlns="http://www.w3.org/2000/svg" xmlns:xlink="http://www.w3.org/1999/xlink" x="0px" y="0px"
	 width="548.6px" height="536.7px" viewBox="0 0 548.6 536.7" style="enable-background:new 0 0 548.6 536.7;" xml:space="preserve"
	>
<style type="text/css">
	.st0{fill:#24893A;}
	.st1{fill:#FFFFFF;}
	.st2{fill:#B61D22;}
	.st3{fill:#FFFFFF;stroke:#B61D22;stroke-width:5;stroke-miterlimit:10;}
	.st4{fill:#FFFFFF;stroke:#24893A;stroke-width:5;stroke-miterlimit:10;}
	.st5{fill:#277639;}
	.st6{fill:#AC1F24;}
	.st7{fill:#931E23;}
	.st8{fill:#FFFFFF;stroke:#AC1F24;stroke-width:5;stroke-miterlimit:10;}
</style>
<circle class="st6" cx="274.3" cy="269.9" r="235.3"/>
<g>
	<path class="st7" d="M509.6,269.9c0-34.3-7.3-66.9-20.5-96.2l-64.5-27.5l-156.9,59.2L129.4,322.5l116.1,180.9
		c9.5,1.2,19.1,1.8,28.8,1.8C404.2,505.1,509.6,399.8,509.6,269.9z"/>
</g>
<g>
	<g>
		<path class="st1" d="M271,446.6c-23.3,0-36.4-33.9-38.8-40.7c-3.7-10.6-5.1-20.8-4.2-30.3c0.6-6.1,2.2-12.4,4.8-18.6l0.1-0.1
			c2.8-6.7,4.9-11,6.4-13.8h-95.4c-0.3,0-26.5-0.4-26.5-31.2c0-0.9,0.1-19.3,11.5-27.5c-3.5-2.9-7.4-9.2-7.1-23.1
			c0-1.4-0.3-16.4,7.8-24.8c2-2,4.2-3.5,6.8-4.5c-3.9-4.9-5.3-13-5.3-13.5c-1.4-8.5,0.1-17.9,4.2-26.4c1.9-4,4-6.8,6.5-8.9
			c0.3-0.2,3.7-2.5,6.8-3.8c-4.7-9.8-1.8-21.7,3-30.1c10.4-18.3,35.1-19.5,53.2-20.4c1.9-0.1,3.7-0.2,5.4-0.3
			c6.4-0.4,13-0.6,19.7-0.6c15.7,0,32,1,48.7,3.1c9.7,1.2,19.2,2.5,28.2,5.5l0.1,0c8.5,2.8,17.2,5.8,25.6,9.4
			c0.4,0.2,1.4,0.6,2.6,1.1c23.1,9.4,24.2,11.3,24.2,13.6v163.3c0,1.2-0.8,2.2-2,2.5c-0.2,0-16.8,3.6-33.2,18
			c-21.7,19.1-33.1,48.6-33.1,85.3c0,7.6-7.5,14.4-14.5,16C274.7,446.4,272.8,446.6,271,446.6z"/>
		<path class="st6" d="M229.9,130.5c16.2,0,32.5,1.1,48.4,3.1c9.3,1.1,18.8,2.4,27.7,5.4c8.6,2.9,17.2,5.8,25.5,9.4
			c2.8,1.3,25.3,10,25.3,12.4c0,0,0,163.3,0,163.3s-68.3,13.8-68.3,105.8c0,6.5-6.9,12.3-12.6,13.6c-1.7,0.4-3.4,0.6-5,0.6
			c-18.7,0-31.3-24.6-36.4-39c-3.3-9.4-5.1-19.2-4-29.2c0.6-6.2,2.3-12.2,4.7-17.9c0.9-2.2,7.2-17.4,9.4-17.4c0,0-100.7,0-100.7,0
			s-24,0-24-28.7c0,0,0-22,14.3-27.7c0,0-10.5-0.8-10-23c0,0-1-27.8,19-28c0,0,0,0,0,0c-5.9,0-9-10.8-9.7-15.2
			c-1.4-8.4,0.3-17.3,4-24.9c1.4-3,3.3-5.9,5.8-8.1c0.8-0.6,6.5-4.1,8.6-4.1c0.3,0,0.6,0.1,0.7,0.3c-6.5-9.1-4-21.8,1.1-30.7
			c10.7-18.9,37.9-18.3,56.6-19.4C216.8,130.7,223.3,130.5,229.9,130.5 M229.9,125.5v5V125.5c-6.7,0-13.4,0.2-19.9,0.6
			c-1.7,0.1-3.5,0.2-5.4,0.3c-18.7,0.9-44.2,2.1-55.3,21.6c-4.7,8.3-7.7,19.9-4,30.1c-2.8,1.4-5.2,3.1-5.2,3.1
			c-2.8,2.3-5.1,5.4-7.2,9.8c-4.3,9-5.9,18.9-4.4,27.9c0.2,1.1,1.2,7,4.1,12c-1.8,1-3.4,2.3-4.9,3.8c-8.7,9.1-8.6,24.7-8.5,26.6
			c-0.2,10.3,1.8,18.1,5.9,23c-10.1,9.6-10.3,26.8-10.3,27.7c0,17.2,7.8,25.5,14.4,29.4c7,4.2,13.8,4.3,14.6,4.3h91.3
			c-0.1,0.1-0.1,0.3-0.2,0.4c-2,4.1-3.8,8.4-4.4,9.8l-0.1,0.1c-2.7,6.4-4.4,12.9-5,19.3c-1,9.9,0.5,20.4,4.3,31.4
			c2,5.7,6.5,16.8,13.9,26.3c8.2,10.7,17.4,16.1,27.3,16.1c2,0,4.1-0.2,6.2-0.7c7.9-1.8,16.4-9.4,16.4-18.5
			c0-36.4,10.8-64.4,32.1-83.3c15.9-14.1,32.1-17.6,32.3-17.6c2.3-0.5,4-2.5,4-4.9V160.8c0-3.8-3.1-5.9-11.7-9.9
			c-4.9-2.3-10.6-4.6-14.1-6c-1.1-0.5-2.1-0.9-2.5-1c-8.5-3.7-17.3-6.7-25.8-9.5l-0.1,0c-9.3-3.1-18.9-4.4-28.7-5.6
			C262.1,126.6,245.6,125.5,229.9,125.5L229.9,125.5z"/>
	</g>
	<g>
		<path class="st1" d="M373.4,343.1c-10.5,0-19-8.5-19-19v-167c0-10.5,8.5-19,19-19h38.8c10.5,0,19,8.5,19,19v167
			c0,10.5-8.5,19-19,19H373.4z"/>
		<path class="st6" d="M412.2,140.6c9.1,0,16.5,7.4,16.5,16.5v167c0,9.1-7.4,16.5-16.5,16.5h-38.8c-9.1,0-16.5-7.4-16.5-16.5v-167
			c0-9.1,7.4-16.5,16.5-16.5H412.2 M412.2,135.6h-38.8c-11.9,0-21.5,9.7-21.5,21.5v167c0,11.9,9.7,21.5,21.5,21.5h38.8
			c11.9,0,21.5-9.7,21.5-21.5v-167C433.7,145.3,424.1,135.6,412.2,135.6L412.2,135.6z"/>
	</g>
	<circle class="st8" cx="392.8" cy="173.5" r="12.6"/>
	<line class="st8" x1="392.8" y1="186.1" x2="392.8" y2="205.4"/>
</g>
</svg>
