<?xml version="1.0" encoding="utf-8"?>
<!-- Generator: Adobe Illustrator 19.1.0, SVG Export Plug-In . SVG Version: 6.00 Build 0)  -->
<svg version="1.1" id="레이어_1" xmlns="http://www.w3.org/2000/svg" xmlns:xlink="http://www.w3.org/1999/xlink" x="0px"
	 y="0px" viewBox="0 0 279.4 126.7" style="enable-background:new 0 0 279.4 126.7;" xml:space="preserve">
<style type="text/css">
	.st0{fill:#FFFFFF;}
	.st1{fill:#1A1A1A;}
	.st2{fill:#116729;}
	.st3{fill:#040404;}
	.st4{fill:#090705;}
	.st5{fill:#808080;}
	.st6{fill:#F2F2F2;}
	.st7{fill:#AE0000;}
	.st8{fill:#FFFFFF;stroke:#AE0000;stroke-width:5;stroke-miterlimit:10;}
	.st9{fill:#317120;}
	.st10{fill:#FFFFFF;stroke:#317120;stroke-width:5;stroke-miterlimit:10;}
	.st11{fill:#FFFFFF;stroke:#000000;stroke-width:5;stroke-miterlimit:10;}
	.st12{fill:#29571A;}
	.st13{fill:#666666;}
	.st14{fill:#FFFFFF;stroke:#808080;stroke-width:5;stroke-miterlimit:10;}
	.st15{fill:#9E0100;}
	.st16{fill:#7C0001;}
	.st17{fill:#FFFFFF;stroke:#9E0100;stroke-width:5;stroke-miterlimit:10;}
	.st18{fill:none;stroke:#000000;stroke-width:2;stroke-miterlimit:10;}
	.st19{fill:#FFFFFF;stroke:#000000;stroke-width:2;stroke-miterlimit:10;}
	.st20{fill:#40A629;}
	.st21{fill:none;stroke:#FFFFFF;stroke-width:2;stroke-miterlimit:10;}
	.st22{fill:#40A629;stroke:#FFFFFF;stroke-width:2;stroke-miterlimit:10;}
	.st23{fill:#FFFFFF;stroke:#FFFFFF;stroke-width:2;stroke-miterlimit:10;}
	.st24{fill:#FFFFFF;stroke:#40A629;stroke-width:2;stroke-miterlimit:10;}
	.st25{stroke:#000000;stroke-width:2;stroke-miterlimit:10;}
	.st26{stroke:#116729;stroke-width:2;stroke-miterlimit:10;}
</style>
<g>
	<path class="st20" d="M269.7,126.7H16.4c-8.9,0-16.3-7.3-16.3-16.3V16.8c0-8.9,7.3-16.3,16.3-16.3h253.3c8.9,0,10.2,7.3,10.2,16.3
		v93.7C280,119.4,278.7,126.7,269.7,126.7z"/>
	<path class="st21" d="M115.5,96.6H30.4c-4.8,0-8.8-3.9-8.8-8.8V40.2c0-4.8,3.9-8.8,8.8-8.8h85.1c4.8,0,8.8,3.9,8.8,8.8v47.7
		C124.3,92.6,120.3,96.6,115.5,96.6z"/>
	<rect x="21.7" y="41.8" class="st0" width="102.6" height="12.8"/>
	<rect x="33.4" y="65.1" class="st0" width="42.6" height="4.6"/>
	<rect x="33.4" y="77.7" class="st0" width="34.5" height="4.6"/>
	<g>
		<path class="st0" d="M171.8,64.4c-1.3-0.8-2.5-1.8-3.6-3.1c-1.1-1.2-2-2.4-2.4-3.4c-0.5,1.2-1.4,2.5-2.6,4
			c-1.2,1.4-2.4,2.5-3.6,3.2l-1.5-1.4c1.9-0.9,3.4-2.3,4.7-4.2c1.3-1.8,1.9-3.7,1.9-5.6v-3.3h2v3.3c0,1.7,0.7,3.5,2,5.2
			c1.3,1.7,2.8,3,4.5,3.8L171.8,64.4z M163,74.9v-8.3h2v6.5h14.7v1.8H163z M177,68.2V49.7h2v18.5H177z"/>
		<path class="st0" d="M191.8,58.7c-1.8-0.9-2.6-2.1-2.6-3.8c0-1.5,0.7-2.7,2.1-3.6c1.4-0.8,3.5-1.3,6.1-1.3c2.6,0,4.7,0.4,6.1,1.3
			c1.4,0.8,2.1,2,2.1,3.6c0,1.7-0.9,3-2.7,3.8v3.7h6.5v1.8h-24.1v-1.8h6.5V58.7z M197.4,75.6c-2.7,0-4.8-0.4-6.2-1.3
			c-1.4-0.9-2.1-2-2.1-3.5c0-1.5,0.7-2.7,2.2-3.6c1.4-0.9,3.5-1.3,6.2-1.3c2.7,0,4.7,0.4,6.2,1.3s2.2,2,2.2,3.6
			c0,1.5-0.7,2.7-2.1,3.5C202.1,75.1,200.1,75.6,197.4,75.6z M197.4,67.6c-2.1,0-3.6,0.3-4.7,0.8c-1.1,0.6-1.6,1.3-1.6,2.3
			s0.5,1.7,1.6,2.3c1,0.5,2.6,0.8,4.7,0.8c2.1,0,3.6-0.3,4.7-0.8c1.1-0.5,1.6-1.3,1.6-2.3c0-1-0.5-1.7-1.6-2.3
			S199.4,67.6,197.4,67.6z M197.4,51.8c-4.1,0-6.2,1-6.2,3.1c0,1,0.5,1.7,1.5,2.3s2.6,0.8,4.6,0.8c2.1,0,3.6-0.3,4.6-0.8
			s1.5-1.3,1.5-2.3C203.5,52.8,201.5,51.8,197.4,51.8z M193.8,62.4h7.1v-3c-1,0.2-2.2,0.3-3.6,0.3c-1.3,0-2.5-0.1-3.6-0.4V62.4z"/>
		<path class="st0" d="M226.7,52c-0.2,7.3-4.1,13.2-11.7,17.6l-1.6-1.6c1.8-0.8,3.6-1.9,5.3-3.4c1.7-1.5,3-3.1,4-4.9l-8.6,0.9
			l-0.7-1.9l10.1-0.6c0.5-1.4,0.9-2.7,1-4.2h-10V52H226.7z M233.1,62.2v13.5h-2v-26h2v10.7h4.7v1.8H233.1z"/>
		<path class="st0" d="M240.5,71.2v-1.8h24.1v1.8H240.5z M260.6,53.9h-13.9V62H261v1.8h-16.4V52.1h16V53.9z"/>
	</g>
</g>
</svg>
