<?xml version="1.0" encoding="utf-8"?>
<!-- Generator: Adobe Illustrator 19.1.0, SVG Export Plug-In . SVG Version: 6.00 Build 0)  -->
<svg version="1.1" id="레이어_1" xmlns="http://www.w3.org/2000/svg" xmlns:xlink="http://www.w3.org/1999/xlink" x="0px"
	 y="0px" viewBox="0 0 279.4 129.2" style="enable-background:new 0 0 279.4 129.2;" xml:space="preserve">
<style type="text/css">
	.st0{fill:#FFFFFF;}
	.st1{fill:#1A1A1A;}
	.st2{fill:#116729;}
	.st3{fill:#040404;}
	.st4{fill:#090705;}
	.st5{fill:#808080;}
	.st6{fill:#F2F2F2;}
	.st7{fill:#AE0000;}
	.st8{fill:#FFFFFF;stroke:#AE0000;stroke-width:5;stroke-miterlimit:10;}
	.st9{fill:#317120;}
	.st10{fill:#FFFFFF;stroke:#317120;stroke-width:5;stroke-miterlimit:10;}
	.st11{fill:#FFFFFF;stroke:#000000;stroke-width:5;stroke-miterlimit:10;}
	.st12{fill:#29571A;}
	.st13{fill:#666666;}
	.st14{fill:#FFFFFF;stroke:#808080;stroke-width:5;stroke-miterlimit:10;}
	.st15{fill:#9E0100;}
	.st16{fill:#7C0001;}
	.st17{fill:#FFFFFF;stroke:#9E0100;stroke-width:5;stroke-miterlimit:10;}
	.st18{fill:none;stroke:#000000;stroke-width:2;stroke-miterlimit:10;}
	.st19{fill:#FFFFFF;stroke:#000000;stroke-width:2;stroke-miterlimit:10;}
	.st20{fill:#40A629;}
	.st21{fill:none;stroke:#FFFFFF;stroke-width:2;stroke-miterlimit:10;}
	.st22{fill:#40A629;stroke:#FFFFFF;stroke-width:2;stroke-miterlimit:10;}
	.st23{fill:#FFFFFF;stroke:#FFFFFF;stroke-width:2;stroke-miterlimit:10;}
	.st24{fill:#FFFFFF;stroke:#40A629;stroke-width:2;stroke-miterlimit:10;}
	.st25{stroke:#000000;stroke-width:2;stroke-miterlimit:10;}
	.st26{stroke:#116729;stroke-width:2;stroke-miterlimit:10;}
</style>
<path class="st0" d="M269.6,129.2H16.3c-8.9,0-16.3-7.5-16.3-16.6V17.2C0,8.1,7.3,0.7,16.3,0.7h253.3c8.9,0,10.2,7.5,10.2,16.6v95.4
	C279.8,121.8,278.5,129.2,269.6,129.2z"/>
<g>
	<path class="st19" d="M116.5,98.3H31.4c-4.8,0-8.8-3.9-8.8-8.8V41.9c0-4.8,3.9-8.8,8.8-8.8h85.1c4.8,0,8.8,3.9,8.8,8.8v47.7
		C125.3,94.3,121.3,98.3,116.5,98.3z"/>
	<rect x="22.7" y="43.5" width="102.6" height="12.8"/>
	<rect x="34.4" y="66.8" width="42.6" height="4.6"/>
	<rect x="34.4" y="79.4" width="34.5" height="4.6"/>
</g>
<g>
	<path d="M172.8,66.1c-1.3-0.8-2.5-1.8-3.6-3.1c-1.1-1.2-2-2.4-2.4-3.4c-0.5,1.2-1.4,2.5-2.6,4c-1.2,1.4-2.4,2.5-3.6,3.2l-1.5-1.4
		c1.9-0.9,3.4-2.3,4.7-4.2c1.3-1.8,1.9-3.7,1.9-5.6v-3.3h2v3.3c0,1.7,0.7,3.5,2,5.2c1.3,1.7,2.8,3,4.5,3.8L172.8,66.1z M164,76.6
		v-8.3h2v6.5h14.7v1.8H164z M178,69.9V51.4h2v18.5H178z"/>
	<path d="M192.8,60.4c-1.8-0.9-2.6-2.1-2.6-3.8c0-1.5,0.7-2.7,2.1-3.6c1.4-0.8,3.5-1.3,6.1-1.3c2.6,0,4.7,0.4,6.1,1.3
		c1.4,0.8,2.1,2,2.1,3.6c0,1.7-0.9,3-2.7,3.8v3.7h6.5v1.8h-24.1v-1.8h6.5V60.4z M198.4,77.3c-2.7,0-4.8-0.4-6.2-1.3
		c-1.4-0.9-2.1-2-2.1-3.5c0-1.5,0.7-2.7,2.2-3.6c1.4-0.9,3.5-1.3,6.2-1.3c2.7,0,4.7,0.4,6.2,1.3s2.2,2,2.2,3.6
		c0,1.5-0.7,2.7-2.1,3.5C203.1,76.9,201.1,77.3,198.4,77.3z M198.4,69.4c-2.1,0-3.6,0.3-4.7,0.8c-1.1,0.6-1.6,1.3-1.6,2.3
		s0.5,1.7,1.6,2.3c1,0.5,2.6,0.8,4.7,0.8c2.1,0,3.6-0.3,4.7-0.8c1.1-0.5,1.6-1.3,1.6-2.3c0-1-0.5-1.7-1.6-2.3S200.4,69.4,198.4,69.4
		z M198.4,53.5c-4.1,0-6.2,1-6.2,3.1c0,1,0.5,1.7,1.5,2.3s2.6,0.8,4.6,0.8c2.1,0,3.6-0.3,4.6-0.8s1.5-1.3,1.5-2.3
		C204.5,54.5,202.5,53.5,198.4,53.5z M194.8,64.1h7.1v-3c-1,0.2-2.2,0.3-3.6,0.3c-1.3,0-2.5-0.1-3.6-0.4V64.1z"/>
	<path d="M227.7,53.7c-0.2,7.3-4.1,13.2-11.7,17.6l-1.6-1.6c1.8-0.8,3.6-1.9,5.3-3.4c1.7-1.5,3-3.1,4-4.9l-8.6,0.9l-0.7-1.9
		l10.1-0.6c0.5-1.4,0.9-2.7,1-4.2h-10v-1.8H227.7z M234.1,63.9v13.5h-2v-26h2v10.7h4.7v1.8H234.1z"/>
	<path d="M241.5,72.9v-1.8h24.1v1.8H241.5z M261.6,55.6h-13.9v8.1H262v1.8h-16.4V53.8h16V55.6z"/>
</g>
</svg>
