<?xml version="1.0" encoding="utf-8"?>
<!-- Generator: Adobe Illustrator 19.1.0, SVG Export Plug-In . SVG Version: 6.00 Build 0)  -->
<svg version="1.1" id="레이어_1" xmlns="http://www.w3.org/2000/svg" xmlns:xlink="http://www.w3.org/1999/xlink" x="0px"
	 y="0px" viewBox="0 0 279.4 129.2" style="enable-background:new 0 0 279.4 129.2;" xml:space="preserve">
<style type="text/css">
	.st0{fill:#FFFFFF;}
	.st1{fill:#1A1A1A;}
	.st2{fill:#116729;}
	.st3{fill:#040404;}
	.st4{fill:#090705;}
	.st5{fill:#808080;}
	.st6{fill:#F2F2F2;}
	.st7{fill:#AE0000;}
	.st8{fill:#FFFFFF;stroke:#AE0000;stroke-width:5;stroke-miterlimit:10;}
	.st9{fill:#317120;}
	.st10{fill:#FFFFFF;stroke:#317120;stroke-width:5;stroke-miterlimit:10;}
	.st11{fill:#FFFFFF;stroke:#000000;stroke-width:5;stroke-miterlimit:10;}
	.st12{fill:#29571A;}
	.st13{fill:#666666;}
	.st14{fill:#FFFFFF;stroke:#808080;stroke-width:5;stroke-miterlimit:10;}
	.st15{fill:#9E0100;}
	.st16{fill:#7C0001;}
	.st17{fill:#FFFFFF;stroke:#9E0100;stroke-width:5;stroke-miterlimit:10;}
	.st18{fill:none;stroke:#000000;stroke-width:2;stroke-miterlimit:10;}
	.st19{fill:#FFFFFF;stroke:#000000;stroke-width:2;stroke-miterlimit:10;}
	.st20{fill:#40A629;}
	.st21{fill:none;stroke:#FFFFFF;stroke-width:2;stroke-miterlimit:10;}
	.st22{fill:#40A629;stroke:#FFFFFF;stroke-width:2;stroke-miterlimit:10;}
	.st23{fill:#FFFFFF;stroke:#FFFFFF;stroke-width:2;stroke-miterlimit:10;}
	.st24{fill:#FFFFFF;stroke:#40A629;stroke-width:2;stroke-miterlimit:10;}
	.st25{stroke:#000000;stroke-width:2;stroke-miterlimit:10;}
	.st26{stroke:#116729;stroke-width:2;stroke-miterlimit:10;}
</style>
<path class="st0" d="M270.2,129.3H16.8c-8.9,0-16.3-7.5-16.3-16.6V17.3c0-9.1,7.3-16.6,16.3-16.6h253.3c8.9,0,10.2,7.5,10.2,16.6
	v95.4C280.4,121.8,279.1,129.3,270.2,129.3z"/>
<circle class="st19" cx="97.5" cy="24.2" r="6.9"/>
<circle class="st19" cx="54.7" cy="37" r="6.9"/>
<rect x="32.1" y="42.1" transform="matrix(0.9838 -0.1794 0.1794 0.9838 -9.5245 12.3588)" class="st24" width="62.9" height="33.5"/>
<rect x="54.5" y="38.8" transform="matrix(0.9971 -7.655246e-002 7.655246e-002 0.9971 -4.01 6.4462)" class="st24" width="55.1" height="33.5"/>
<rect x="39" y="33.5" transform="matrix(0.9494 -0.3142 0.3142 0.9494 -12.2255 24.6866)" class="st24" width="62.9" height="33.5"/>
<path class="st19" d="M86.3,31.4l-39.1,13c1.2,3.6-0.7,7.5-4.3,8.7l4.9,14.8c3.6-1.2,7.4,0.7,8.7,4.3l39.1-13
	c-1.2-3.6,0.7-7.5,4.3-8.7l-4.9-14.8C91.3,36.9,87.5,35,86.3,31.4z"/>
<g>
	
		<rect x="62.5" y="48.3" transform="matrix(0.9515 -0.3077 0.3077 0.9515 -11.7905 24.3323)" class="st20" width="17.5" height="2.6"/>
	<g>
		<path class="st20" d="M77.3,43.8l0.3,10.5l-2.7,0.9l-3.5-5.5c-0.2-0.3-0.3-0.6-0.5-1.1l-0.1,0c0.1,0.5,0.2,0.9,0.2,1.2l0.2,6.6
			l-2.6,0.9l-5.9-8.7l2.6-0.8l3.6,6.1c0.2,0.3,0.4,0.6,0.5,1l0.1,0c-0.1-0.3-0.1-0.7-0.2-1.1L69,46.5l2.4-0.8l3.7,6
			c0.1,0.2,0.3,0.5,0.5,1l0.1,0c-0.1-0.3-0.1-0.6-0.2-1.1l-0.7-7L77.3,43.8z"/>
	</g>
</g>
<path class="st19" d="M110.5,103.2H29.2c-4.6,0-8.4-3.8-8.4-8.4V61.4c0-4.6,3.8-8.4,8.4-8.4h81.3c4.6,0,8.4,3.8,8.4,8.4v33.5
	C118.8,99.5,115.1,103.2,110.5,103.2z"/>
<circle class="st19" cx="34" cy="35" r="6.9"/>
<line class="st25" x1="68.2" y1="53" x2="68.2" y2="103.2"/>
<circle class="st18" cx="110.6" cy="78.5" r="3.2"/>
<path class="st19" d="M26.1,73.8H15.6c-2.4,0-4.4,2-4.4,4.4s2,4.4,4.4,4.4h10.5c2.4,0,4.4-2,4.4-4.4S28.5,73.8,26.1,73.8z"/>
<g>
	<path d="M146.2,68.5v9.7h-2v-9.7h-11v-1.8h24.1v1.8H146.2z M137.1,63.2v-10h16.1v10H137.1z M151.2,55h-12.1v6.5h12.1V55z"/>
	<path d="M160.7,67.3v-1.8h11.1v-2.7h-7.1v-10h16.2v1.8h-14.2v2.3h13.8v1.8h-13.8V61h14.5v1.8h-7.5v2.7h11v1.8H160.7z M172.8,78.2
		c-2.8,0-4.9-0.4-6.3-1.2c-1.4-0.8-2.2-2-2.2-3.4s0.7-2.6,2.2-3.4c1.4-0.8,3.5-1.2,6.3-1.2c2.8,0,4.9,0.4,6.3,1.2
		c1.4,0.8,2.2,2,2.2,3.4s-0.7,2.6-2.2,3.4C177.7,77.8,175.6,78.2,172.8,78.2z M172.8,70.6c-4.2,0-6.3,1-6.3,2.9s2.1,2.9,6.3,2.9
		c4.2,0,6.3-1,6.3-2.9S177,70.6,172.8,70.6z"/>
	<path d="M202.1,65.8c-1.1-0.6-2.3-1.5-3.6-2.7c-1.2-1.2-2.1-2.3-2.5-3.2c-0.5,1.1-1.3,2.3-2.5,3.6c-1.2,1.3-2.4,2.3-3.7,3l-1.5-1.4
		c1.9-0.9,3.5-2.2,4.8-3.9c1.3-1.7,1.9-3.5,1.9-5.3v-0.7h-5.7v-1.8h13.4v1.8H197v0.7c0,1.7,0.6,3.4,1.9,5c1.3,1.6,2.8,2.8,4.6,3.5
		L202.1,65.8z M200.7,78c-2.7,0-4.8-0.5-6.3-1.4c-1.5-0.9-2.2-2.2-2.2-3.6c0-1.5,0.7-2.7,2.2-3.6s3.6-1.4,6.3-1.4
		c2.7,0,4.8,0.5,6.3,1.4c1.5,0.9,2.2,2.1,2.2,3.6c0,1.5-0.7,2.7-2.2,3.7C205.5,77.5,203.4,78,200.7,78z M200.7,69.6
		c-2,0-3.6,0.3-4.7,0.9c-1.1,0.6-1.7,1.4-1.7,2.4c0,1,0.6,1.8,1.7,2.4c1.1,0.6,2.7,0.9,4.7,0.9c2,0,3.6-0.3,4.7-0.9
		c1.1-0.6,1.7-1.4,1.7-2.4c0-1-0.6-1.8-1.7-2.4S202.7,69.6,200.7,69.6z M208.7,61.2v6h-2v-15h2v7.1h3.9v1.8H208.7z"/>
	<path d="M224.6,64.8c-1.9,0-3.5-0.6-4.8-1.7c-1.2-1.1-1.8-2.6-1.8-4.4c0-1.7,0.6-3.2,1.8-4.3c1.2-1.1,2.8-1.7,4.8-1.7
		c1.9,0,3.5,0.6,4.8,1.7c1.2,1.1,1.8,2.6,1.8,4.3c0,1.8-0.6,3.2-1.9,4.4C228.1,64.2,226.5,64.8,224.6,64.8z M224.6,54.4
		c-1.4,0-2.5,0.4-3.3,1.2c-0.8,0.8-1.2,1.8-1.2,3.1c0,1.3,0.4,2.3,1.2,3.1c0.8,0.8,1.9,1.2,3.3,1.2s2.5-0.4,3.3-1.2
		c0.8-0.8,1.2-1.8,1.2-3.1c0-1.3-0.4-2.3-1.2-3.1C227.1,54.8,226,54.4,224.6,54.4z M221.6,77.5V66.9h2v3.7h12v-3.7h2v10.6H221.6z
		 M235.6,72.4h-12v3.4h12V72.4z M235.6,65.5V52.2h2v13.2H235.6z"/>
	<path d="M243.6,64.3v-1.8h17.9c0.2-2.1,0.3-4.6,0.3-7.5h-14.2v-1.8h16.2c0,3.3-0.1,6.4-0.4,9.3h4.2v1.8H243.6z M247.6,77.6v-9.8
		h16.1v9.8H247.6z M261.7,69.6h-12.1v6.2h12.1V69.6z"/>
</g>
</svg>
