<?xml version="1.0" encoding="utf-8"?>
<!-- Generator: Adobe Illustrator 19.1.0, SVG Export Plug-In . SVG Version: 6.00 Build 0)  -->
<svg version="1.1" id="레이어_1" xmlns="http://www.w3.org/2000/svg" xmlns:xlink="http://www.w3.org/1999/xlink" x="0px"
	 y="0px" viewBox="0 0 279.4 126.9" style="enable-background:new 0 0 279.4 126.9;" xml:space="preserve">
<style type="text/css">
	.st0{fill:#FFFFFF;}
	.st1{fill:#1A1A1A;}
	.st2{fill:#116729;}
	.st3{fill:#040404;}
	.st4{fill:#090705;}
	.st5{fill:#808080;}
	.st6{fill:#F2F2F2;}
	.st7{fill:#AE0000;}
	.st8{fill:#FFFFFF;stroke:#AE0000;stroke-width:5;stroke-miterlimit:10;}
	.st9{fill:#317120;}
	.st10{fill:#FFFFFF;stroke:#317120;stroke-width:5;stroke-miterlimit:10;}
	.st11{fill:#FFFFFF;stroke:#000000;stroke-width:5;stroke-miterlimit:10;}
	.st12{fill:#29571A;}
	.st13{fill:#666666;}
	.st14{fill:#FFFFFF;stroke:#808080;stroke-width:5;stroke-miterlimit:10;}
	.st15{fill:#9E0100;}
	.st16{fill:#7C0001;}
	.st17{fill:#FFFFFF;stroke:#9E0100;stroke-width:5;stroke-miterlimit:10;}
	.st18{fill:none;stroke:#000000;stroke-width:2;stroke-miterlimit:10;}
	.st19{fill:#FFFFFF;stroke:#000000;stroke-width:2;stroke-miterlimit:10;}
	.st20{fill:#40A629;}
	.st21{fill:none;stroke:#FFFFFF;stroke-width:2;stroke-miterlimit:10;}
	.st22{fill:#40A629;stroke:#FFFFFF;stroke-width:2;stroke-miterlimit:10;}
	.st23{fill:#FFFFFF;stroke:#FFFFFF;stroke-width:2;stroke-miterlimit:10;}
	.st24{fill:#FFFFFF;stroke:#40A629;stroke-width:2;stroke-miterlimit:10;}
	.st25{stroke:#000000;stroke-width:2;stroke-miterlimit:10;}
	.st26{stroke:#116729;stroke-width:2;stroke-miterlimit:10;}
</style>
<g>
	<path class="st20" d="M269.7,127.7H16.4c-8.9,0-16.3-7.3-16.3-16.3V17.8c0-8.9,7.3-16.3,16.3-16.3h253.3c8.9,0,10.2,7.3,10.2,16.3
		v93.7C280,120.4,278.7,127.7,269.7,127.7z"/>
	<path class="st21" d="M115.5,97.6H30.4c-4.8,0-8.8-3.9-8.8-8.8V41.2c0-4.8,3.9-8.8,8.8-8.8h85.1c4.8,0,8.8,3.9,8.8,8.8v47.7
		C124.3,93.6,120.3,97.6,115.5,97.6z"/>
	<rect x="21.7" y="42.8" class="st0" width="102.6" height="12.8"/>
	<rect x="33.4" y="66.1" class="st0" width="42.6" height="4.6"/>
	<rect x="33.4" y="78.7" class="st0" width="34.5" height="4.6"/>
	<g>
		<path class="st0" d="M171.8,65.4c-1.3-0.8-2.5-1.8-3.6-3.1c-1.1-1.2-2-2.4-2.4-3.4c-0.5,1.2-1.4,2.5-2.6,4
			c-1.2,1.4-2.4,2.5-3.6,3.2l-1.5-1.4c1.9-0.9,3.4-2.3,4.7-4.2c1.3-1.8,1.9-3.7,1.9-5.6v-3.3h2v3.3c0,1.7,0.7,3.5,2,5.2
			c1.3,1.7,2.8,3,4.5,3.8L171.8,65.4z M163,75.9v-8.3h2v6.5h14.7v1.8H163z M177,69.2V50.7h2v18.5H177z"/>
		<path class="st0" d="M191.8,59.7c-1.8-0.9-2.6-2.1-2.6-3.8c0-1.5,0.7-2.7,2.1-3.6c1.4-0.8,3.5-1.3,6.1-1.3c2.6,0,4.7,0.4,6.1,1.3
			c1.4,0.8,2.1,2,2.1,3.6c0,1.7-0.9,3-2.7,3.8v3.7h6.5v1.8h-24.1v-1.8h6.5V59.7z M197.4,76.6c-2.7,0-4.8-0.4-6.2-1.3
			c-1.4-0.9-2.1-2-2.1-3.5c0-1.5,0.7-2.7,2.2-3.6c1.4-0.9,3.5-1.3,6.2-1.3c2.7,0,4.7,0.4,6.2,1.3s2.2,2,2.2,3.6
			c0,1.5-0.7,2.7-2.1,3.5C202.1,76.1,200.1,76.6,197.4,76.6z M197.4,68.6c-2.1,0-3.6,0.3-4.7,0.8c-1.1,0.6-1.6,1.3-1.6,2.3
			s0.5,1.7,1.6,2.3c1,0.5,2.6,0.8,4.7,0.8c2.1,0,3.6-0.3,4.7-0.8c1.1-0.5,1.6-1.3,1.6-2.3c0-1-0.5-1.7-1.6-2.3
			S199.4,68.6,197.4,68.6z M197.4,52.8c-4.1,0-6.2,1-6.2,3.1c0,1,0.5,1.7,1.5,2.3s2.6,0.8,4.6,0.8c2.1,0,3.6-0.3,4.6-0.8
			s1.5-1.3,1.5-2.3C203.5,53.8,201.5,52.8,197.4,52.8z M193.8,63.4h7.1v-3c-1,0.2-2.2,0.3-3.6,0.3c-1.3,0-2.5-0.1-3.6-0.4V63.4z"/>
		<path class="st0" d="M226.7,53c-0.2,7.3-4.1,13.2-11.7,17.6l-1.6-1.6c1.8-0.8,3.6-1.9,5.3-3.4c1.7-1.5,3-3.1,4-4.9l-8.6,0.9
			l-0.7-1.9l10.1-0.6c0.5-1.4,0.9-2.7,1-4.2h-10V53H226.7z M233.1,63.2v13.5h-2v-26h2v10.7h4.7v1.8H233.1z"/>
		<path class="st0" d="M240.5,72.2v-1.8h24.1v1.8H240.5z M260.6,54.9h-13.9V63H261v1.8h-16.4V53.1h16V54.9z"/>
	</g>
</g>
<g>
	<path class="st20" d="M269.3,126.9H16c-8.9,0-16.3-7.3-16.3-16.3V16.9C-0.2,8,7.1,0.7,16,0.7h253.3c8.9,0,10.2,7.3,10.2,16.3v93.7
		C279.6,119.6,278.3,126.9,269.3,126.9z"/>
	<circle class="st22" cx="96.7" cy="21.9" r="6.9"/>
	<circle class="st22" cx="53.9" cy="34.7" r="6.9"/>
	
		<rect x="31.3" y="39.8" transform="matrix(0.9838 -0.1794 0.1794 0.9838 -9.1186 12.1755)" class="st22" width="62.9" height="33.5"/>
	
		<rect x="53.7" y="36.5" transform="matrix(0.9971 -7.655246e-002 7.655246e-002 0.9971 -3.8336 6.3772)" class="st22" width="55.1" height="33.5"/>
	
		<rect x="38.2" y="31.2" transform="matrix(0.9494 -0.3142 0.3142 0.9494 -11.5328 24.3136)" class="st22" width="62.9" height="33.5"/>
	<path class="st22" d="M85.5,29.1l-39.1,13c1.2,3.6-0.7,7.5-4.3,8.7l4.9,14.8c3.6-1.2,7.4,0.7,8.7,4.3l39.1-13
		c-1.2-3.6,0.7-7.5,4.3-8.7l-4.9-14.8C90.5,34.6,86.7,32.7,85.5,29.1z"/>
	<g>
		
			<rect x="61.7" y="45.9" transform="matrix(0.9515 -0.3077 0.3077 0.9515 -11.1112 23.9695)" class="st0" width="17.5" height="2.6"/>
		<g>
			<path class="st0" d="M76.4,41.5L76.8,52l-2.7,0.9l-3.5-5.5c-0.2-0.3-0.3-0.6-0.5-1.1l-0.1,0c0.1,0.5,0.2,0.9,0.2,1.2l0.2,6.6
				l-2.6,0.9l-5.9-8.7l2.6-0.8l3.6,6.1c0.2,0.3,0.4,0.6,0.5,1l0.1,0c-0.1-0.3-0.1-0.7-0.2-1.1l-0.3-7.1l2.4-0.8l3.7,6
				c0.1,0.2,0.3,0.5,0.5,1l0.1,0c-0.1-0.3-0.1-0.6-0.2-1.1l-0.7-7L76.4,41.5z"/>
		</g>
	</g>
	<path class="st22" d="M109.7,100.9H28.4c-4.6,0-8.4-3.8-8.4-8.4V59c0-4.6,3.8-8.4,8.4-8.4h81.3c4.6,0,8.4,3.8,8.4,8.4v33.5
		C118,97.1,114.3,100.9,109.7,100.9z"/>
	<circle class="st22" cx="33.2" cy="32.7" r="6.9"/>
	<line class="st23" x1="67.4" y1="50.7" x2="67.4" y2="100.9"/>
	<circle class="st21" cx="109.8" cy="76.2" r="3.2"/>
	<path class="st22" d="M25.3,71.4H14.7c-2.4,0-4.4,2-4.4,4.4s2,4.4,4.4,4.4h10.5c2.4,0,4.4-2,4.4-4.4S27.7,71.4,25.3,71.4z"/>
	<g>
		<path class="st0" d="M145.4,66.2v9.7h-2v-9.7h-11v-1.8h24.1v1.8H145.4z M136.3,60.9v-10h16.1v10H136.3z M150.4,52.6h-12.1v6.5
			h12.1V52.6z"/>
		<path class="st0" d="M159.9,64.9v-1.8H171v-2.7h-7.1v-10h16.2v1.8h-14.2v2.3h13.8v1.8h-13.8v2.3h14.5v1.8H173v2.7h11v1.8H159.9z
			 M172,75.9c-2.8,0-4.9-0.4-6.3-1.2c-1.4-0.8-2.2-2-2.2-3.4s0.7-2.6,2.2-3.4c1.4-0.8,3.5-1.2,6.3-1.2c2.8,0,4.9,0.4,6.3,1.2
			c1.4,0.8,2.2,2,2.2,3.4s-0.7,2.6-2.2,3.4C176.8,75.5,174.7,75.9,172,75.9z M172,68.3c-4.2,0-6.3,1-6.3,2.9s2.1,2.9,6.3,2.9
			c4.2,0,6.3-1,6.3-2.9S176.2,68.3,172,68.3z"/>
		<path class="st0" d="M201.3,63.5c-1.1-0.6-2.3-1.5-3.6-2.7s-2.1-2.3-2.5-3.2c-0.5,1.1-1.3,2.3-2.5,3.6c-1.2,1.3-2.4,2.3-3.7,3
			l-1.5-1.4c1.9-0.9,3.5-2.2,4.8-3.9c1.3-1.7,1.9-3.5,1.9-5.3v-0.7h-5.7v-1.8h13.4v1.8h-5.7v0.7c0,1.7,0.6,3.4,1.9,5
			c1.3,1.6,2.8,2.8,4.6,3.5L201.3,63.5z M199.9,75.7c-2.7,0-4.8-0.5-6.3-1.4c-1.5-0.9-2.2-2.2-2.2-3.6c0-1.5,0.7-2.7,2.2-3.6
			s3.6-1.4,6.3-1.4c2.7,0,4.8,0.5,6.3,1.4c1.5,0.9,2.2,2.1,2.2,3.6c0,1.5-0.7,2.7-2.2,3.7C204.7,75.2,202.6,75.7,199.9,75.7z
			 M199.9,67.3c-2,0-3.6,0.3-4.7,0.9c-1.1,0.6-1.7,1.4-1.7,2.4c0,1,0.6,1.8,1.7,2.4c1.1,0.6,2.7,0.9,4.7,0.9c2,0,3.6-0.3,4.7-0.9
			c1.1-0.6,1.7-1.4,1.7-2.4c0-1-0.6-1.8-1.7-2.4S201.9,67.3,199.9,67.3z M207.9,58.8v6h-2v-15h2V57h3.9v1.8H207.9z"/>
		<path class="st0" d="M223.8,62.4c-1.9,0-3.5-0.6-4.8-1.7c-1.2-1.1-1.8-2.6-1.8-4.4c0-1.7,0.6-3.2,1.8-4.3c1.2-1.1,2.8-1.7,4.8-1.7
			c1.9,0,3.5,0.6,4.8,1.7c1.2,1.1,1.8,2.6,1.8,4.3c0,1.8-0.6,3.2-1.9,4.4S225.7,62.4,223.8,62.4z M223.8,52c-1.4,0-2.5,0.4-3.3,1.2
			c-0.8,0.8-1.2,1.8-1.2,3.1c0,1.3,0.4,2.3,1.2,3.1c0.8,0.8,1.9,1.2,3.3,1.2s2.5-0.4,3.3-1.2c0.8-0.8,1.2-1.8,1.2-3.1
			c0-1.3-0.4-2.3-1.2-3.1C226.3,52.4,225.2,52,223.8,52z M220.8,75.2V64.5h2v3.7h12v-3.7h2v10.6H220.8z M234.8,70h-12v3.4h12V70z
			 M234.7,63.1V49.9h2v13.2H234.7z"/>
		<path class="st0" d="M242.7,62v-1.8h17.9c0.2-2.1,0.3-4.6,0.3-7.5h-14.2v-1.8H263c0,3.3-0.1,6.4-0.4,9.3h4.2V62H242.7z
			 M246.8,75.3v-9.8h16.1v9.8H246.8z M260.9,67.2h-12.1v6.2h12.1V67.2z"/>
	</g>
</g>
</svg>
