<?xml version="1.0" encoding="utf-8"?>
<!-- Generator: Adobe Illustrator 19.1.0, SVG Export Plug-In . SVG Version: 6.00 Build 0)  -->
<svg version="1.1" id="레이어_1" xmlns="http://www.w3.org/2000/svg" xmlns:xlink="http://www.w3.org/1999/xlink" x="0px"
	 y="0px" viewBox="0 0 196 91.5" style="enable-background:new 0 0 196 91.5;" xml:space="preserve">
<style type="text/css">
	.st0{fill:#116729;}
	.st1{fill:#FFFFFF;}
	.st2{fill:#040404;}
	.st3{fill:#090705;}
</style>
<path class="st0" d="M37.3,2C18,2,2.5,17.6,2.5,36.8v34.8h34.8c19.2,0,34.8-15.6,34.8-34.8S56.5,2,37.3,2z"/>
<g>
	<path class="st1" d="M66.1,68.4H41.8V26H50v35.6h16.1V68.4z"/>
	<path class="st2" d="M69.4,53.5c0-5,1.5-8.9,4.4-11.7c2.9-2.9,6.9-4.3,11.9-4.3c4.8,0,8.6,1.4,11.4,4.2s4.2,6.6,4.2,11.3
		c0,4.9-1.4,8.9-4.3,11.8c-2.9,2.9-6.8,4.4-11.7,4.4c-4.8,0-8.7-1.4-11.5-4.3C70.8,62.1,69.4,58.3,69.4,53.5z M77.5,53.4
		c0,6.4,2.6,9.5,7.9,9.5c5.1,0,7.6-3.3,7.6-9.8c0-6.3-2.6-9.5-7.7-9.5c-2.5,0-4.4,0.9-5.8,2.6C78.2,48,77.5,50.4,77.5,53.4z"/>
	<path class="st2" d="M136.4,65.3c0,5.6-1.5,9.9-4.6,12.9c-3.1,3-7.6,4.5-13.5,4.5c-4,0-7.2-0.6-9.7-1.9v-7c3.2,1.8,6.4,2.7,9.5,2.7
		c3.3,0,5.8-0.9,7.6-2.6c1.8-1.7,2.7-4.2,2.7-7.4v-2.7h-0.1c-2.2,3.6-5.4,5.3-9.7,5.3c-3.8,0-6.8-1.4-9.1-4.1
		c-2.3-2.7-3.5-6.4-3.5-11c0-5.1,1.3-9.2,3.8-12.2c2.5-3,5.9-4.6,10-4.6c3.7,0,6.6,1.5,8.5,4.4h0.1v-3.7h8V65.3z M128.4,51.2
		c0-2.1-0.6-3.8-1.9-5.3c-1.3-1.5-2.9-2.2-4.9-2.2c-2.3,0-4.1,0.9-5.5,2.7c-1.4,1.8-2,4.3-2,7.5c0,2.8,0.6,5,1.9,6.6
		c1.3,1.6,3,2.5,5.1,2.5c2.2,0,3.9-0.8,5.3-2.5c1.3-1.6,2-3.7,2-6.3V51.2z"/>
	<path class="st2" d="M144,28.2c0-1.2,0.4-2.3,1.3-3.1c0.9-0.8,2-1.2,3.4-1.2c1.3,0,2.5,0.4,3.4,1.2c0.9,0.8,1.4,1.8,1.4,3.1
		s-0.4,2.3-1.3,3.1c-0.9,0.8-2,1.2-3.4,1.2c-1.4,0-2.5-0.4-3.4-1.3C144.5,30.4,144,29.4,144,28.2z M144.6,68.4V38.2h8v30.3H144.6z"
		/>
	<path class="st2" d="M189,68.4h-8v-17c0-5.2-1.9-7.8-5.6-7.8c-1.9,0-3.4,0.7-4.6,2.1c-1.2,1.4-1.8,3.2-1.8,5.4v17.3h-8V38.2h8V43
		h0.1c2.2-3.7,5.5-5.6,9.8-5.6c6.7,0,10.1,4.2,10.1,12.5V68.4z"/>
</g>
</svg>
