<?xml version="1.0" encoding="utf-8"?>
<!-- Generator: Adobe Illustrator 19.1.0, SVG Export Plug-In . SVG Version: 6.00 Build 0)  -->
<svg version="1.1" id="레이어_1" xmlns="http://www.w3.org/2000/svg" xmlns:xlink="http://www.w3.org/1999/xlink" x="0px"
	 y="0px" viewBox="0 0 201 92.5" style="enable-background:new 0 0 201 92.5;" xml:space="preserve">
<style type="text/css">
	.st0{fill:#116729;}
	.st1{fill:#FFFFFF;}
	.st2{fill:#040404;}
	.st3{fill:#090705;}
</style>
<path class="st0" d="M34.9,2C15.6,2,0,17.6,0,36.9v34.9h34.9c19.3,0,34.9-15.6,34.9-34.9S54.1,2,34.9,2z"/>
<g>
	<path class="st1" d="M66,71.7h-9.5l-6.8-11.2c-1.4-2.3-2.5-3.8-3.5-4.5c-1-0.7-2-1.1-3.1-1.1h-3v16.8h-8.2V29.1h14.4
		C56.1,29.1,61,33,61,40.6c0,2.8-0.8,5.3-2.5,7.3c-1.6,2.1-4,3.5-7,4.4v0.1c1.9,0.7,4.1,2.8,6.4,6.6L66,71.7z M40,35.5v12.9H45
		c2.2,0,4-0.6,5.4-1.9s2-2.9,2-4.9c0-4-2.4-6.1-7.2-6.1H40z"/>
	<path class="st2" d="M94.5,58.7H74.2c0.3,5.2,3.3,7.7,8.8,7.7c3.4,0,6.4-0.9,9-2.7V70c-2.8,1.6-6.4,2.5-10.8,2.5
		c-4.7,0-8.4-1.4-11-4.1s-3.9-6.6-3.9-11.5c0-4.8,1.4-8.7,4.2-11.7c2.8-3,6.3-4.5,10.6-4.5c4.2,0,7.5,1.3,9.9,3.9
		c2.4,2.6,3.6,6.2,3.6,10.7V58.7z M86.9,53.5c0-4.8-2-7.2-6-7.2c-1.7,0-3.1,0.7-4.4,2s-2,3.1-2.4,5.3H86.9z"/>
	<path class="st2" d="M101.3,43.2c1.4-0.8,3.1-1.4,5.3-1.9c2.2-0.5,4.1-0.7,5.9-0.7c8.2,0,12.3,4.2,12.3,12.5v18.6h-7.7v-4.5h-0.1
		c-2,3.5-5.1,5.2-9.1,5.2c-2.9,0-5.2-0.8-7-2.5c-1.7-1.6-2.6-3.9-2.6-6.6c0-5.8,3.4-9.2,10.3-10.1l8.5-1.2c0-3.9-1.9-5.8-5.7-5.8
		c-3.6,0-7,1.1-10.2,3.4V43.2z M111.1,57.8c-3.5,0.4-5.2,2-5.2,4.7c0,1.2,0.4,2.2,1.2,2.9c0.8,0.8,1.9,1.1,3.4,1.1
		c1.9,0,3.5-0.7,4.8-2c1.3-1.4,1.9-3.1,1.9-5.1V57L111.1,57.8z"/>
	<path class="st2" d="M161.3,71.7h-8v-4.5h-0.1c-2.2,3.5-5.4,5.2-9.7,5.2c-3.8,0-6.9-1.4-9.2-4.1c-2.3-2.7-3.4-6.5-3.4-11.1
		c0-5,1.3-9,3.8-12c2.6-3,5.9-4.5,10-4.5c4,0,6.8,1.5,8.4,4.4h0.1V26.7h8V71.7z M153.4,54.3c0-2.1-0.7-3.9-2-5.3
		c-1.3-1.4-3-2.1-4.9-2.1c-2.3,0-4.1,0.9-5.5,2.7c-1.3,1.8-2,4.3-2,7.4c0,2.9,0.6,5.2,1.9,6.8c1.3,1.6,3,2.4,5.2,2.4
		c2.1,0,3.9-0.8,5.2-2.5c1.3-1.7,2-3.8,2-6.4V54.3z"/>
	<path class="st2" d="M197.2,41.3l-12.8,33.5c-2.8,7.4-7,11.1-12.6,11.1c-1.9,0-3.6-0.2-4.9-0.7v-6.6c1.2,0.6,2.4,0.9,3.8,0.9
		c2.4,0,4.1-1.2,5.2-3.7l1.8-4.3l-12.2-30.3h8.9l6.4,19.9c0.2,0.6,0.5,1.8,0.8,3.6h0.1c0.2-1,0.4-2.2,0.9-3.5l6.6-20H197.2z"/>
</g>
</svg>
