<?xml version="1.0" encoding="utf-8"?>
<!-- Generator: Adobe Illustrator 19.1.0, SVG Export Plug-In . SVG Version: 6.00 Build 0)  -->
<svg version="1.1" id="레이어_1" xmlns="http://www.w3.org/2000/svg" xmlns:xlink="http://www.w3.org/1999/xlink" x="0px"
	 y="0px" viewBox="0 0 21.4 21.4" style="enable-background:new 0 0 21.4 21.4;" xml:space="preserve">
<style type="text/css">
	.st0{fill:#116729;}
	.st1{fill:#FFFFFF;}
	.st2{fill:#040404;}
	.st3{fill:#090705;}
	.st4{fill:#808080;}
</style>
<path class="st0" d="M-37,19.7c-22.5,0-40.8,18.3-40.8,40.8v40.8H-37c22.5,0,40.8-18.3,40.8-40.8S-14.5,19.7-37,19.7z"/>
<path class="st0" d="M10.7,0C4.8,0,0,4.8,0,10.7v10.7h10.7c5.9,0,10.7-4.8,10.7-10.7S16.6,0,10.7,0z"/>
<g>
	<path class="st1" d="M19.2,10.6C18.5,10.2,17.8,10,17,10c-1,0-1.9,0.4-2.5,1.3c-0.6,0.8-0.9,1.9-0.9,3.3h0.1c0.6-1,1.6-1.5,2.8-1.5
		c1.1,0,2,0.4,2.6,1.1c0.6,0.7,1,1.7,1,2.9c0,1.3-0.4,2.4-1.2,3.2c-0.8,0.8-1.9,1.3-3.1,1.3c-1.5,0-2.6-0.5-3.4-1.6
		c-0.8-1.1-1.2-2.5-1.2-4.4c0-2.2,0.5-4,1.5-5.4c1-1.4,2.4-2.1,4.2-2.1c1,0,1.8,0.1,2.3,0.4V10.6z M13.7,17.1c0,0.7,0.2,1.3,0.5,1.8
		c0.4,0.5,0.8,0.8,1.5,0.8c0.6,0,1.1-0.2,1.4-0.7c0.3-0.5,0.5-1,0.5-1.7c0-1.6-0.6-2.3-1.9-2.3c-0.6,0-1.1,0.2-1.4,0.6
		C13.9,15.9,13.7,16.5,13.7,17.1z"/>
</g>
</svg>
