<?xml version="1.0" encoding="utf-8"?>
<!-- Generator: Adobe Illustrator 19.1.0, SVG Export Plug-In . SVG Version: 6.00 Build 0)  -->
<svg version="1.1" id="레이어_1" xmlns="http://www.w3.org/2000/svg" xmlns:xlink="http://www.w3.org/1999/xlink" x="0px"
	 y="0px" viewBox="0 0 21.4 21.4" style="enable-background:new 0 0 21.4 21.4;" xml:space="preserve">
<style type="text/css">
	.st0{fill:#116729;}
	.st1{fill:#FFFFFF;}
	.st2{fill:#040404;}
	.st3{fill:#090705;}
	.st4{fill:#808080;}
</style>
<path class="st0" d="M10.7,0C4.8,0,0,4.8,0,10.7v10.7h10.7c5.9,0,10.7-4.8,10.7-10.7S16.6,0,10.7,0z"/>
<g>
	<path class="st1" d="M11.5,18.7c0.9,0.7,1.9,1,3,1c0.8,0,1.4-0.2,1.8-0.5c0.5-0.3,0.7-0.8,0.7-1.5c0-1.4-1-2-3.1-2h-1.1v-1.9h1.1
		c1.8,0,2.7-0.6,2.7-1.9c0-1.2-0.7-1.8-2.1-1.8c-0.9,0-1.7,0.3-2.6,0.9V8.8c0.9-0.5,1.9-0.7,3.1-0.7c1.2,0,2.2,0.3,2.9,0.8
		s1.1,1.4,1.1,2.4c0,1.7-0.9,2.8-2.6,3.2v0c0.9,0.1,1.6,0.4,2.2,1c0.5,0.6,0.8,1.3,0.8,2.1c0,1.2-0.4,2.2-1.3,2.9
		c-0.9,0.7-2.1,1-3.6,1c-1.3,0-2.4-0.2-3.2-0.7V18.7z"/>
</g>
</svg>
