<?xml version="1.0" encoding="utf-8"?>
<!-- Generator: Adobe Illustrator 17.0.0, SVG Export Plug-In . SVG Version: 6.00 Build 0)  -->
<!DOCTYPE svg PUBLIC "-//W3C//DTD SVG 1.1//EN" "http://www.w3.org/Graphics/SVG/1.1/DTD/svg11.dtd">
<svg version="1.1" id="레이어_1" xmlns="http://www.w3.org/2000/svg" xmlns:xlink="http://www.w3.org/1999/xlink" x="0px"
	 y="0px" width="371.8px" height="72.5px" viewBox="0 0 371.8 72.5" style="enable-background:new 0 0 371.8 72.5;"
	 xml:space="preserve">
<style type="text/css">
	.st0{fill:#FFFFFF;}
	.st1{fill:#3E3A39;}
	.st2{fill:#008340;}
	.st3{fill:#040000;}
	.st4{fill:#0C0D05;}
	.st5{fill:#9FA0A0;}
	.st6{fill:#F7F8F8;}
	.st7{fill:#B61D22;}
	.st8{fill:#FFFFFF;stroke:#B61D22;stroke-width:5;stroke-miterlimit:10;}
	.st9{fill:#24893A;}
	.st10{fill:#FFFFFF;stroke:#24893A;stroke-width:5;stroke-miterlimit:10;}
	.st11{fill:#FFFFFF;stroke:#000000;stroke-width:5;stroke-miterlimit:10;}
	.st12{fill:#277639;}
	.st13{fill:#898989;}
	.st14{fill:#FFFFFF;stroke:#9FA0A0;stroke-width:5;stroke-miterlimit:10;}
	.st15{fill:#AC1F24;}
	.st16{fill:#931E23;}
	.st17{fill:#FFFFFF;stroke:#AC1F24;stroke-width:5;stroke-miterlimit:10;}
	.st18{fill:#93999D;}
	.st19{fill:#7C8285;}
	.st20{fill:#FFFFFF;stroke:#93999D;stroke-width:5;stroke-miterlimit:10;}
	.st21{fill:none;stroke:#000000;stroke-width:2;stroke-miterlimit:10;}
	.st22{fill:#FFFFFF;stroke:#000000;stroke-width:2;stroke-miterlimit:10;}
	.st23{fill:#22AC38;}
	.st24{fill:none;stroke:#FFFFFF;stroke-width:2;stroke-miterlimit:10;}
	.st25{fill:#22AC38;stroke:#FFFFFF;stroke-width:2;stroke-miterlimit:10;}
	.st26{fill:#FFFFFF;stroke:#FFFFFF;stroke-width:2;stroke-miterlimit:10;}
	.st27{fill:#FFFFFF;stroke:#22AC38;stroke-width:2;stroke-miterlimit:10;}
	.st28{stroke:#000000;stroke-width:2;stroke-miterlimit:10;}
	.st29{stroke:#008340;stroke-width:2;stroke-miterlimit:10;}
	.st30{fill:none;stroke:#FFFFFF;stroke-width:15;stroke-miterlimit:10;}
	.st31{fill:none;stroke:#727171;stroke-width:15;stroke-miterlimit:10;}
</style>
<path class="st2" d="M29.4,1C13.2,1,0,14.2,0,30.4v29.4h29.4c16.2,0,29.4-13.2,29.4-29.4S45.7,1,29.4,1z"/>
<g>
	<path class="st0" d="M55.1,42.9c0,10.6-4.9,15.9-14.7,15.9c-9.4,0-14.1-5.1-14.1-15.4V22.3h7v21.1c0,6.3,2.5,9.4,7.5,9.4
		c4.9,0,7.4-3,7.4-9.1V22.3h6.9V42.9z"/>
	<path class="st3" d="M69.3,55v15h-6.8V32.6h6.8v4h0.1c2-3.1,4.8-4.7,8.4-4.7c3.2,0,5.8,1.1,7.6,3.4c1.9,2.3,2.8,5.4,2.8,9.3
		c0,4.3-1.1,7.7-3.2,10.3c-2.1,2.6-4.9,3.9-8.4,3.9C73.5,58.8,71,57.5,69.3,55L69.3,55z M69.2,47c0,1.9,0.5,3.4,1.6,4.6
		c1.1,1.2,2.4,1.8,4.1,1.8c2,0,3.5-0.8,4.7-2.3s1.7-3.7,1.7-6.5c0-5-2-7.4-5.9-7.4c-1.9,0-3.3,0.7-4.5,2.1c-1.1,1.4-1.7,3.1-1.7,5.2
		V47z"/>
	<path class="st3" d="M117.9,58.2h-6.8v-3.8H111c-1.8,2.9-4.5,4.4-8.2,4.4c-3.2,0-5.8-1.2-7.7-3.5c-1.9-2.3-2.9-5.4-2.9-9.4
		c0-4.2,1.1-7.6,3.2-10.1c2.2-2.6,5-3.8,8.4-3.8c3.4,0,5.7,1.2,7.1,3.7h0.1V20.3h6.8V58.2z M111.2,43.5c0-1.8-0.6-3.3-1.7-4.5
		s-2.5-1.8-4.2-1.8c-1.9,0-3.5,0.8-4.6,2.3c-1.1,1.5-1.7,3.6-1.7,6.2c0,2.5,0.5,4.4,1.6,5.7c1.1,1.4,2.6,2,4.4,2
		c1.8,0,3.2-0.7,4.4-2.1c1.1-1.4,1.7-3.2,1.7-5.4V43.5z"/>
	<path class="st3" d="M125.6,34.2c1.2-0.7,2.6-1.2,4.5-1.6s3.5-0.6,4.9-0.6c6.9,0,10.4,3.5,10.4,10.5v15.7h-6.5v-3.8h-0.1
		c-1.7,2.9-4.3,4.4-7.7,4.4c-2.5,0-4.4-0.7-5.9-2.1s-2.2-3.3-2.2-5.6c0-4.9,2.9-7.7,8.7-8.5l7.1-1c0-3.3-1.6-4.9-4.8-4.9
		c-3,0-5.9,1-8.6,2.8V34.2z M133.8,46.5c-2.9,0.4-4.4,1.7-4.4,3.9c0,1,0.3,1.8,1,2.5c0.7,0.6,1.6,1,2.8,1c1.6,0,3-0.6,4-1.7
		c1.1-1.1,1.6-2.6,1.6-4.3v-1.9L133.8,46.5z"/>
	<path class="st3" d="M166.5,57.9c-1.2,0.6-2.8,0.9-4.8,0.9c-5.2,0-7.9-2.8-7.9-8.3V37.7h-4.2v-5.2h4.2v-5.7l6.8-2v7.7h5.9v5.2h-5.9
		v11.5c0,2.8,1.1,4.2,3.3,4.2c0.9,0,1.8-0.3,2.6-0.8V57.9z"/>
	<path class="st3" d="M193.3,47.3h-17.1c0.3,4.4,2.7,6.5,7.4,6.5c2.8,0,5.4-0.7,7.6-2.2v5.2c-2.4,1.4-5.4,2.1-9.1,2.1
		c-4,0-7.1-1.2-9.3-3.5c-2.2-2.3-3.3-5.5-3.3-9.7c0-4.1,1.2-7.4,3.6-9.9c2.4-2.5,5.4-3.8,8.9-3.8c3.6,0,6.4,1.1,8.4,3.3s3,5.2,3,9
		V47.3z M186.9,42.8c0-4.1-1.7-6.1-5-6.1c-1.4,0-2.6,0.6-3.7,1.7s-1.7,2.6-2,4.4H186.9z"/>
	<path class="st3" d="M245.5,58.2h-8l-5.7-9.5c-1.2-1.9-2.1-3.2-2.9-3.8c-0.8-0.6-1.7-0.9-2.6-0.9h-2.5v14.2h-6.9V22.3h12.2
		c8.3,0,12.4,3.2,12.4,9.7c0,2.4-0.7,4.4-2.1,6.2c-1.4,1.7-3.4,3-5.9,3.7V42c1.6,0.6,3.5,2.4,5.4,5.5L245.5,58.2z M223.6,27.7v10.9
		h4.1c1.9,0,3.4-0.5,4.5-1.6c1.1-1.1,1.7-2.5,1.7-4.1c0-3.4-2-5.1-6.1-5.1H223.6z"/>
	<path class="st3" d="M269.5,47.3h-17.1c0.3,4.4,2.7,6.5,7.4,6.5c2.8,0,5.4-0.7,7.6-2.2v5.2c-2.4,1.4-5.4,2.1-9.1,2.1
		c-4,0-7.1-1.2-9.3-3.5c-2.2-2.3-3.3-5.5-3.3-9.7c0-4.1,1.2-7.4,3.6-9.9c2.4-2.5,5.4-3.8,8.9-3.8c3.6,0,6.4,1.1,8.4,3.3s3,5.2,3,9
		V47.3z M263.1,42.8c0-4.1-1.7-6.1-5-6.1c-1.4,0-2.6,0.6-3.7,1.7s-1.7,2.6-2,4.4H263.1z"/>
	<path class="st3" d="M293.5,57.2c-1.8,1.1-4.3,1.6-7.5,1.6c-3.8,0-6.9-1.2-9.3-3.5c-2.4-2.4-3.6-5.5-3.6-9.3
		c0-4.4,1.3-7.8,3.8-10.3c2.5-2.5,6-3.8,10.2-3.8c2.8,0,4.9,0.4,6.4,1.2v6c-1.7-1.3-3.6-1.9-5.7-1.9c-2.4,0-4.3,0.7-5.7,2.2
		c-1.4,1.5-2.1,3.5-2.1,6c0,2.5,0.7,4.5,2,5.9c1.3,1.4,3.2,2.1,5.6,2.1c2.1,0,4.1-0.6,6-1.9V57.2z"/>
	<path class="st3" d="M298.3,24.1c0-1,0.4-1.9,1.1-2.6c0.7-0.7,1.7-1,2.9-1c1.1,0,2.1,0.3,2.9,1c0.8,0.7,1.1,1.6,1.1,2.6
		c0,1.1-0.4,1.9-1.1,2.6c-0.8,0.7-1.7,1-2.9,1s-2.1-0.4-2.8-1.1C298.7,26,298.3,25.1,298.3,24.1z M298.9,58.2V32.6h6.8v25.6H298.9z"
		/>
	<path class="st3" d="M319.5,55v15h-6.8V32.6h6.8v4h0.1c2-3.1,4.8-4.7,8.4-4.7c3.2,0,5.8,1.1,7.6,3.4c1.9,2.3,2.8,5.4,2.8,9.3
		c0,4.3-1.1,7.7-3.2,10.3c-2.1,2.6-4.9,3.9-8.4,3.9C323.6,58.8,321.2,57.5,319.5,55L319.5,55z M319.4,47c0,1.9,0.5,3.4,1.6,4.6
		c1.1,1.2,2.4,1.8,4.1,1.8c2,0,3.5-0.8,4.7-2.3s1.7-3.7,1.7-6.5c0-5-2-7.4-5.9-7.4c-1.9,0-3.3,0.7-4.5,2.1c-1.1,1.4-1.7,3.1-1.7,5.2
		V47z"/>
	<path class="st3" d="M366.2,47.3h-17.1c0.3,4.4,2.7,6.5,7.4,6.5c2.8,0,5.4-0.7,7.6-2.2v5.2c-2.4,1.4-5.4,2.1-9.1,2.1
		c-4,0-7.1-1.2-9.3-3.5c-2.2-2.3-3.3-5.5-3.3-9.7c0-4.1,1.2-7.4,3.6-9.9c2.4-2.5,5.4-3.8,8.9-3.8c3.6,0,6.4,1.1,8.4,3.3s3,5.2,3,9
		V47.3z M359.8,42.8c0-4.1-1.7-6.1-5-6.1c-1.4,0-2.6,0.6-3.7,1.7s-1.7,2.6-2,4.4H359.8z"/>
</g>
</svg>
