<?xml version="1.0" encoding="utf-8"?>
<!-- Generator: Adobe Illustrator 19.1.0, SVG Export Plug-In . SVG Version: 6.00 Build 0)  -->
<svg version="1.1" id="레이어_1" xmlns="http://www.w3.org/2000/svg" xmlns:xlink="http://www.w3.org/1999/xlink" x="0px"
	 y="0px" viewBox="0 0 371.8 72.5" style="enable-background:new 0 0 371.8 72.5;" xml:space="preserve">
<style type="text/css">
	.st0{fill:#116729;}
	.st1{fill:#FFFFFF;}
	.st2{fill:#040404;}
	.st3{fill:#090705;}
</style>
<path class="st0" d="M29.4,1C13.2,1,0,14.2,0,30.4v29.4h29.4c16.2,0,29.4-13.2,29.4-29.4S45.7,1,29.4,1z"/>
<g>
	<path class="st1" d="M55.1,42.9c0,10.6-4.9,15.9-14.7,15.9c-9.4,0-14.1-5.1-14.1-15.4V22.3h7v21.1c0,6.3,2.5,9.4,7.5,9.4
		c4.9,0,7.4-3,7.4-9.1V22.3h6.9V42.9z"/>
	<path class="st2" d="M69.3,55v15h-6.8V32.6h6.8v4h0.1c2-3.1,4.8-4.7,8.4-4.7c3.2,0,5.8,1.1,7.6,3.4c1.9,2.3,2.8,5.4,2.8,9.3
		c0,4.3-1.1,7.7-3.2,10.3c-2.1,2.6-4.9,3.9-8.4,3.9C73.5,58.8,71,57.5,69.3,55L69.3,55z M69.2,47c0,1.9,0.5,3.4,1.6,4.6
		c1.1,1.2,2.4,1.8,4.1,1.8c2,0,3.5-0.8,4.7-2.3s1.7-3.7,1.7-6.5c0-5-2-7.4-5.9-7.4c-1.9,0-3.3,0.7-4.5,2.1c-1.1,1.4-1.7,3.1-1.7,5.2
		V47z"/>
	<path class="st2" d="M93.6,58.2V20.3h6.8v37.9H93.6z"/>
	<path class="st2" d="M105.9,45.5c0-4.2,1.2-7.5,3.7-9.9s5.8-3.6,10-3.6c4.1,0,7.3,1.2,9.7,3.6c2.4,2.4,3.5,5.6,3.5,9.6
		c0,4.2-1.2,7.5-3.7,10c-2.4,2.5-5.8,3.7-9.9,3.7c-4.1,0-7.3-1.2-9.7-3.6S105.9,49.6,105.9,45.5z M112.7,45.4c0,5.4,2.2,8.1,6.7,8.1
		c4.3,0,6.5-2.8,6.5-8.3c0-5.3-2.2-8-6.5-8c-2.1,0-3.8,0.7-4.9,2.2C113.3,40.9,112.7,42.9,112.7,45.4z"/>
	<path class="st2" d="M138.4,34.2c1.2-0.7,2.6-1.2,4.5-1.6s3.5-0.6,4.9-0.6c6.9,0,10.4,3.5,10.4,10.5v15.7h-6.5v-3.8h-0.1
		c-1.7,2.9-4.3,4.4-7.7,4.4c-2.5,0-4.4-0.7-5.9-2.1s-2.2-3.3-2.2-5.6c0-4.9,2.9-7.7,8.7-8.5l7.1-1c0-3.3-1.6-4.9-4.8-4.9
		c-3,0-5.9,1-8.6,2.8V34.2z M146.6,46.5c-2.9,0.4-4.4,1.7-4.4,3.9c0,1,0.3,1.8,1,2.5c0.7,0.6,1.6,1,2.8,1c1.6,0,3-0.6,4-1.7
		c1.1-1.1,1.6-2.6,1.6-4.3v-1.9L146.6,46.5z"/>
	<path class="st2" d="M189,58.2h-6.8v-3.8h-0.1c-1.8,2.9-4.5,4.4-8.2,4.4c-3.2,0-5.8-1.2-7.7-3.5c-1.9-2.3-2.9-5.4-2.9-9.4
		c0-4.2,1.1-7.6,3.2-10.1c2.2-2.6,5-3.8,8.4-3.8c3.4,0,5.7,1.2,7.1,3.7h0.1V20.3h6.8V58.2z M182.3,43.5c0-1.8-0.6-3.3-1.7-4.5
		s-2.5-1.8-4.2-1.8c-1.9,0-3.5,0.8-4.6,2.3c-1.1,1.5-1.7,3.6-1.7,6.2c0,2.5,0.5,4.4,1.6,5.7c1.1,1.4,2.6,2,4.4,2
		c1.8,0,3.2-0.7,4.4-2.1c1.1-1.4,1.7-3.2,1.7-5.4V43.5z"/>
	<path class="st2" d="M243.1,58.2h-8l-5.7-9.5c-1.2-1.9-2.1-3.2-2.9-3.8c-0.8-0.6-1.7-0.9-2.6-0.9h-2.5v14.2h-6.9V22.3h12.2
		c8.3,0,12.4,3.2,12.4,9.7c0,2.4-0.7,4.4-2.1,6.2c-1.4,1.7-3.4,3-5.9,3.7V42c1.6,0.6,3.5,2.4,5.4,5.5L243.1,58.2z M221.3,27.7v10.9
		h4.1c1.9,0,3.4-0.5,4.5-1.6c1.1-1.1,1.7-2.5,1.7-4.1c0-3.4-2-5.1-6.1-5.1H221.3z"/>
	<path class="st2" d="M267.2,47.3h-17.1c0.3,4.4,2.7,6.5,7.4,6.5c2.8,0,5.4-0.7,7.6-2.2v5.2c-2.4,1.4-5.4,2.1-9.1,2.1
		c-4,0-7.1-1.2-9.3-3.5c-2.2-2.3-3.3-5.5-3.3-9.7c0-4.1,1.2-7.4,3.6-9.9c2.4-2.5,5.4-3.8,8.9-3.8c3.6,0,6.4,1.1,8.4,3.3s3,5.2,3,9
		V47.3z M260.8,42.8c0-4.1-1.7-6.1-5-6.1c-1.4,0-2.6,0.6-3.7,1.7s-1.7,2.6-2,4.4H260.8z"/>
	<path class="st2" d="M291.2,57.2c-1.8,1.1-4.3,1.6-7.5,1.6c-3.8,0-6.9-1.2-9.3-3.5c-2.4-2.4-3.6-5.5-3.6-9.3
		c0-4.4,1.3-7.8,3.8-10.3c2.5-2.5,6-3.8,10.2-3.8c2.8,0,4.9,0.4,6.4,1.2v6c-1.7-1.3-3.6-1.9-5.7-1.9c-2.4,0-4.3,0.7-5.7,2.2
		c-1.4,1.5-2.1,3.5-2.1,6c0,2.5,0.7,4.5,2,5.9c1.3,1.4,3.2,2.1,5.6,2.1c2.1,0,4.1-0.6,6-1.9V57.2z"/>
	<path class="st2" d="M296,24.1c0-1,0.4-1.9,1.1-2.6c0.7-0.7,1.7-1,2.9-1c1.1,0,2.1,0.3,2.9,1c0.8,0.7,1.1,1.6,1.1,2.6
		c0,1.1-0.4,1.9-1.1,2.6c-0.8,0.7-1.7,1-2.9,1s-2.1-0.4-2.8-1.1C296.4,26,296,25.1,296,24.1z M296.5,58.2V32.6h6.8v25.6H296.5z"/>
	<path class="st2" d="M317.1,55v15h-6.8V32.6h6.8v4h0.1c2-3.1,4.8-4.7,8.4-4.7c3.2,0,5.8,1.1,7.6,3.4c1.9,2.3,2.8,5.4,2.8,9.3
		c0,4.3-1.1,7.7-3.2,10.3c-2.1,2.6-4.9,3.9-8.4,3.9C321.3,58.8,318.9,57.5,317.1,55L317.1,55z M317,47c0,1.9,0.5,3.4,1.6,4.6
		c1.1,1.2,2.4,1.8,4.1,1.8c2,0,3.5-0.8,4.7-2.3s1.7-3.7,1.7-6.5c0-5-2-7.4-5.9-7.4c-1.9,0-3.3,0.7-4.5,2.1c-1.1,1.4-1.7,3.1-1.7,5.2
		V47z"/>
	<path class="st2" d="M363.8,47.3h-17.1c0.3,4.4,2.7,6.5,7.4,6.5c2.8,0,5.4-0.7,7.6-2.2v5.2c-2.4,1.4-5.4,2.1-9.1,2.1
		c-4,0-7.1-1.2-9.3-3.5c-2.2-2.3-3.3-5.5-3.3-9.7c0-4.1,1.2-7.4,3.6-9.9c2.4-2.5,5.4-3.8,8.9-3.8c3.6,0,6.4,1.1,8.4,3.3s3,5.2,3,9
		V47.3z M357.4,42.8c0-4.1-1.7-6.1-5-6.1c-1.4,0-2.6,0.6-3.7,1.7s-1.7,2.6-2,4.4H357.4z"/>
</g>
</svg>
