<?xml version="1.0" encoding="utf-8"?>
<!-- Generator: Adobe Illustrator 19.1.0, SVG Export Plug-In . SVG Version: 6.00 Build 0)  -->
<svg version="1.1" id="레이어_1" xmlns="http://www.w3.org/2000/svg" xmlns:xlink="http://www.w3.org/1999/xlink" x="0px"
	 y="0px" viewBox="0 0 65.1 25.1" style="enable-background:new 0 0 65.1 25.1;" xml:space="preserve">
<style type="text/css">
	.st0{fill:#116729;}
	.st1{fill:#FFFFFF;}
	.st2{fill:#040404;}
	.st3{fill:#090705;}
	.st4{fill:#808080;}
</style>
<rect x="-190.8" y="339" class="st0" width="316.7" height="141.3"/>
<path class="st0" d="M-109.8,630.7c-16.2,0-29.4,13.2-29.4,29.4v29.4h29.4c16.2,0,29.4-13.2,29.4-29.4S-93.5,630.7-109.8,630.7z"/>
<g>
	<path class="st1" d="M-90.7,690.8v-22.2c0-1.6,0.1-4.1,0.3-7.5h-0.1c-0.4,2-0.8,3.5-1.1,4.4l-9.5,25.3h-5.3l-9.6-25.1
		c-0.2-0.6-0.6-2.2-1.1-4.6h-0.2c0.2,2.6,0.3,5.5,0.3,8.6v21h-6.3V655h10l8.4,22.3c0.7,1.9,1.2,3.5,1.4,4.9h0.2
		c0.4-1.4,0.9-3.1,1.5-5l8.5-22.3h9.7v35.9H-90.7z"/>
	<path d="M-52.8,665.2l-10.8,28.3c-2.4,6.3-5.9,9.4-10.6,9.4c-1.6,0-3-0.2-4.1-0.6v-5.5c1,0.5,2,0.8,3.2,0.8c2,0,3.5-1,4.4-3.1
		l1.6-3.7l-10.3-25.6h7.5l5.4,16.8c0.2,0.5,0.4,1.5,0.7,3h0.1c0.1-0.8,0.4-1.8,0.7-2.9l5.6-16.8H-52.8z"/>
	<path d="M-41.7,678.1v12.7h-6.9V655h11.8c8.7,0,13.1,3.7,13.1,11.2c0,3.6-1.3,6.5-4,8.7c-2.6,2.2-6,3.3-10,3.2H-41.7z M-41.7,660.5
		v12.2h3.5c4.8,0,7.2-2.1,7.2-6.2c0-4-2.3-6-7-6H-41.7z"/>
	<path d="M-19.4,666.9c1.2-0.7,2.6-1.2,4.5-1.6s3.5-0.6,4.9-0.6c6.9,0,10.4,3.5,10.4,10.5v15.7h-6.5v-3.8h-0.1
		c-1.7,2.9-4.3,4.4-7.7,4.4c-2.5,0-4.4-0.7-5.9-2.1s-2.2-3.3-2.2-5.6c0-4.9,2.9-7.7,8.7-8.5l7.1-1c0-3.3-1.6-4.9-4.8-4.9
		c-3,0-5.9,1-8.6,2.8V666.9z M-11.2,679.1c-2.9,0.4-4.4,1.7-4.4,3.9c0,1,0.3,1.8,1,2.5c0.7,0.6,1.6,1,2.8,1c1.6,0,3-0.6,4-1.7
		c1.1-1.1,1.6-2.6,1.6-4.3v-1.9L-11.2,679.1z"/>
	<path d="M31.2,688.2c0,4.7-1.3,8.4-3.9,10.9c-2.6,2.5-6.4,3.8-11.4,3.8c-3.4,0-6.1-0.5-8.2-1.6v-5.9c2.7,1.5,5.4,2.3,8.1,2.3
		c2.8,0,4.9-0.7,6.4-2.2s2.3-3.6,2.3-6.3V687h-0.1c-1.9,3-4.6,4.5-8.2,4.5c-3.2,0-5.7-1.1-7.7-3.4c-1.9-2.3-2.9-5.4-2.9-9.3
		c0-4.3,1.1-7.7,3.2-10.3c2.1-2.6,4.9-3.8,8.4-3.8c3.2,0,5.6,1.3,7.2,3.8h0.1v-3.1h6.8V688.2z M24.5,676.2c0-1.7-0.5-3.2-1.6-4.5
		c-1.1-1.2-2.5-1.9-4.1-1.9c-1.9,0-3.5,0.8-4.6,2.3c-1.1,1.5-1.7,3.6-1.7,6.3c0,2.3,0.5,4.2,1.6,5.6c1.1,1.4,2.5,2.1,4.3,2.1
		c1.8,0,3.3-0.7,4.5-2.1c1.1-1.4,1.7-3.2,1.7-5.3V676.2z"/>
	<path d="M60.6,680H43.5c0.3,4.4,2.7,6.5,7.4,6.5c2.8,0,5.4-0.7,7.6-2.2v5.2c-2.4,1.4-5.4,2.1-9.1,2.1c-4,0-7.1-1.2-9.3-3.5
		c-2.2-2.3-3.3-5.5-3.3-9.7c0-4.1,1.2-7.4,3.6-9.9c2.4-2.5,5.4-3.8,8.9-3.8c3.6,0,6.4,1.1,8.4,3.3s3,5.2,3,9V680z M54.2,675.5
		c0-4.1-1.7-6.1-5-6.1c-1.4,0-2.6,0.6-3.7,1.7s-1.7,2.6-2,4.4H54.2z"/>
</g>
<path class="st0" d="M403,767.2c-18.8,0-34,15.2-34,34v34h34c18.8,0,34-15.2,34-34S421.8,767.2,403,767.2z"/>
<g>
	<path class="st1" d="M426.8,818.5c0,5.4-1.2,9.6-3.7,12.4c-2.5,2.9-5.9,4.3-10.3,4.3c-1.9,0-3.7-0.3-5.4-1v-7.6
		c1.4,1.1,3.1,1.6,5,1.6c4.3,0,6.4-3.3,6.4-10V793h8V818.5z"/>
	<path d="M433.7,819.8c0-4.8,1.4-8.7,4.3-11.5c2.9-2.8,6.7-4.2,11.6-4.2c4.7,0,8.4,1.4,11.2,4.1c2.7,2.8,4.1,6.4,4.1,11.1
		c0,4.8-1.4,8.7-4.2,11.5c-2.8,2.9-6.7,4.3-11.5,4.3c-4.7,0-8.5-1.4-11.3-4.2C435.1,828.2,433.7,824.5,433.7,819.8z M441.7,819.7
		c0,6.2,2.6,9.3,7.8,9.3c5,0,7.5-3.2,7.5-9.6c0-6.2-2.5-9.2-7.5-9.2c-2.4,0-4.3,0.8-5.7,2.5C442.3,814.4,441.7,816.8,441.7,819.7z"
		/>
	<path d="M470.6,795.1c0-1.2,0.4-2.2,1.3-3c0.9-0.8,2-1.2,3.3-1.2c1.3,0,2.4,0.4,3.3,1.2c0.9,0.8,1.3,1.8,1.3,3c0,1.2-0.4,2.2-1.3,3
		c-0.9,0.8-2,1.2-3.3,1.2s-2.4-0.4-3.3-1.2C471,797.3,470.6,796.3,470.6,795.1z M471.2,834.4v-29.6h7.8v29.6H471.2z"/>
	<path d="M514.5,834.4h-7.8v-16.6c0-5.1-1.8-7.6-5.5-7.6c-1.8,0-3.3,0.7-4.5,2.1c-1.2,1.4-1.7,3.1-1.7,5.3v16.9h-7.9v-29.6h7.9v4.8
		h0.1c2.2-3.6,5.4-5.5,9.6-5.5c6.6,0,9.9,4.1,9.9,12.2V834.4z"/>
</g>
<path class="st0" d="M398.4,900.2c-16.2,0-29.4,13.2-29.4,29.4V959h29.4c16.2,0,29.4-13.2,29.4-29.4S414.6,900.2,398.4,900.2z"/>
<g>
	<path class="st1" d="M424.1,942.1c0,10.6-4.9,15.9-14.7,15.9c-9.4,0-14.1-5.1-14.1-15.4v-21.1h7v21.1c0,6.3,2.5,9.4,7.5,9.4
		c4.9,0,7.4-3,7.4-9.1v-21.4h6.9V942.1z"/>
	<path class="st2" d="M438.3,954.1v15h-6.8v-37.4h6.8v4h0.1c2-3.1,4.8-4.7,8.4-4.7c3.2,0,5.8,1.1,7.6,3.4c1.9,2.3,2.8,5.4,2.8,9.3
		c0,4.3-1.1,7.7-3.2,10.3c-2.1,2.6-4.9,3.9-8.4,3.9C442.5,957.9,440,956.7,438.3,954.1L438.3,954.1z M438.2,946.2
		c0,1.9,0.5,3.4,1.6,4.6c1.1,1.2,2.4,1.8,4.1,1.8c2,0,3.5-0.8,4.7-2.3s1.7-3.7,1.7-6.5c0-5-2-7.4-5.9-7.4c-1.9,0-3.3,0.7-4.5,2.1
		c-1.1,1.4-1.7,3.1-1.7,5.2V946.2z"/>
	<path class="st2" d="M462.6,957.3v-37.9h6.8v37.9H462.6z"/>
	<path class="st2" d="M474.9,944.7c0-4.2,1.2-7.5,3.7-9.9s5.8-3.6,10-3.6c4.1,0,7.3,1.2,9.7,3.6c2.4,2.4,3.5,5.6,3.5,9.6
		c0,4.2-1.2,7.5-3.7,10c-2.4,2.5-5.8,3.7-9.9,3.7c-4.1,0-7.3-1.2-9.7-3.6S474.9,948.7,474.9,944.7z M481.7,944.6
		c0,5.4,2.2,8.1,6.7,8.1c4.3,0,6.5-2.8,6.5-8.3c0-5.3-2.2-8-6.5-8c-2.1,0-3.8,0.7-4.9,2.2C482.3,940,481.7,942,481.7,944.6z"/>
	<path class="st2" d="M507.4,933.3c1.2-0.7,2.6-1.2,4.5-1.6c1.8-0.4,3.5-0.6,4.9-0.6c6.9,0,10.4,3.5,10.4,10.5v15.7h-6.5v-3.8h-0.1
		c-1.7,2.9-4.3,4.4-7.7,4.4c-2.5,0-4.4-0.7-5.9-2.1s-2.2-3.3-2.2-5.6c0-4.9,2.9-7.7,8.7-8.5l7.1-1c0-3.3-1.6-4.9-4.8-4.9
		c-3,0-5.9,1-8.6,2.8V933.3z M515.6,945.6c-2.9,0.4-4.4,1.7-4.4,3.9c0,1,0.3,1.8,1,2.5c0.7,0.6,1.6,1,2.8,1c1.6,0,3-0.6,4-1.7
		c1.1-1.1,1.6-2.6,1.6-4.3V945L515.6,945.6z"/>
	<path class="st2" d="M558,957.3h-6.8v-3.8h-0.1c-1.8,2.9-4.5,4.4-8.2,4.4c-3.2,0-5.8-1.2-7.7-3.5c-1.9-2.3-2.9-5.4-2.9-9.4
		c0-4.2,1.1-7.6,3.2-10.1c2.2-2.6,5-3.8,8.4-3.8c3.4,0,5.7,1.2,7.1,3.7h0.1v-15.4h6.8V957.3z M551.3,942.7c0-1.8-0.6-3.3-1.7-4.5
		s-2.5-1.8-4.2-1.8c-1.9,0-3.5,0.8-4.6,2.3c-1.1,1.5-1.7,3.6-1.7,6.2c0,2.5,0.5,4.4,1.6,5.7c1.1,1.4,2.6,2,4.4,2
		c1.8,0,3.2-0.7,4.4-2.1c1.1-1.4,1.7-3.2,1.7-5.4V942.7z"/>
	<path class="st2" d="M612.1,957.3h-8l-5.7-9.5c-1.2-1.9-2.1-3.2-2.9-3.8c-0.8-0.6-1.7-0.9-2.6-0.9h-2.5v14.2h-6.9v-35.9h12.2
		c8.3,0,12.4,3.2,12.4,9.7c0,2.4-0.7,4.4-2.1,6.2c-1.4,1.7-3.4,3-5.9,3.7v0.1c1.6,0.6,3.5,2.4,5.4,5.5L612.1,957.3z M590.3,926.9
		v10.9h4.1c1.9,0,3.4-0.5,4.5-1.6c1.1-1.1,1.7-2.5,1.7-4.1c0-3.4-2-5.1-6.1-5.1H590.3z"/>
	<path class="st2" d="M636.2,946.4h-17.1c0.3,4.4,2.7,6.5,7.4,6.5c2.8,0,5.4-0.7,7.6-2.2v5.2c-2.4,1.4-5.4,2.1-9.1,2.1
		c-4,0-7.1-1.2-9.3-3.5c-2.2-2.3-3.3-5.5-3.3-9.7c0-4.1,1.2-7.4,3.6-9.9c2.4-2.5,5.4-3.8,8.9-3.8c3.6,0,6.4,1.1,8.4,3.3s3,5.2,3,9
		V946.4z M629.7,942c0-4.1-1.7-6.1-5-6.1c-1.4,0-2.6,0.6-3.7,1.7s-1.7,2.6-2,4.4H629.7z"/>
	<path class="st2" d="M660.1,956.3c-1.8,1.1-4.3,1.6-7.5,1.6c-3.8,0-6.9-1.2-9.3-3.5c-2.4-2.4-3.6-5.5-3.6-9.3
		c0-4.4,1.3-7.8,3.8-10.3c2.5-2.5,6-3.8,10.2-3.8c2.8,0,4.9,0.4,6.4,1.2v6c-1.7-1.3-3.6-1.9-5.7-1.9c-2.4,0-4.3,0.7-5.7,2.2
		c-1.4,1.5-2.1,3.5-2.1,6c0,2.5,0.7,4.5,2,5.9c1.3,1.4,3.2,2.1,5.6,2.1c2.1,0,4.1-0.6,6-1.9V956.3z"/>
	<path class="st2" d="M665,923.3c0-1,0.4-1.9,1.1-2.6c0.7-0.7,1.7-1,2.9-1c1.1,0,2.1,0.3,2.9,1c0.8,0.7,1.1,1.6,1.1,2.6
		c0,1.1-0.4,1.9-1.1,2.6c-0.8,0.7-1.7,1-2.9,1s-2.1-0.4-2.8-1.1C665.3,925.2,665,924.3,665,923.3z M665.5,957.3v-25.6h6.8v25.6
		H665.5z"/>
	<path class="st2" d="M686.1,954.1v15h-6.8v-37.4h6.8v4h0.1c2-3.1,4.8-4.7,8.4-4.7c3.2,0,5.8,1.1,7.6,3.4c1.9,2.3,2.8,5.4,2.8,9.3
		c0,4.3-1.1,7.7-3.2,10.3c-2.1,2.6-4.9,3.9-8.4,3.9C690.3,957.9,687.9,956.7,686.1,954.1L686.1,954.1z M686,946.2
		c0,1.9,0.5,3.4,1.6,4.6c1.1,1.2,2.4,1.8,4.1,1.8c2,0,3.5-0.8,4.7-2.3s1.7-3.7,1.7-6.5c0-5-2-7.4-5.9-7.4c-1.9,0-3.3,0.7-4.5,2.1
		c-1.1,1.4-1.7,3.1-1.7,5.2V946.2z"/>
	<path class="st2" d="M732.8,946.4h-17.1c0.3,4.4,2.7,6.5,7.4,6.5c2.8,0,5.4-0.7,7.6-2.2v5.2c-2.4,1.4-5.4,2.1-9.1,2.1
		c-4,0-7.1-1.2-9.3-3.5c-2.2-2.3-3.3-5.5-3.3-9.7c0-4.1,1.2-7.4,3.6-9.9c2.4-2.5,5.4-3.8,8.9-3.8c3.6,0,6.4,1.1,8.4,3.3s3,5.2,3,9
		V946.4z M726.4,942c0-4.1-1.7-6.1-5-6.1c-1.4,0-2.6,0.6-3.7,1.7s-1.7,2.6-2,4.4H726.4z"/>
</g>
<path class="st0" d="M149.6,501.7c-20,0-36.2,16.2-36.2,36.2v36.2h36.2c20,0,36.2-16.2,36.2-36.2
	C185.8,517.9,169.6,501.7,149.6,501.7z"/>
<g>
	<path class="st1" d="M183.3,533.8h-12.6v37.1h-8.6v-37.1h-12.6v-7.1h33.8V533.8z"/>
	<path class="st2" d="M187.8,528.9c0-1.3,0.5-2.4,1.4-3.2s2.1-1.3,3.5-1.3c1.4,0,2.6,0.4,3.5,1.3c0.9,0.9,1.4,1.9,1.4,3.2
		c0,1.3-0.5,2.4-1.4,3.2c-0.9,0.9-2.1,1.3-3.5,1.3s-2.6-0.4-3.5-1.3C188.3,531.3,187.8,530.2,187.8,528.9z M188.5,570.8v-31.5h8.3
		v31.5H188.5z"/>
	<path class="st2" d="M213.8,566.9v18.5h-8.4v-46.1h8.4v5h0.1c2.4-3.8,5.9-5.7,10.4-5.7c4,0,7.1,1.4,9.4,4.2
		c2.3,2.8,3.4,6.6,3.4,11.5c0,5.2-1.3,9.5-3.9,12.6c-2.6,3.2-6.1,4.8-10.4,4.8C219,571.6,216,570.1,213.8,566.9L213.8,566.9z
		 M213.7,557.1c0,2.3,0.7,4.2,2,5.7c1.3,1.5,3,2.3,5.1,2.3c2.4,0,4.3-0.9,5.7-2.9c1.4-1.9,2.1-4.6,2.1-8c0-6.1-2.4-9.2-7.2-9.2
		c-2.3,0-4.1,0.9-5.5,2.6c-1.4,1.7-2.1,3.8-2.1,6.4V557.1z"/>
	<path class="st2" d="M285.5,526v44.9h-8.4v-34.7c-0.9,0.9-2.3,1.7-4,2.4c-1.7,0.7-3.5,1.2-5.4,1.4v-7.4c4.4-1.3,8.6-3.5,12.5-6.6
		H285.5z"/>
</g>
<path class="st0" d="M149.6,630.7c-20,0-36.2,16.2-36.2,36.2v36.2h36.2c20,0,36.2-16.2,36.2-36.2
	C185.8,646.9,169.6,630.7,149.6,630.7z"/>
<g>
	<path class="st1" d="M183.3,662.8h-12.6v37.1h-8.6v-37.1h-12.6v-7.1h33.8V662.8z"/>
	<path class="st2" d="M187.8,657.9c0-1.3,0.5-2.4,1.4-3.2s2.1-1.3,3.5-1.3c1.4,0,2.6,0.4,3.5,1.3c0.9,0.9,1.4,1.9,1.4,3.2
		c0,1.3-0.5,2.4-1.4,3.2c-0.9,0.9-2.1,1.3-3.5,1.3s-2.6-0.4-3.5-1.3C188.3,660.3,187.8,659.2,187.8,657.9z M188.5,699.8v-31.5h8.3
		v31.5H188.5z"/>
	<path class="st2" d="M213.8,695.9v18.5h-8.4v-46.1h8.4v5h0.1c2.4-3.8,5.9-5.7,10.4-5.7c4,0,7.1,1.4,9.4,4.2
		c2.3,2.8,3.4,6.6,3.4,11.5c0,5.2-1.3,9.5-3.9,12.6c-2.6,3.2-6.1,4.8-10.4,4.8C219,700.6,216,699.1,213.8,695.9L213.8,695.9z
		 M213.7,686.1c0,2.3,0.7,4.2,2,5.7c1.3,1.5,3,2.3,5.1,2.3c2.4,0,4.3-0.9,5.7-2.9c1.4-1.9,2.1-4.6,2.1-8c0-6.1-2.4-9.2-7.2-9.2
		c-2.3,0-4.1,0.9-5.5,2.6c-1.4,1.7-2.1,3.8-2.1,6.4V686.1z"/>
	<path class="st2" d="M273.9,692.8h18.7v7.1H265v-3.3c0-2.4,0.4-4.6,1.2-6.6c0.8-2,2-3.9,3.5-5.6c1.5-1.7,4.7-4.4,9.5-8.1
		c1.9-1.4,3.2-2.7,4-4c0.8-1.3,1.2-2.7,1.2-4.3c0-2-0.6-3.5-1.7-4.6c-1.2-1.1-2.9-1.6-5.4-1.6c-3.8,0-7.4,1.5-10.9,4.5v-7.5
		c3.6-2.5,7.6-3.7,12.1-3.7c4.6,0,8.1,1.1,10.6,3.3c2.5,2.2,3.7,5.3,3.7,9.2c0,2-0.3,3.8-1,5.4c-0.7,1.6-1.5,3-2.6,4.2
		c-1.1,1.3-2.3,2.5-3.7,3.5c-1.4,1.1-2.8,2.2-4.3,3.3c-2.7,2-4.6,3.7-5.8,5.1C274.5,690.5,273.9,691.7,273.9,692.8z"/>
</g>
<path class="st0" d="M149.6,891.2c-20.3,0-36.7,16.4-36.7,36.7v36.7h36.7c20.3,0,36.7-16.4,36.7-36.7S169.9,891.2,149.6,891.2z"/>
<g>
	<path class="st1" d="M182.4,926.2h-16.3v12.3h15v7.1h-15v18.1h-8.7V919h24.9V926.2z"/>
	<path class="st2" d="M188.5,921.3c0-1.3,0.5-2.4,1.4-3.3c0.9-0.9,2.1-1.3,3.6-1.3c1.4,0,2.6,0.4,3.6,1.3c1,0.9,1.4,2,1.4,3.3
		s-0.5,2.4-1.4,3.3s-2.1,1.3-3.6,1.3c-1.4,0-2.6-0.4-3.6-1.3C188.9,923.6,188.5,922.5,188.5,921.3z M189.1,963.7v-32h8.5v32H189.1z"
		/>
	<path class="st2" d="M206.2,963.7v-47.3h8.5v47.3H206.2z"/>
	<path class="st2" d="M241.4,963.4c-1.4,0.7-3.4,1.1-6,1.1c-6.5,0-9.8-3.5-9.8-10.4v-15.9h-5.3v-6.4h5.3v-7.1l8.5-2.5v9.6h7.4v6.4
		H234v14.4c0,3.5,1.4,5.3,4.2,5.3c1.2,0,2.2-0.3,3.2-1V963.4z"/>
	<path class="st2" d="M274.9,950.1h-21.3c0.3,5.4,3.4,8.1,9.2,8.1c3.5,0,6.7-0.9,9.5-2.8v6.4c-3,1.7-6.8,2.6-11.4,2.6
		c-5,0-8.8-1.4-11.6-4.3s-4.1-6.9-4.1-12.1c0-5.1,1.5-9.2,4.5-12.4s6.7-4.8,11.1-4.8s7.9,1.4,10.4,4.1c2.5,2.7,3.7,6.5,3.7,11.3
		V950.1z M266.9,944.6c0-5.1-2.1-7.6-6.3-7.6c-1.7,0-3.3,0.7-4.6,2.1c-1.3,1.4-2.2,3.2-2.5,5.5H266.9z"/>
	<path class="st2" d="M300.9,939.6c-1.1-0.7-2.5-1-4.1-1c-2.1,0-3.8,0.9-5.1,2.6c-1.3,1.7-1.9,4.1-1.9,7v15.6h-8.5v-32h8.5v6.1h0.1
		c1.6-4.5,4.4-6.7,8.4-6.7c1.2,0,2,0.1,2.6,0.4V939.6z"/>
</g>
<path class="st0" d="M403,630.7c-17.9,0-32.4,14.5-32.4,32.4v32.4H403c17.9,0,32.4-14.5,32.4-32.4
	C435.4,645.2,420.9,630.7,403,630.7z"/>
<g>
	<path class="st1" d="M432.9,694.7H424l-6.3-10.4c-1.3-2.1-2.4-3.5-3.2-4.2c-0.9-0.7-1.9-1-2.9-1h-2.8v15.6h-7.6v-39.5h13.4
		c9.1,0,13.7,3.6,13.7,10.7c0,2.6-0.8,4.9-2.3,6.8s-3.7,3.3-6.5,4.1v0.1c1.8,0.6,3.8,2.6,6,6.1L432.9,694.7z M408.8,661.2v12h4.6
		c2.1,0,3.7-0.6,5-1.8c1.2-1.2,1.9-2.7,1.9-4.5c0-3.8-2.2-5.6-6.7-5.6H408.8z"/>
	<path class="st2" d="M459.3,682.7h-18.8c0.3,4.8,3,7.2,8.2,7.2c3.1,0,5.9-0.8,8.4-2.5v5.7c-2.6,1.5-6,2.3-10.1,2.3
		c-4.4,0-7.8-1.3-10.2-3.8c-2.4-2.5-3.7-6.1-3.7-10.6c0-4.5,1.3-8.1,3.9-10.9c2.6-2.8,5.9-4.2,9.8-4.2c3.9,0,7,1.2,9.2,3.6
		s3.3,5.7,3.3,9.9V682.7z M452.3,677.8c0-4.5-1.8-6.7-5.5-6.7c-1.5,0-2.9,0.6-4.1,1.8s-1.9,2.8-2.2,4.9H452.3z"/>
	<path class="st2" d="M485.7,693.6c-2,1.2-4.8,1.8-8.3,1.8c-4.2,0-7.6-1.3-10.3-3.9c-2.6-2.6-3.9-6-3.9-10.2c0-4.8,1.4-8.6,4.2-11.3
		c2.8-2.8,6.6-4.1,11.2-4.1c3.1,0,5.4,0.4,7,1.3v6.6c-1.9-1.4-4-2.1-6.3-2.1c-2.6,0-4.7,0.8-6.3,2.5c-1.6,1.6-2.4,3.8-2.4,6.6
		c0,2.8,0.7,4.9,2.2,6.5c1.5,1.6,3.5,2.3,6.1,2.3c2.3,0,4.5-0.7,6.6-2.1V693.6z"/>
	<path class="st2" d="M491,657.2c0-1.1,0.4-2.1,1.2-2.9s1.9-1.2,3.2-1.2c1.3,0,2.3,0.4,3.1,1.1c0.8,0.8,1.3,1.7,1.3,2.9
		c0,1.2-0.4,2.1-1.2,2.9c-0.8,0.8-1.9,1.2-3.2,1.2c-1.3,0-2.3-0.4-3.1-1.2C491.4,659.3,491,658.4,491,657.2z M491.6,694.7v-28.2h7.5
		v28.2H491.6z"/>
	<path class="st2" d="M514.3,691.2v16.5h-7.5v-41.2h7.5v4.5h0.1c2.2-3.4,5.3-5.1,9.3-5.1c3.6,0,6.4,1.2,8.4,3.7
		c2,2.5,3.1,5.9,3.1,10.2c0,4.7-1.2,8.5-3.5,11.3c-2.3,2.9-5.4,4.3-9.3,4.3C518.9,695.4,516.2,694,514.3,691.2L514.3,691.2z
		 M514.2,682.4c0,2,0.6,3.7,1.8,5.1c1.2,1.4,2.7,2,4.5,2c2.2,0,3.9-0.8,5.1-2.5s1.8-4.1,1.8-7.2c0-5.5-2.2-8.2-6.5-8.2
		c-2,0-3.7,0.8-4.9,2.3c-1.3,1.5-1.9,3.4-1.9,5.7V682.4z"/>
	<path class="st2" d="M565.7,682.7h-18.8c0.3,4.8,3,7.2,8.2,7.2c3.1,0,5.9-0.8,8.4-2.5v5.7c-2.6,1.5-6,2.3-10.1,2.3
		c-4.4,0-7.8-1.3-10.2-3.8c-2.4-2.5-3.7-6.1-3.7-10.6c0-4.5,1.3-8.1,3.9-10.9c2.6-2.8,5.9-4.2,9.8-4.2c3.9,0,7,1.2,9.2,3.6
		s3.3,5.7,3.3,9.9V682.7z M558.7,677.8c0-4.5-1.8-6.7-5.5-6.7c-1.5,0-2.9,0.6-4.1,1.8s-1.9,2.8-2.2,4.9H558.7z"/>
</g>
<path class="st0" d="M-104.3,768.2c-19.3,0-34.9,15.6-34.9,34.9v34.9h34.9c19.3,0,34.9-15.6,34.9-34.9
	C-69.4,783.8-85,768.2-104.3,768.2z"/>
<g>
	<path class="st1" d="M-73.2,837.8h-9.5l-6.8-11.2c-1.4-2.3-2.5-3.8-3.5-4.5c-1-0.7-2-1.1-3.1-1.1h-3v16.8h-8.2v-42.5h14.4
		c9.8,0,14.7,3.8,14.7,11.5c0,2.8-0.8,5.3-2.5,7.3c-1.6,2.1-4,3.5-7,4.4v0.1c1.9,0.7,4.1,2.8,6.4,6.6L-73.2,837.8z M-99.1,801.7
		v12.9h4.9c2.2,0,4-0.6,5.4-1.9s2-2.9,2-4.9c0-4-2.4-6.1-7.2-6.1H-99.1z"/>
	<path class="st2" d="M-44.7,824.9H-65c0.3,5.2,3.3,7.7,8.8,7.7c3.4,0,6.4-0.9,9-2.7v6.1c-2.8,1.6-6.4,2.5-10.8,2.5
		c-4.7,0-8.4-1.4-11-4.1S-73,827.9-73,823c0-4.8,1.4-8.7,4.2-11.7c2.8-3,6.3-4.5,10.6-4.5c4.2,0,7.5,1.3,9.9,3.9
		c2.4,2.6,3.6,6.2,3.6,10.7V824.9z M-52.3,819.6c0-4.8-2-7.2-6-7.2c-1.7,0-3.1,0.7-4.4,2s-2,3.1-2.4,5.3H-52.3z"/>
	<path class="st2" d="M-37.9,809.4c1.4-0.8,3.1-1.4,5.3-1.9c2.2-0.5,4.1-0.7,5.9-0.7c8.2,0,12.3,4.2,12.3,12.5v18.6h-7.7v-4.5h-0.1
		c-2,3.5-5.1,5.2-9.1,5.2c-2.9,0-5.2-0.8-7-2.5c-1.7-1.6-2.6-3.9-2.6-6.6c0-5.8,3.4-9.2,10.3-10.1l8.5-1.2c0-3.9-1.9-5.8-5.7-5.8
		c-3.6,0-7,1.1-10.2,3.4V809.4z M-28.1,824c-3.5,0.4-5.2,2-5.2,4.7c0,1.2,0.4,2.2,1.2,2.9c0.8,0.8,1.9,1.1,3.4,1.1
		c1.9,0,3.5-0.7,4.8-2c1.3-1.4,1.9-3.1,1.9-5.1v-2.3L-28.1,824z"/>
	<path class="st2" d="M22.1,837.8h-8v-4.5h-0.1c-2.2,3.5-5.4,5.2-9.7,5.2c-3.8,0-6.9-1.4-9.2-4.1c-2.3-2.7-3.4-6.5-3.4-11.1
		c0-5,1.3-9,3.8-12c2.6-3,5.9-4.5,10-4.5c4,0,6.8,1.5,8.4,4.4h0.1v-18.3h8V837.8z M14.2,820.5c0-2.1-0.7-3.9-2-5.3
		c-1.3-1.4-3-2.1-4.9-2.1c-2.3,0-4.1,0.9-5.5,2.7c-1.3,1.8-2,4.3-2,7.4c0,2.9,0.6,5.2,1.9,6.8c1.3,1.6,3,2.4,5.2,2.4
		c2.1,0,3.9-0.8,5.2-2.5c1.3-1.7,2-3.8,2-6.4V820.5z"/>
	<path class="st2" d="M58.1,807.5L45.3,841c-2.8,7.4-7,11.1-12.6,11.1c-1.9,0-3.6-0.2-4.9-0.7v-6.6c1.2,0.6,2.4,0.9,3.8,0.9
		c2.4,0,4.1-1.2,5.2-3.7l1.8-4.3l-12.2-30.3h8.9l6.4,19.9c0.2,0.6,0.5,1.8,0.8,3.6h0.1c0.2-1,0.4-2.2,0.9-3.5l6.6-20H58.1z"/>
</g>
<path class="st0" d="M409.8,501.7c-22.5,0-40.8,18.3-40.8,40.8v40.8h40.8c22.5,0,40.8-18.3,40.8-40.8S432.3,501.7,409.8,501.7z"/>
<g>
	<path class="st1" d="M411.6,569.5c3.9,3.3,8.5,4.9,13.6,4.9c3.1,0,5.4-0.5,6.9-1.6c1.5-1.1,2.3-2.5,2.3-4.2c0-1.5-0.6-2.9-1.9-4.2
		c-1.3-1.3-4.3-2.9-9.2-5c-4.1-1.8-7.1-3.9-9-6.2c-1.9-2.3-2.8-5-2.8-8.1c0-4.5,1.7-8,5.2-10.5c3.5-2.5,8-3.8,13.7-3.8
		c5,0,9,0.6,11.9,1.9v9.2c-3.2-2.2-7.1-3.3-11.7-3.3c-2.7,0-4.9,0.5-6.5,1.5c-1.7,1-2.5,2.4-2.5,4.2c0,1.4,0.6,2.7,1.7,3.9
		c1.1,1.2,3.8,2.7,8.1,4.6c4.9,2.1,8.2,4.3,10.1,6.7c1.9,2.3,2.8,5.1,2.8,8.4c0,4.7-1.7,8.3-5,10.7c-3.3,2.5-8,3.7-14.1,3.7
		c-5.6,0-10.2-0.9-13.7-2.8V569.5z"/>
	<path class="st2" d="M470.1,580.9c-1.6,0.8-3.8,1.2-6.7,1.2c-7.3,0-10.9-3.9-10.9-11.6v-17.6h-5.9v-7.2h5.9v-7.9l9.4-2.7v10.7h8.2
		v7.2h-8.2v16c0,3.9,1.5,5.9,4.6,5.9c1.3,0,2.5-0.4,3.6-1.1V580.9z"/>
	<path class="st2" d="M507.4,566.2h-23.7c0.4,6,3.8,9.1,10.3,9.1c3.9,0,7.5-1,10.5-3.1v7.2c-3.3,1.9-7.5,2.9-12.7,2.9
		c-5.5,0-9.8-1.6-12.9-4.8c-3.1-3.2-4.6-7.7-4.6-13.4c0-5.6,1.7-10.2,5-13.7c3.3-3.5,7.4-5.3,12.4-5.3c5,0,8.8,1.5,11.6,4.6
		c2.8,3,4.2,7.2,4.2,12.5V566.2z M498.5,560c0-5.6-2.3-8.5-7-8.5c-1.9,0-3.6,0.8-5.1,2.3c-1.5,1.5-2.4,3.6-2.8,6.2H498.5z"/>
	<path class="st2" d="M523.9,576.9v20.8h-9.4v-51.9h9.4v5.6h0.1c2.7-4.3,6.6-6.5,11.7-6.5c4.5,0,8,1.6,10.6,4.7
		c2.6,3.1,3.9,7.4,3.9,12.9c0,5.9-1.5,10.7-4.4,14.2c-2.9,3.6-6.8,5.4-11.7,5.4c-4.4,0-7.7-1.8-10.1-5.3H523.9z M523.8,565.8
		c0,2.6,0.7,4.7,2.2,6.4c1.5,1.7,3.4,2.6,5.7,2.6c2.7,0,4.9-1.1,6.5-3.2c1.6-2.1,2.3-5.1,2.3-9c0-6.9-2.7-10.3-8.1-10.3
		c-2.6,0-4.6,1-6.2,2.9c-1.6,1.9-2.4,4.3-2.4,7.2V565.8z"/>
</g>
<path class="st0" d="M457.5,342.7c-5.9,0-10.7,4.8-10.7,10.7V364h10.7c5.9,0,10.7-4.8,10.7-10.7
	C468.2,347.4,463.4,342.7,457.5,342.7z"/>
<g>
	<path class="st1" d="M464.2,350.8V364h-2.5v-10.2c-0.3,0.3-0.7,0.5-1.2,0.7c-0.5,0.2-1,0.4-1.6,0.4v-2.2c1.3-0.4,2.5-1,3.7-1.9
		H464.2z"/>
</g>
<path class="st0" d="M457.5,372.2c-5.9,0-10.7,4.8-10.7,10.7v10.7h10.7c5.9,0,10.7-4.8,10.7-10.7
	C468.2,376.9,463.4,372.2,457.5,372.2z"/>
<g>
	<path class="st1" d="M460.7,391.4h5.5v2.1h-8.1v-1c0-0.7,0.1-1.3,0.4-1.9c0.2-0.6,0.6-1.1,1-1.7c0.4-0.5,1.4-1.3,2.8-2.4
		c0.6-0.4,1-0.8,1.2-1.2c0.2-0.4,0.4-0.8,0.4-1.3c0-0.6-0.2-1-0.5-1.3c-0.3-0.3-0.9-0.5-1.6-0.5c-1.1,0-2.2,0.4-3.2,1.3v-2.2
		c1-0.7,2.2-1.1,3.6-1.1c1.3,0,2.4,0.3,3.1,1c0.7,0.7,1.1,1.6,1.1,2.7c0,0.6-0.1,1.1-0.3,1.6c-0.2,0.5-0.4,0.9-0.8,1.3
		s-0.7,0.7-1.1,1c-0.4,0.3-0.8,0.6-1.3,1c-0.8,0.6-1.4,1.1-1.7,1.5S460.7,391.1,460.7,391.4z"/>
</g>
<path class="st0" d="M457.5,398.9c-5.9,0-10.7,4.8-10.7,10.7v10.7h10.7c5.9,0,10.7-4.8,10.7-10.7S463.4,398.9,457.5,398.9z"/>
<g>
	<path class="st1" d="M458.3,417.6c0.9,0.7,1.9,1,3,1c0.8,0,1.4-0.2,1.8-0.5c0.5-0.3,0.7-0.8,0.7-1.5c0-1.4-1-2-3.1-2h-1.1v-1.9h1.1
		c1.8,0,2.7-0.6,2.7-1.9c0-1.2-0.7-1.8-2.1-1.8c-0.9,0-1.7,0.3-2.6,0.9v-2.1c0.9-0.5,1.9-0.7,3.1-0.7c1.2,0,2.2,0.3,2.9,0.8
		s1.1,1.4,1.1,2.4c0,1.7-0.9,2.8-2.6,3.2v0c0.9,0.1,1.6,0.4,2.2,1c0.5,0.6,0.8,1.3,0.8,2.1c0,1.2-0.4,2.2-1.3,2.9
		c-0.9,0.7-2.1,1-3.6,1c-1.3,0-2.4-0.2-3.2-0.7V417.6z"/>
</g>
<path class="st0" d="M457.5,427.8c-5.9,0-10.7,4.8-10.7,10.7v10.7h10.7c5.9,0,10.7-4.8,10.7-10.7S463.4,427.8,457.5,427.8z"/>
<g>
	<path class="st1" d="M465.4,436.1v8.3h1.6v1.8h-1.6v2.9h-2.3v-2.9h-5.7v-1.9c1.2-1.4,2.3-2.8,3.3-4.2c1-1.5,1.8-2.8,2.3-4H465.4z
		 M459.5,444.4h3.6v-5c-0.4,0.6-0.9,1.4-1.5,2.4S460.2,443.6,459.5,444.4z"/>
</g>
<path class="st0" d="M457.5,456.4c-5.9,0-10.7,4.8-10.7,10.7v10.7h10.7c5.9,0,10.7-4.8,10.7-10.7S463.4,456.4,457.5,456.4z"/>
<g>
	<path class="st1" d="M458.3,477.3v-2.2c0.4,0.3,0.8,0.5,1.3,0.7c0.5,0.2,1,0.2,1.5,0.2c0.8,0,1.5-0.2,2-0.6s0.7-1,0.7-1.7
		c0-0.7-0.3-1.3-0.8-1.6s-1.3-0.5-2.3-0.5c-0.7,0-1.5,0.1-2.2,0.2l0.5-7.1h6.7v2.1h-4.7l-0.2,3c0.7-0.1,1.1-0.1,1.3-0.1
		c1.3,0,2.3,0.3,3.1,1s1.2,1.6,1.2,2.8c0,1.4-0.4,2.5-1.3,3.3c-0.9,0.8-2.1,1.2-3.6,1.2C460.1,478,459.1,477.8,458.3,477.3z"/>
</g>
<path class="st0" d="M457.5,482c-5.9,0-10.7,4.8-10.7,10.7v10.7h10.7c5.9,0,10.7-4.8,10.7-10.7S463.4,482,457.5,482z"/>
<g>
	<path class="st1" d="M466,492.6c-0.7-0.4-1.4-0.5-2.1-0.5c-1,0-1.9,0.4-2.5,1.3c-0.6,0.8-0.9,1.9-0.9,3.3h0.1
		c0.6-1,1.6-1.5,2.8-1.5c1.1,0,2,0.4,2.6,1.1c0.6,0.7,1,1.7,1,2.9c0,1.3-0.4,2.4-1.2,3.2c-0.8,0.8-1.9,1.3-3.1,1.3
		c-1.5,0-2.6-0.5-3.4-1.6c-0.8-1.1-1.2-2.5-1.2-4.4c0-2.2,0.5-4,1.5-5.4c1-1.4,2.4-2.1,4.2-2.1c1,0,1.8,0.1,2.3,0.4V492.6z
		 M460.5,499.1c0,0.7,0.2,1.3,0.5,1.8c0.4,0.5,0.8,0.8,1.5,0.8c0.6,0,1.1-0.2,1.4-0.7c0.3-0.5,0.5-1,0.5-1.7c0-1.6-0.6-2.3-1.9-2.3
		c-0.6,0-1.1,0.2-1.4,0.6C460.7,498,460.5,498.5,460.5,499.1z"/>
</g>
<path class="st0" d="M149.6,768.2c-20.3,0-36.8,16.5-36.8,36.8v36.8h36.8c20.3,0,36.8-16.5,36.8-36.8S169.9,768.2,149.6,768.2z"/>
<g>
	<path class="st1" d="M182,842.1h-10l-7.1-11.8c-1.4-2.4-2.7-4-3.7-4.7c-1-0.8-2.1-1.1-3.3-1.1h-3.2v17.7H146v-44.8h15.2
		c10.4,0,15.5,4,15.5,12.1c0,3-0.9,5.5-2.6,7.7s-4.2,3.7-7.4,4.6v0.1c2.1,0.7,4.3,3,6.8,6.9L182,842.1z M154.7,804v13.6h5.2
		c2.4,0,4.2-0.7,5.6-2.1s2.1-3.1,2.1-5.1c0-4.3-2.5-6.4-7.6-6.4H154.7z"/>
	<path class="st2" d="M212.1,828.5h-21.4c0.3,5.4,3.4,8.2,9.3,8.2c3.6,0,6.7-0.9,9.5-2.8v6.5c-3,1.7-6.8,2.6-11.4,2.6
		c-5,0-8.8-1.4-11.6-4.3c-2.8-2.9-4.2-6.9-4.2-12.1c0-5.1,1.5-9.2,4.5-12.4c3-3.2,6.7-4.8,11.2-4.8c4.5,0,7.9,1.4,10.4,4.1
		c2.5,2.7,3.7,6.5,3.7,11.3V828.5z M204,822.9c0-5.1-2.1-7.6-6.3-7.6c-1.7,0-3.3,0.7-4.6,2.1c-1.3,1.4-2.2,3.2-2.5,5.5H204z"/>
	<path class="st2" d="M227,838.1v18.7h-8.5v-46.7h8.5v5.1h0.1c2.5-3.9,6-5.8,10.5-5.8c4,0,7.2,1.4,9.5,4.2c2.3,2.8,3.5,6.7,3.5,11.6
		c0,5.3-1.3,9.6-4,12.8c-2.6,3.2-6.2,4.9-10.5,4.9C232.2,842.9,229.2,841.3,227,838.1L227,838.1z M226.9,828.2c0,2.3,0.7,4.2,2,5.8
		c1.3,1.5,3.1,2.3,5.1,2.3c2.5,0,4.4-1,5.8-2.9c1.4-1.9,2.1-4.6,2.1-8.1c0-6.2-2.4-9.3-7.3-9.3c-2.3,0-4.2,0.9-5.6,2.6
		c-1.4,1.7-2.1,3.9-2.1,6.5V828.2z"/>
	<path class="st2" d="M257.4,842.1v-47.4h8.5v47.4H257.4z"/>
	<path class="st2" d="M303.7,810.1l-13.5,35.3c-3,7.8-7.4,11.7-13.3,11.7c-2,0-3.7-0.2-5.1-0.7v-6.9c1.2,0.6,2.5,1,4,1
		c2.5,0,4.4-1.3,5.5-3.9l1.9-4.6l-12.9-31.9h9.4l6.7,21c0.2,0.7,0.5,1.9,0.8,3.7h0.1c0.2-1.1,0.5-2.3,0.9-3.7l6.9-21H303.7z"/>
</g>
<g>
	<path class="st3" d="M-111.4,554.8v5.2h-18v-5.2h6.5v-3.4c-0.8-0.3-1.6-0.7-2.3-1.2s-1.3-1.1-1.8-1.8c-0.5-0.7-0.9-1.5-1.2-2.3
		c-0.3-0.8-0.4-1.7-0.4-2.7c0-1.2,0.2-2.2,0.7-3.2c0.4-1,1-1.9,1.8-2.7c0.7-0.8,1.6-1.4,2.6-1.8c1-0.4,2.1-0.7,3.2-0.7
		s2.2,0.2,3.2,0.7c1,0.4,1.9,1,2.7,1.8c0.8,0.8,1.4,1.6,1.8,2.7c0.4,1,0.7,2.1,0.7,3.2c0,0.9-0.1,1.8-0.4,2.6
		c-0.3,0.8-0.7,1.6-1.2,2.3c-0.5,0.7-1.1,1.3-1.8,1.8c-0.7,0.5-1.5,0.9-2.3,1.2v3.4H-111.4z M-120.3,540.9c-0.7,0-1.3,0.2-1.8,0.7
		c-0.5,0.5-0.7,1.1-0.7,1.8c0,0.7,0.2,1.3,0.7,1.8c0.5,0.5,1.1,0.7,1.8,0.7s1.3-0.2,1.8-0.7c0.5-0.5,0.7-1.1,0.7-1.8
		c0-0.7-0.2-1.3-0.7-1.8C-119,541.2-119.6,540.9-120.3,540.9z"/>
	<path class="st3" d="M-90.5,554.8v5.2h-18v-5.2H-90.5z M-108.4,587.2v-12.7c0-0.7,0.2-1.3,0.7-1.8c0.5-0.5,1.1-0.8,1.9-0.8h8.6
		c0.9,0,1.3-0.4,1.3-1.3v-2.2c0-0.9-0.4-1.3-1.3-1.3h-11.3v-5.2h17.8v15.3h-11.3c-0.9,0-1.3,0.4-1.3,1.3v2.2c0,0.9,0.4,1.3,1.3,1.3
		h11.3v5.2H-108.4z M-108.3,552v-10.6c0-0.7,0.2-1.4,0.7-1.9c0.5-0.5,1.1-0.7,1.8-0.7h2.6v6.7c0,0.9,0.4,1.3,1.3,1.3h11.2v5.2
		H-108.3z"/>
</g>
<g>
	<path class="st0" d="M-78.2,574.5v-12.9h37.8v12.9h-12.6v12.7h-12.9v-12.7H-78.2z M-76.2,523.5c1.3-1.2,2.9-1.9,4.6-1.9h31.5v10.7
		h6.9v-10.5h12.9V563h-12.9v-17.8h-6.9v9.2H-78v-26.4C-78,526.4-77.4,524.9-76.2,523.5z M-65.2,538.4c0,2.1,1.1,3.2,3.2,3.2h8.9
		v-7.2H-62c-2.1,0-3.2,1.1-3.2,3.2V538.4z"/>
</g>
<g>
	<path class="st3" d="M-15,555.3c0.5-0.5,1.1-0.7,1.8-0.7h11.3v5.8h4.7v-5.8h5.2v16.6H2.9v-5.6h-4.7v5.6h-13.9v-14
		C-15.7,556.4-15.5,555.8-15,555.3z M-10.6,564.8c0,0.9,0.4,1.3,1.3,1.3h2.2v-6.3h-2.2c-0.9,0-1.3,0.4-1.3,1.3V564.8z M8.1,584.4
		c0,0.7-0.2,1.3-0.7,1.9c-0.5,0.5-1.2,0.7-1.9,0.7H2.9v-7.6c0-0.9-0.4-1.3-1.3-1.3h-7.9v-5.2H8.1V584.4z"/>
	<path class="st3" d="M31.3,568l-4.9,3.2l-2.2-3.7l-3.6-5.9l-3.6,5.9l-2.3,3.7l-2.5-1.3c-0.4-0.2-0.7-0.4-1-0.6
		c-0.3-0.2-0.5-0.4-0.6-0.8c-0.2-0.7-0.1-1.4,0.3-2.1l0.7-1.1l2.9-4.7l0.5-0.7v0h-4.1v-5.2H31v5.2h-4.8l0,0l0.4,0.7l2.9,4.7
		L31.3,568z M40.2,571.2H35v-16.6h5.2V571.2z"/>
	<path class="st3" d="M49.4,571.2c0,0.4-0.1,0.8-0.2,1.1c-0.1,0.4-0.4,0.7-0.6,0.9c-0.3,0.3-0.6,0.5-0.9,0.6
		c-0.4,0.2-0.7,0.2-1.1,0.2c-0.4,0-0.8-0.1-1.1-0.2c-0.4-0.2-0.7-0.4-0.9-0.6c-0.3-0.3-0.5-0.6-0.6-0.9c-0.1-0.4-0.2-0.7-0.2-1.1
		c0-0.8,0.3-1.5,0.9-2c0.6-0.6,1.2-0.8,2-0.8c0.8,0,1.5,0.3,2.1,0.8C49.1,569.8,49.4,570.5,49.4,571.2z M53.4,549.6
		c0.5,0.5,0.8,1.1,0.8,1.9v8.6c0,0.7-0.3,1.3-0.8,1.9c-0.5,0.5-1.2,0.8-1.9,0.8h-2.4v3.5h-5.3v-8.7h5V554h-5v-5.3h7.6
		C52.3,548.8,52.9,549,53.4,549.6z"/>
</g>
<path class="st0" d="M-85.1,528.8c0,0-6.2-3.7-9.9-7.3c3.6-1.9,5.4-6.2,4.1-10.2c-1.5-4.5-6.3-6.9-10.7-5.4
	c-0.9,0.3-1.8,0.8-2.5,1.4c-2.2-2.2-5.5-3.2-8.7-2.1c-4.5,1.5-6.9,6.3-5.4,10.7c0.8,2.4,2.6,4.2,4.8,5.1c-1.2,2-1.6,4.6-0.8,7
	c1.5,4.5,6.3,6.9,10.7,5.4c3.2-1.1,5.3-3.8,5.7-6.9C-94.9,528.3-90.7,529.8-85.1,528.8z"/>
<path class="st0" d="M12,504.8c-3.2-1.1-6.5-0.1-8.7,2.1c-0.7-0.6-1.6-1.1-2.5-1.4c-4.5-1.5-9.3,0.9-10.7,5.4
	c-1.3,4,0.5,8.3,4.1,10.2c-3.7,3.6-9.9,7.3-9.9,7.3c5.6,0.9,9.7-0.5,12.7-2.3c0.4,3.1,2.5,5.9,5.7,6.9c4.5,1.5,9.3-0.9,10.7-5.4
	c0.8-2.4,0.4-4.9-0.8-7c2.2-0.9,4-2.7,4.8-5.1C18.9,511.1,16.4,506.3,12,504.8z"/>
<circle class="st0" cx="-0.4" cy="542.8" r="4"/>
<circle class="st0" cx="26" cy="542.8" r="4"/>
<g>
	<path class="st1" d="M-111.4,420.5v5.2h-18v-5.2h6.5v-3.4c-0.8-0.3-1.6-0.7-2.3-1.2s-1.3-1.1-1.8-1.8c-0.5-0.7-0.9-1.5-1.2-2.3
		c-0.3-0.8-0.4-1.7-0.4-2.7c0-1.2,0.2-2.2,0.7-3.2c0.4-1,1-1.9,1.8-2.7c0.7-0.8,1.6-1.4,2.6-1.8c1-0.4,2.1-0.7,3.2-0.7
		s2.2,0.2,3.2,0.7c1,0.4,1.9,1,2.7,1.8c0.8,0.8,1.4,1.6,1.8,2.7c0.4,1,0.7,2.1,0.7,3.2c0,0.9-0.1,1.8-0.4,2.6
		c-0.3,0.8-0.7,1.6-1.2,2.3c-0.5,0.7-1.1,1.3-1.8,1.8c-0.7,0.5-1.5,0.9-2.3,1.2v3.4H-111.4z M-120.3,406.7c-0.7,0-1.3,0.2-1.8,0.7
		c-0.5,0.5-0.7,1.1-0.7,1.8c0,0.7,0.2,1.3,0.7,1.8c0.5,0.5,1.1,0.7,1.8,0.7s1.3-0.2,1.8-0.7c0.5-0.5,0.7-1.1,0.7-1.8
		c0-0.7-0.2-1.3-0.7-1.8C-119,406.9-119.6,406.7-120.3,406.7z"/>
	<path class="st1" d="M-90.5,420.5v5.2h-18v-5.2H-90.5z M-108.4,452.9v-12.7c0-0.7,0.2-1.3,0.7-1.8c0.5-0.5,1.1-0.8,1.9-0.8h8.6
		c0.9,0,1.3-0.4,1.3-1.3V434c0-0.9-0.4-1.3-1.3-1.3h-11.3v-5.2h17.8v15.3h-11.3c-0.9,0-1.3,0.4-1.3,1.3v2.2c0,0.9,0.4,1.3,1.3,1.3
		h11.3v5.2H-108.4z M-108.3,417.8v-10.6c0-0.7,0.2-1.4,0.7-1.9c0.5-0.5,1.1-0.7,1.8-0.7h2.6v6.7c0,0.9,0.4,1.3,1.3,1.3h11.2v5.2
		H-108.3z"/>
</g>
<g>
	<path class="st1" d="M-78.2,440.2v-12.9h37.8v12.9h-12.6V453h-12.9v-12.7H-78.2z M-76.2,389.2c1.3-1.2,2.9-1.9,4.6-1.9h31.5v10.7
		h6.9v-10.5h12.9v41.2h-12.9V411h-6.9v9.2H-78v-26.4C-78,392.1-77.4,390.6-76.2,389.2z M-65.2,404.2c0,2.1,1.1,3.2,3.2,3.2h8.9v-7.2
		H-62c-2.1,0-3.2,1.1-3.2,3.2V404.2z"/>
</g>
<g>
	<path class="st1" d="M-15,421.1c0.5-0.5,1.1-0.7,1.8-0.7h11.3v5.8h4.7v-5.8h5.2v16.6H2.9v-5.6h-4.7v5.6h-13.9v-14
		C-15.7,422.2-15.5,421.5-15,421.1z M-10.6,430.5c0,0.9,0.4,1.3,1.3,1.3h2.2v-6.3h-2.2c-0.9,0-1.3,0.4-1.3,1.3V430.5z M8.1,450.1
		c0,0.7-0.2,1.3-0.7,1.9c-0.5,0.5-1.2,0.7-1.9,0.7H2.9v-7.6c0-0.9-0.4-1.3-1.3-1.3h-7.9v-5.2H8.1V450.1z"/>
	<path class="st1" d="M31.3,433.7l-4.9,3.2l-2.2-3.7l-3.6-5.9l-3.6,5.9l-2.3,3.7l-2.5-1.3c-0.4-0.2-0.7-0.4-1-0.6
		c-0.3-0.2-0.5-0.4-0.6-0.8c-0.2-0.7-0.1-1.4,0.3-2.1l0.7-1.1l2.9-4.7l0.5-0.7v0h-4.1v-5.2H31v5.2h-4.8l0,0l0.4,0.7l2.9,4.7
		L31.3,433.7z M40.2,436.9H35v-16.6h5.2V436.9z"/>
	<path class="st1" d="M49.4,437c0,0.4-0.1,0.8-0.2,1.1c-0.1,0.4-0.4,0.7-0.6,0.9c-0.3,0.3-0.6,0.5-0.9,0.6c-0.4,0.2-0.7,0.2-1.1,0.2
		c-0.4,0-0.8-0.1-1.1-0.2c-0.4-0.2-0.7-0.4-0.9-0.6c-0.3-0.3-0.5-0.6-0.6-0.9c-0.1-0.4-0.2-0.7-0.2-1.1c0-0.8,0.3-1.5,0.9-2
		c0.6-0.6,1.2-0.8,2-0.8c0.8,0,1.5,0.3,2.1,0.8C49.1,435.5,49.4,436.2,49.4,437z M53.4,415.3c0.5,0.5,0.8,1.1,0.8,1.9v8.6
		c0,0.7-0.3,1.3-0.8,1.9c-0.5,0.5-1.2,0.8-1.9,0.8h-2.4v3.5h-5.3v-8.7h5v-3.4h-5v-5.3h7.6C52.3,414.5,52.9,414.8,53.4,415.3z"/>
</g>
<path class="st1" d="M-85.1,394.5c0,0-6.2-3.7-9.9-7.3c3.6-1.9,5.4-6.2,4.1-10.2c-1.5-4.5-6.3-6.9-10.7-5.4
	c-0.9,0.3-1.8,0.8-2.5,1.4c-2.2-2.2-5.5-3.2-8.7-2.1c-4.5,1.5-6.9,6.3-5.4,10.7c0.8,2.4,2.6,4.2,4.8,5.1c-1.2,2-1.6,4.6-0.8,7
	c1.5,4.5,6.3,6.9,10.7,5.4c3.2-1.1,5.3-3.8,5.7-6.9C-94.9,394.1-90.7,395.5-85.1,394.5z"/>
<path class="st1" d="M12,370.6c-3.2-1.1-6.5-0.1-8.7,2.1c-0.7-0.6-1.6-1.1-2.5-1.4c-4.5-1.5-9.3,0.9-10.7,5.4
	c-1.3,4,0.5,8.3,4.1,10.2c-3.7,3.6-9.9,7.3-9.9,7.3c5.6,0.9,9.7-0.5,12.7-2.3c0.4,3.1,2.5,5.9,5.7,6.9c4.5,1.5,9.3-0.9,10.7-5.4
	c0.8-2.4,0.4-4.9-0.8-7c2.2-0.9,4-2.7,4.8-5.1C18.9,376.9,16.4,372.1,12,370.6z"/>
<circle class="st1" cx="-0.4" cy="408.5" r="4"/>
<circle class="st1" cx="26" cy="408.5" r="4"/>
<path class="st0" d="M-101.9,892.2c-19.2,0-34.8,15.6-34.8,34.8v34.8h34.8c19.2,0,34.8-15.6,34.8-34.8
	C-67.1,907.7-82.7,892.2-101.9,892.2z"/>
<g>
	<path class="st1" d="M-73.1,958.6h-24.3v-42.4h8.2v35.6h16.1V958.6z"/>
	<path class="st2" d="M-69.8,943.6c0-5,1.5-8.9,4.4-11.7c2.9-2.9,6.9-4.3,11.9-4.3c4.8,0,8.6,1.4,11.4,4.2s4.2,6.6,4.2,11.3
		c0,4.9-1.4,8.9-4.3,11.8c-2.9,2.9-6.8,4.4-11.7,4.4c-4.8,0-8.7-1.4-11.5-4.3C-68.4,952.3-69.8,948.5-69.8,943.6z M-61.7,943.5
		c0,6.4,2.6,9.5,7.9,9.5c5.1,0,7.6-3.3,7.6-9.8c0-6.3-2.6-9.5-7.7-9.5c-2.5,0-4.4,0.9-5.8,2.6C-61,938.1-61.7,940.5-61.7,943.5z"/>
	<path class="st2" d="M-2.8,955.5c0,5.6-1.5,9.9-4.6,12.9c-3.1,3-7.6,4.5-13.5,4.5c-4,0-7.2-0.6-9.7-1.9v-7c3.2,1.8,6.4,2.7,9.5,2.7
		c3.3,0,5.8-0.9,7.6-2.6c1.8-1.7,2.7-4.2,2.7-7.4V954h-0.1c-2.2,3.6-5.4,5.3-9.7,5.3c-3.8,0-6.8-1.4-9.1-4.1
		c-2.3-2.7-3.5-6.4-3.5-11c0-5.1,1.3-9.2,3.8-12.2c2.5-3,5.9-4.6,10-4.6c3.7,0,6.6,1.5,8.5,4.4h0.1v-3.7h8V955.5z M-10.7,941.3
		c0-2.1-0.6-3.8-1.9-5.3c-1.3-1.5-2.9-2.2-4.9-2.2c-2.3,0-4.1,0.9-5.5,2.7c-1.4,1.8-2,4.3-2,7.5c0,2.8,0.6,5,1.9,6.6
		c1.3,1.6,3,2.5,5.1,2.5c2.2,0,3.9-0.8,5.3-2.5c1.3-1.6,2-3.7,2-6.3V941.3z"/>
	<path class="st2" d="M4.8,918.3c0-1.2,0.4-2.3,1.3-3.1c0.9-0.8,2-1.2,3.4-1.2c1.3,0,2.5,0.4,3.4,1.2c0.9,0.8,1.4,1.8,1.4,3.1
		s-0.4,2.3-1.3,3.1s-2,1.2-3.4,1.2c-1.4,0-2.5-0.4-3.4-1.3C5.3,920.6,4.8,919.6,4.8,918.3z M5.5,958.6v-30.3h8v30.3H5.5z"/>
	<path class="st2" d="M49.8,958.6h-8v-17c0-5.2-1.9-7.8-5.6-7.8c-1.9,0-3.4,0.7-4.6,2.1c-1.2,1.4-1.8,3.2-1.8,5.4v17.3h-8v-30.3h8
		v4.9h0.1c2.2-3.7,5.5-5.6,9.8-5.6c6.7,0,10.1,4.2,10.1,12.5V958.6z"/>
</g>
<rect x="197.5" y="276.4" class="st1" width="145.7" height="145.7"/>
<rect x="267.3" y="337.7" class="st4" width="6" height="23"/>
<rect x="258.8" y="346.2" class="st4" width="23" height="6"/>
<rect x="197.5" y="111.9" class="st1" width="145.7" height="145.7"/>
<rect x="267.3" y="173.2" transform="matrix(0.7071 0.7071 -0.7071 0.7071 209.7735 -137.0605)" class="st4" width="6" height="23"/>
<rect x="267.3" y="173.2" transform="matrix(-0.7071 0.7071 -0.7071 -0.7071 592.0825 124.1289)" class="st4" width="6" height="23"/>
<rect x="267.1" y="-78.3" transform="matrix(0.7071 0.7071 -0.7071 0.7071 31.8629 -210.5463)" class="st4" width="6" height="23"/>
<rect x="267.1" y="-78.3" transform="matrix(-0.7071 0.7071 -0.7071 -0.7071 413.8184 -305.0317)" class="st4" width="6" height="23"/>
<circle class="st0" cx="47.3" cy="199.9" r="12.6"/>
<rect x="38.9" y="197.7" class="st1" width="16.9" height="4.4"/>
<g>
	<path d="M74.1,200.5v3.8h-1.3v-3.8h-6.7v-1.1h14.7v1.1H74.1z M79.5,197.7c-1.3-0.2-2.5-0.6-3.6-1.3c-1.1-0.7-1.9-1.3-2.3-2
		c-0.4,0.7-1.2,1.3-2.3,2s-2.3,1.1-3.6,1.3l-0.7-1c1.7-0.2,3.1-0.7,4.3-1.5c1.2-0.9,1.7-1.7,1.7-2.4v-0.6h1.2v0.6
		c0,0.8,0.6,1.6,1.7,2.4c1.2,0.8,2.6,1.3,4.2,1.5L79.5,197.7z M68.6,206.8V202h1.2v3.7h9v1.1H68.6z"/>
	<path d="M91.9,203.3c-0.9-0.7-1.7-1.5-2.5-2.6s-1.3-1.9-1.5-2.7c-0.3,0.9-0.8,1.8-1.5,2.8s-1.6,1.9-2.5,2.6l-0.9-0.8
		c1.3-0.9,2.3-2,3.1-3.4c0.8-1.4,1.2-2.8,1.2-4.2v-2.6h1.2v2.5c0,1.4,0.4,2.7,1.1,4c0.8,1.3,1.8,2.4,3.1,3.2L91.9,203.3z M95,207.3
		v-9.6h-3.7v-1.1H95v-5.2h1.2v15.9H95z"/>
	<path d="M108.3,199.6c-0.7-0.4-1.4-0.9-2.2-1.6c-0.8-0.7-1.3-1.4-1.6-2c-0.3,0.7-0.8,1.4-1.5,2.2s-1.5,1.4-2.3,1.8l-0.9-0.8
		c1.2-0.6,2.1-1.4,2.9-2.4c0.8-1,1.2-2.1,1.2-3.2v-1.7h1.2v1.7c0,1.1,0.4,2.1,1.2,3s1.7,1.7,2.8,2.2L108.3,199.6z M111.1,207.3v-4.8
		h-9v-1.1h10.2v5.9H111.1z M112.3,196.9v3.7h-1.2v-9.1h1.2v4.4h2.4v1.1H112.3z"/>
	<path d="M123.9,203.6c-1.4-1.4-2.4-3.1-3-5c-0.2,0.8-0.6,1.7-1.2,2.7c-0.6,1-1.3,1.8-2,2.5l-1-0.8c0.9-0.7,1.8-1.7,2.5-3.1
		c0.7-1.4,1.1-2.8,1.1-4.2v-1.8h-3v-1.1h7.2v1.1h-3v1.8c0,1.3,0.3,2.6,1,4s1.4,2.3,2.3,3.1L123.9,203.6z M126.1,206.8V198h-2.8v-1.1
		h2.8v-5.1h1.2v15.1H126.1z M129,207.3v-15.9h1.2v15.9H129z"/>
</g>
<circle class="st0" cx="47.3" cy="151.5" r="12.6"/>
<rect x="45.1" y="143" class="st1" width="4.4" height="16.9"/>
<rect x="38.9" y="149.3" class="st1" width="16.9" height="4.4"/>
<g>
	<path d="M74.1,152.1v3.8h-1.3v-3.8h-6.7V151h14.7v1.1H74.1z M79.5,149.2c-1.3-0.2-2.5-0.6-3.6-1.3c-1.1-0.7-1.9-1.3-2.3-2
		c-0.4,0.7-1.2,1.3-2.3,2s-2.3,1.1-3.6,1.3l-0.7-1c1.7-0.2,3.1-0.7,4.3-1.5c1.2-0.9,1.7-1.7,1.7-2.4v-0.6h1.2v0.6
		c0,0.8,0.6,1.6,1.7,2.4c1.2,0.8,2.6,1.3,4.2,1.5L79.5,149.2z M68.6,158.3v-4.8h1.2v3.7h9v1.1H68.6z"/>
	<path d="M91.9,154.8c-0.9-0.7-1.7-1.5-2.5-2.6s-1.3-1.9-1.5-2.7c-0.3,0.9-0.8,1.8-1.5,2.8s-1.6,1.9-2.5,2.6l-0.9-0.8
		c1.3-0.9,2.3-2,3.1-3.4c0.8-1.4,1.2-2.8,1.2-4.2v-2.6h1.2v2.5c0,1.4,0.4,2.7,1.1,4c0.8,1.3,1.8,2.4,3.1,3.2L91.9,154.8z M95,158.9
		v-9.6h-3.7v-1.1H95V143h1.2v15.9H95z"/>
	<path d="M107.9,152.9v5.9h-1.2v-5.9h-6.7v-1.1h14.7v1.1H107.9z M113.2,150.2c-1.1-0.2-2.3-0.7-3.5-1.3c-1.2-0.6-2-1.3-2.4-1.8
		c-0.3,0.6-1.1,1.2-2.2,1.8s-2.3,1.1-3.6,1.4l-0.9-1.1c1.5-0.2,2.8-0.6,4-1.3c1.2-0.7,1.9-1.5,2-2.3h-5.1v-1.1h5.1v-1.6h1.3v1.6h5.1
		v1.1h-5.1c0.1,0.8,0.8,1.5,1.9,2.2s2.5,1.2,4.1,1.4L113.2,150.2z"/>
	<path d="M125.2,144.4c-0.1,4.5-2.5,8.1-7.2,10.7l-0.9-1c1.7-0.7,3.2-1.8,4.5-3.3s2.1-3.3,2.3-5.3h-6.1v-1.1H125.2z M129.1,150.6
		v8.2h-1.2V143h1.2v6.6h2.9v1.1H129.1z"/>
</g>
<circle class="st0" cx="12.6" cy="-31.6" r="12.6"/>
<rect x="10.4" y="-40" class="st1" width="4.4" height="16.9"/>
<rect x="4.1" y="-33.8" class="st1" width="16.9" height="4.4"/>
<g>
	<path d="M39.4-30.7v5.9h-1.2v-5.9h-6.7v-1.1h14.7v1.1H39.4z M44.7-33.5c-1.1-0.2-2.3-0.7-3.5-1.3c-1.2-0.6-2-1.3-2.4-1.8
		c-0.3,0.6-1.1,1.2-2.2,1.8s-2.3,1.1-3.6,1.4l-0.9-1.1c1.5-0.2,2.8-0.6,4-1.3c1.2-0.7,1.9-1.5,2-2.3H33v-1.1h5.1v-1.6h1.3v1.6h5.1
		v1.1h-5.1c0.1,0.8,0.8,1.5,1.9,2.2s2.5,1.2,4.1,1.4L44.7-33.5z"/>
	<path d="M56.7-39.3c-0.1,4.5-2.5,8.1-7.2,10.7l-0.9-1c1.7-0.7,3.2-1.8,4.5-3.3s2.1-3.3,2.3-5.3h-6.1v-1.1H56.7z M60.6-33v8.2h-1.2
		v-15.9h1.2v6.6h2.9v1.1H60.6z"/>
</g>
<circle class="st0" cx="12.6" cy="12.6" r="12.6"/>
<rect x="4.1" y="10.4" class="st1" width="16.9" height="4.4"/>
<g>
	<path d="M39.8,11.7c-0.7-0.4-1.4-0.9-2.2-1.6c-0.8-0.7-1.3-1.4-1.6-2c-0.3,0.7-0.8,1.4-1.5,2.2s-1.5,1.4-2.3,1.8l-0.9-0.8
		c1.2-0.6,2.1-1.4,2.9-2.4c0.8-1,1.2-2.1,1.2-3.2V3.9h1.2v1.7c0,1.1,0.4,2.1,1.2,3s1.7,1.7,2.8,2.2L39.8,11.7z M42.6,19.4v-4.8h-9
		v-1.1h10.2v5.9H42.6z M43.8,8.9v3.7h-1.2V3.5h1.2v4.4h2.4v1.1H43.8z"/>
	<path d="M55.4,15.6c-1.4-1.4-2.4-3.1-3-5c-0.2,0.8-0.6,1.7-1.2,2.7c-0.6,1-1.3,1.8-2,2.5l-1-0.8c0.9-0.7,1.8-1.7,2.5-3.1
		c0.7-1.4,1.1-2.8,1.1-4.2V5.9h-3V4.9h7.2v1.1h-3v1.8c0,1.3,0.3,2.6,1,4s1.4,2.3,2.3,3.1L55.4,15.6z M57.6,18.9V10h-2.8V8.9h2.8V3.8
		h1.2v15.1H57.6z M60.5,19.4V3.5h1.2v15.9H60.5z"/>
</g>
<g>
</g>
<g>
</g>
<g>
</g>
<g>
</g>
<g>
</g>
<g>
</g>
</svg>
