<?xml version="1.0" encoding="utf-8"?>
<!-- Generator: Adobe Illustrator 19.1.0, SVG Export Plug-In . SVG Version: 6.00 Build 0)  -->
<svg version="1.1" id="레이어_1" xmlns="http://www.w3.org/2000/svg" xmlns:xlink="http://www.w3.org/1999/xlink" x="0px"
	 y="0px" viewBox="0 0 99.7 29" style="enable-background:new 0 0 99.7 29;" xml:space="preserve">
<style type="text/css">
	.st0{fill:#116729;}
	.st1{fill:#FFFFFF;}
	.st2{fill:#040404;}
	.st3{fill:#090705;}
	.st4{fill:#808080;}
</style>
<rect x="-223.7" y="153.7" class="st0" width="316.7" height="141.3"/>
<path class="st0" d="M-142.6,445.3c-16.2,0-29.4,13.2-29.4,29.4v29.4h29.4c16.2,0,29.4-13.2,29.4-29.4S-126.3,445.3-142.6,445.3z"/>
<g>
	<path class="st1" d="M-123.6,505.5v-22.2c0-1.6,0.1-4.1,0.3-7.5h-0.1c-0.4,2-0.8,3.5-1.1,4.4l-9.5,25.3h-5.3l-9.6-25.1
		c-0.2-0.6-0.6-2.2-1.1-4.6h-0.2c0.2,2.6,0.3,5.5,0.3,8.6v21h-6.3v-35.9h10l8.4,22.3c0.7,1.9,1.2,3.5,1.4,4.9h0.2
		c0.4-1.4,0.9-3.1,1.5-5l8.5-22.3h9.7v35.9H-123.6z"/>
	<path d="M-85.7,479.9l-10.8,28.3c-2.4,6.3-5.9,9.4-10.6,9.4c-1.6,0-3-0.2-4.1-0.6v-5.5c1,0.5,2,0.8,3.2,0.8c2,0,3.5-1,4.4-3.1
		l1.6-3.7l-10.3-25.6h7.5l5.4,16.8c0.2,0.5,0.4,1.5,0.7,3h0.1c0.1-0.8,0.4-1.8,0.7-2.9l5.6-16.8H-85.7z"/>
	<path d="M-74.5,492.8v12.7h-6.9v-35.9h11.8c8.7,0,13.1,3.7,13.1,11.2c0,3.6-1.3,6.5-4,8.7c-2.6,2.2-6,3.3-10,3.2H-74.5z
		 M-74.5,475.2v12.2h3.5c4.8,0,7.2-2.1,7.2-6.2c0-4-2.3-6-7-6H-74.5z"/>
	<path d="M-52.3,481.5c1.2-0.7,2.6-1.2,4.5-1.6s3.5-0.6,4.9-0.6c6.9,0,10.4,3.5,10.4,10.5v15.7h-6.5v-3.8h-0.1
		c-1.7,2.9-4.3,4.4-7.7,4.4c-2.5,0-4.4-0.7-5.9-2.1s-2.2-3.3-2.2-5.6c0-4.9,2.9-7.7,8.7-8.5l7.1-1c0-3.3-1.6-4.9-4.8-4.9
		c-3,0-5.9,1-8.6,2.8V481.5z M-44,493.8c-2.9,0.4-4.4,1.7-4.4,3.9c0,1,0.3,1.8,1,2.5c0.7,0.6,1.6,1,2.8,1c1.6,0,3-0.6,4-1.7
		c1.1-1.1,1.6-2.6,1.6-4.3v-1.9L-44,493.8z"/>
	<path d="M-1.6,502.8c0,4.7-1.3,8.4-3.9,10.9c-2.6,2.5-6.4,3.8-11.4,3.8c-3.4,0-6.1-0.5-8.2-1.6V510c2.7,1.5,5.4,2.3,8.1,2.3
		c2.8,0,4.9-0.7,6.4-2.2s2.3-3.6,2.3-6.3v-2.3h-0.1c-1.9,3-4.6,4.5-8.2,4.5c-3.2,0-5.7-1.1-7.7-3.4c-1.9-2.3-2.9-5.4-2.9-9.3
		c0-4.3,1.1-7.7,3.2-10.3c2.1-2.6,4.9-3.8,8.4-3.8c3.2,0,5.6,1.3,7.2,3.8h0.1v-3.1h6.8V502.8z M-8.3,490.9c0-1.7-0.5-3.2-1.6-4.5
		c-1.1-1.2-2.5-1.9-4.1-1.9c-1.9,0-3.5,0.8-4.6,2.3c-1.1,1.5-1.7,3.6-1.7,6.3c0,2.3,0.5,4.2,1.6,5.6c1.1,1.4,2.5,2.1,4.3,2.1
		c1.8,0,3.3-0.7,4.5-2.1c1.1-1.4,1.7-3.2,1.7-5.3V490.9z"/>
	<path d="M27.7,494.6H10.6c0.3,4.4,2.7,6.5,7.4,6.5c2.8,0,5.4-0.7,7.6-2.2v5.2c-2.4,1.4-5.4,2.1-9.1,2.1c-4,0-7.1-1.2-9.3-3.5
		c-2.2-2.3-3.3-5.5-3.3-9.7c0-4.1,1.2-7.4,3.6-9.9c2.4-2.5,5.4-3.8,8.9-3.8c3.6,0,6.4,1.1,8.4,3.3s3,5.2,3,9V494.6z M21.3,490.1
		c0-4.1-1.7-6.1-5-6.1c-1.4,0-2.6,0.6-3.7,1.7s-1.7,2.6-2,4.4H21.3z"/>
</g>
<path class="st0" d="M370.2,581.8c-18.8,0-34,15.2-34,34v34h34c18.8,0,34-15.2,34-34S389,581.8,370.2,581.8z"/>
<g>
	<path class="st1" d="M394,633.1c0,5.4-1.2,9.6-3.7,12.4c-2.5,2.9-5.9,4.3-10.3,4.3c-1.9,0-3.7-0.3-5.4-1v-7.6
		c1.4,1.1,3.1,1.6,5,1.6c4.3,0,6.4-3.3,6.4-10v-25.2h8V633.1z"/>
	<path d="M400.9,634.5c0-4.8,1.4-8.7,4.3-11.5c2.9-2.8,6.7-4.2,11.6-4.2c4.7,0,8.4,1.4,11.2,4.1c2.7,2.8,4.1,6.4,4.1,11.1
		c0,4.8-1.4,8.7-4.2,11.5c-2.8,2.9-6.7,4.3-11.5,4.3c-4.7,0-8.5-1.4-11.3-4.2C402.3,642.9,400.9,639.2,400.9,634.5z M408.8,634.3
		c0,6.2,2.6,9.3,7.8,9.3c5,0,7.5-3.2,7.5-9.6c0-6.2-2.5-9.2-7.5-9.2c-2.4,0-4.3,0.8-5.7,2.5C409.5,629.1,408.8,631.4,408.8,634.3z"
		/>
	<path d="M437.7,609.7c0-1.2,0.4-2.2,1.3-3c0.9-0.8,2-1.2,3.3-1.2c1.3,0,2.4,0.4,3.3,1.2c0.9,0.8,1.3,1.8,1.3,3c0,1.2-0.4,2.2-1.3,3
		c-0.9,0.8-2,1.2-3.3,1.2s-2.4-0.4-3.3-1.2C438.2,611.9,437.7,610.9,437.7,609.7z M438.3,649.1v-29.6h7.8v29.6H438.3z"/>
	<path d="M481.7,649.1h-7.8v-16.6c0-5.1-1.8-7.6-5.5-7.6c-1.8,0-3.3,0.7-4.5,2.1c-1.2,1.4-1.7,3.1-1.7,5.3v16.9h-7.9v-29.6h7.9v4.8
		h0.1c2.2-3.6,5.4-5.5,9.6-5.5c6.6,0,9.9,4.1,9.9,12.2V649.1z"/>
</g>
<path class="st0" d="M365.6,714.8c-16.2,0-29.4,13.2-29.4,29.4v29.4h29.4c16.2,0,29.4-13.2,29.4-29.4S381.8,714.8,365.6,714.8z"/>
<g>
	<path class="st1" d="M391.3,756.7c0,10.6-4.9,15.9-14.7,15.9c-9.4,0-14.1-5.1-14.1-15.4v-21.1h7v21.1c0,6.3,2.5,9.4,7.5,9.4
		c4.9,0,7.4-3,7.4-9.1v-21.4h6.9V756.7z"/>
	<path class="st2" d="M405.4,768.8v15h-6.8v-37.4h6.8v4h0.1c2-3.1,4.8-4.7,8.4-4.7c3.2,0,5.8,1.1,7.6,3.4c1.9,2.3,2.8,5.4,2.8,9.3
		c0,4.3-1.1,7.7-3.2,10.3c-2.1,2.6-4.9,3.9-8.4,3.9C409.6,772.6,407.2,771.3,405.4,768.8L405.4,768.8z M405.3,760.8
		c0,1.9,0.5,3.4,1.6,4.6c1.1,1.2,2.4,1.8,4.1,1.8c2,0,3.5-0.8,4.7-2.3s1.7-3.7,1.7-6.5c0-5-2-7.4-5.9-7.4c-1.9,0-3.3,0.7-4.5,2.1
		c-1.1,1.4-1.7,3.1-1.7,5.2V760.8z"/>
	<path class="st2" d="M429.8,772v-37.9h6.8V772H429.8z"/>
	<path class="st2" d="M442,759.3c0-4.2,1.2-7.5,3.7-9.9s5.8-3.6,10-3.6c4.1,0,7.3,1.2,9.7,3.6c2.4,2.4,3.5,5.6,3.5,9.6
		c0,4.2-1.2,7.5-3.7,10c-2.4,2.5-5.8,3.7-9.9,3.7c-4.1,0-7.3-1.2-9.7-3.6S442,763.4,442,759.3z M448.9,759.2c0,5.4,2.2,8.1,6.7,8.1
		c4.3,0,6.5-2.8,6.5-8.3c0-5.3-2.2-8-6.5-8c-2.1,0-3.8,0.7-4.9,2.2C449.5,754.7,448.9,756.7,448.9,759.2z"/>
	<path class="st2" d="M474.5,748c1.2-0.7,2.6-1.2,4.5-1.6s3.5-0.6,4.9-0.6c6.9,0,10.4,3.5,10.4,10.5V772h-6.5v-3.8h-0.1
		c-1.7,2.9-4.3,4.4-7.7,4.4c-2.5,0-4.4-0.7-5.9-2.1s-2.2-3.3-2.2-5.6c0-4.9,2.9-7.7,8.7-8.5l7.1-1c0-3.3-1.6-4.9-4.8-4.9
		c-3,0-5.9,1-8.6,2.8V748z M482.8,760.3c-2.9,0.4-4.4,1.7-4.4,3.9c0,1,0.3,1.8,1,2.5c0.7,0.6,1.6,1,2.8,1c1.6,0,3-0.6,4-1.7
		c1.1-1.1,1.6-2.6,1.6-4.3v-1.9L482.8,760.3z"/>
	<path class="st2" d="M525.1,772h-6.8v-3.8h-0.1c-1.8,2.9-4.5,4.4-8.2,4.4c-3.2,0-5.8-1.2-7.7-3.5c-1.9-2.3-2.9-5.4-2.9-9.4
		c0-4.2,1.1-7.6,3.2-10.1c2.2-2.6,5-3.8,8.4-3.8c3.4,0,5.7,1.2,7.1,3.7h0.1v-15.4h6.8V772z M518.4,757.3c0-1.8-0.6-3.3-1.7-4.5
		s-2.5-1.8-4.2-1.8c-1.9,0-3.5,0.8-4.6,2.3c-1.1,1.5-1.7,3.6-1.7,6.2c0,2.5,0.5,4.4,1.6,5.7c1.1,1.4,2.6,2,4.4,2
		c1.8,0,3.2-0.7,4.4-2.1c1.1-1.4,1.7-3.2,1.7-5.4V757.3z"/>
	<path class="st2" d="M579.3,772h-8l-5.7-9.5c-1.2-1.9-2.1-3.2-2.9-3.8c-0.8-0.6-1.7-0.9-2.6-0.9h-2.5V772h-6.9v-35.9h12.2
		c8.3,0,12.4,3.2,12.4,9.7c0,2.4-0.7,4.4-2.1,6.2c-1.4,1.7-3.4,3-5.9,3.7v0.1c1.6,0.6,3.5,2.4,5.4,5.5L579.3,772z M557.4,741.5v10.9
		h4.1c1.9,0,3.4-0.5,4.5-1.6c1.1-1.1,1.7-2.5,1.7-4.1c0-3.4-2-5.1-6.1-5.1H557.4z"/>
	<path class="st2" d="M603.3,761.1h-17.1c0.3,4.4,2.7,6.5,7.4,6.5c2.8,0,5.4-0.7,7.6-2.2v5.2c-2.4,1.4-5.4,2.1-9.1,2.1
		c-4,0-7.1-1.2-9.3-3.5c-2.2-2.3-3.3-5.5-3.3-9.7c0-4.1,1.2-7.4,3.6-9.9c2.4-2.5,5.4-3.8,8.9-3.8c3.6,0,6.4,1.1,8.4,3.3s3,5.2,3,9
		V761.1z M596.9,756.6c0-4.1-1.7-6.1-5-6.1c-1.4,0-2.6,0.6-3.7,1.7s-1.7,2.6-2,4.4H596.9z"/>
	<path class="st2" d="M627.3,771c-1.8,1.1-4.3,1.6-7.5,1.6c-3.8,0-6.9-1.2-9.3-3.5c-2.4-2.4-3.6-5.5-3.6-9.3c0-4.4,1.3-7.8,3.8-10.3
		c2.5-2.5,6-3.8,10.2-3.8c2.8,0,4.9,0.4,6.4,1.2v6c-1.7-1.3-3.6-1.9-5.7-1.9c-2.4,0-4.3,0.7-5.7,2.2c-1.4,1.5-2.1,3.5-2.1,6
		c0,2.5,0.7,4.5,2,5.9c1.3,1.4,3.2,2.1,5.6,2.1c2.1,0,4.1-0.6,6-1.9V771z"/>
	<path class="st2" d="M632.1,737.9c0-1,0.4-1.9,1.1-2.6c0.7-0.7,1.7-1,2.9-1c1.1,0,2.1,0.3,2.9,1c0.8,0.7,1.1,1.6,1.1,2.6
		c0,1.1-0.4,1.9-1.1,2.6c-0.8,0.7-1.7,1-2.9,1s-2.1-0.4-2.8-1.1C632.5,739.8,632.1,739,632.1,737.9z M632.7,772v-25.6h6.8V772H632.7
		z"/>
	<path class="st2" d="M653.3,768.8v15h-6.8v-37.4h6.8v4h0.1c2-3.1,4.8-4.7,8.4-4.7c3.2,0,5.8,1.1,7.6,3.4c1.9,2.3,2.8,5.4,2.8,9.3
		c0,4.3-1.1,7.7-3.2,10.3c-2.1,2.6-4.9,3.9-8.4,3.9C657.4,772.6,655,771.3,653.3,768.8L653.3,768.8z M653.2,760.8
		c0,1.9,0.5,3.4,1.6,4.6c1.1,1.2,2.4,1.8,4.1,1.8c2,0,3.5-0.8,4.7-2.3s1.7-3.7,1.7-6.5c0-5-2-7.4-5.9-7.4c-1.9,0-3.3,0.7-4.5,2.1
		c-1.1,1.4-1.7,3.1-1.7,5.2V760.8z"/>
	<path class="st2" d="M700,761.1h-17.1c0.3,4.4,2.7,6.5,7.4,6.5c2.8,0,5.4-0.7,7.6-2.2v5.2c-2.4,1.4-5.4,2.1-9.1,2.1
		c-4,0-7.1-1.2-9.3-3.5c-2.2-2.3-3.3-5.5-3.3-9.7c0-4.1,1.2-7.4,3.6-9.9c2.4-2.5,5.4-3.8,8.9-3.8c3.6,0,6.4,1.1,8.4,3.3s3,5.2,3,9
		V761.1z M693.6,756.6c0-4.1-1.7-6.1-5-6.1c-1.4,0-2.6,0.6-3.7,1.7s-1.7,2.6-2,4.4H693.6z"/>
</g>
<path class="st0" d="M116.8,316.3c-20,0-36.2,16.2-36.2,36.2v36.2h36.2c20,0,36.2-16.2,36.2-36.2S136.8,316.3,116.8,316.3z"/>
<g>
	<path class="st1" d="M150.4,348.4h-12.6v37.1h-8.6v-37.1h-12.6v-7.1h33.8V348.4z"/>
	<path class="st2" d="M155,343.6c0-1.3,0.5-2.4,1.4-3.2s2.1-1.3,3.5-1.3c1.4,0,2.6,0.4,3.5,1.3c0.9,0.9,1.4,1.9,1.4,3.2
		c0,1.3-0.5,2.4-1.4,3.2c-0.9,0.9-2.1,1.3-3.5,1.3s-2.6-0.4-3.5-1.3C155.5,345.9,155,344.8,155,343.6z M155.7,385.5V354h8.3v31.5
		H155.7z"/>
	<path class="st2" d="M181,381.6V400h-8.4V354h8.4v5h0.1c2.4-3.8,5.9-5.7,10.4-5.7c4,0,7.1,1.4,9.4,4.2c2.3,2.8,3.4,6.6,3.4,11.5
		c0,5.2-1.3,9.5-3.9,12.6c-2.6,3.2-6.1,4.8-10.4,4.8C186.2,386.3,183.2,384.7,181,381.6L181,381.6z M180.9,371.8
		c0,2.3,0.7,4.2,2,5.7c1.3,1.5,3,2.3,5.1,2.3c2.4,0,4.3-0.9,5.7-2.9c1.4-1.9,2.1-4.6,2.1-8c0-6.1-2.4-9.2-7.2-9.2
		c-2.3,0-4.1,0.9-5.5,2.6c-1.4,1.7-2.1,3.8-2.1,6.4V371.8z"/>
	<path class="st2" d="M252.7,340.6v44.9h-8.4v-34.7c-0.9,0.9-2.3,1.7-4,2.4c-1.7,0.7-3.5,1.2-5.4,1.4v-7.4c4.4-1.3,8.6-3.5,12.5-6.6
		H252.7z"/>
</g>
<path class="st0" d="M116.8,445.3c-20,0-36.2,16.2-36.2,36.2v36.2h36.2c20,0,36.2-16.2,36.2-36.2C153,461.5,136.8,445.3,116.8,445.3
	z"/>
<g>
	<path class="st1" d="M150.4,477.4h-12.6v37.1h-8.6v-37.1h-12.6v-7.1h33.8V477.4z"/>
	<path class="st2" d="M155,472.6c0-1.3,0.5-2.4,1.4-3.2s2.1-1.3,3.5-1.3c1.4,0,2.6,0.4,3.5,1.3c0.9,0.9,1.4,1.9,1.4,3.2
		c0,1.3-0.5,2.4-1.4,3.2c-0.9,0.9-2.1,1.3-3.5,1.3s-2.6-0.4-3.5-1.3C155.5,474.9,155,473.8,155,472.6z M155.7,514.5V483h8.3v31.5
		H155.7z"/>
	<path class="st2" d="M181,510.6V529h-8.4V483h8.4v5h0.1c2.4-3.8,5.9-5.7,10.4-5.7c4,0,7.1,1.4,9.4,4.2c2.3,2.8,3.4,6.6,3.4,11.5
		c0,5.2-1.3,9.5-3.9,12.6c-2.6,3.2-6.1,4.8-10.4,4.8C186.2,515.3,183.2,513.7,181,510.6L181,510.6z M180.9,500.8
		c0,2.3,0.7,4.2,2,5.7c1.3,1.5,3,2.3,5.1,2.3c2.4,0,4.3-0.9,5.7-2.9c1.4-1.9,2.1-4.6,2.1-8c0-6.1-2.4-9.2-7.2-9.2
		c-2.3,0-4.1,0.9-5.5,2.6c-1.4,1.7-2.1,3.8-2.1,6.4V500.8z"/>
	<path class="st2" d="M241,507.4h18.7v7.1h-27.6v-3.3c0-2.4,0.4-4.6,1.2-6.6c0.8-2,2-3.9,3.5-5.6c1.5-1.7,4.7-4.4,9.5-8.1
		c1.9-1.4,3.2-2.7,4-4c0.8-1.3,1.2-2.7,1.2-4.3c0-2-0.6-3.5-1.7-4.6c-1.2-1.1-2.9-1.6-5.4-1.6c-3.8,0-7.4,1.5-10.9,4.5v-7.5
		c3.6-2.5,7.6-3.7,12.1-3.7c4.6,0,8.1,1.1,10.6,3.3c2.5,2.2,3.7,5.3,3.7,9.2c0,2-0.3,3.8-1,5.4c-0.7,1.6-1.5,3-2.6,4.2
		c-1.1,1.3-2.3,2.5-3.7,3.5c-1.4,1.1-2.8,2.2-4.3,3.3c-2.7,2-4.6,3.7-5.8,5.1C241.6,505.1,241,506.4,241,507.4z"/>
</g>
<path class="st0" d="M116.8,705.8c-20.3,0-36.7,16.4-36.7,36.7v36.7h36.7c20.3,0,36.7-16.4,36.7-36.7S137,705.8,116.8,705.8z"/>
<g>
	<path class="st1" d="M149.6,740.8h-16.3v12.3h15v7.1h-15v18.1h-8.7v-44.7h24.9V740.8z"/>
	<path class="st2" d="M155.6,735.9c0-1.3,0.5-2.4,1.4-3.3c0.9-0.9,2.1-1.3,3.6-1.3c1.4,0,2.6,0.4,3.6,1.3c1,0.9,1.4,2,1.4,3.3
		s-0.5,2.4-1.4,3.3s-2.1,1.3-3.6,1.3c-1.4,0-2.6-0.4-3.6-1.3C156.1,738.3,155.6,737.2,155.6,735.9z M156.3,778.4v-32h8.5v32H156.3z"
		/>
	<path class="st2" d="M173.4,778.4v-47.3h8.5v47.3H173.4z"/>
	<path class="st2" d="M208.6,778c-1.4,0.7-3.4,1.1-6,1.1c-6.5,0-9.8-3.5-9.8-10.4v-15.9h-5.3v-6.4h5.3v-7.1l8.5-2.5v9.6h7.4v6.4
		h-7.4v14.4c0,3.5,1.4,5.3,4.2,5.3c1.2,0,2.2-0.3,3.2-1V778z"/>
	<path class="st2" d="M242.1,764.8h-21.3c0.3,5.4,3.4,8.1,9.2,8.1c3.5,0,6.7-0.9,9.5-2.8v6.4c-3,1.7-6.8,2.6-11.4,2.6
		c-5,0-8.8-1.4-11.6-4.3s-4.1-6.9-4.1-12.1c0-5.1,1.5-9.2,4.5-12.4s6.7-4.8,11.1-4.8s7.9,1.4,10.4,4.1c2.5,2.7,3.7,6.5,3.7,11.3
		V764.8z M234.1,759.2c0-5.1-2.1-7.6-6.3-7.6c-1.7,0-3.3,0.7-4.6,2.1c-1.3,1.4-2.2,3.2-2.5,5.5H234.1z"/>
	<path class="st2" d="M268.1,754.2c-1.1-0.7-2.5-1-4.1-1c-2.1,0-3.8,0.9-5.1,2.6c-1.3,1.7-1.9,4.1-1.9,7v15.6h-8.5v-32h8.5v6.1h0.1
		c1.6-4.5,4.4-6.7,8.4-6.7c1.2,0,2,0.1,2.6,0.4V754.2z"/>
</g>
<path class="st0" d="M370.2,445.3c-17.9,0-32.4,14.5-32.4,32.4v32.4h32.4c17.9,0,32.4-14.5,32.4-32.4
	C402.5,459.8,388.1,445.3,370.2,445.3z"/>
<g>
	<path class="st1" d="M400,509.3h-8.8l-6.3-10.4c-1.3-2.1-2.4-3.5-3.2-4.2c-0.9-0.7-1.9-1-2.9-1H376v15.6h-7.6v-39.5h13.4
		c9.1,0,13.7,3.6,13.7,10.7c0,2.6-0.8,4.9-2.3,6.8s-3.7,3.3-6.5,4.1v0.1c1.8,0.6,3.8,2.6,6,6.1L400,509.3z M376,475.8v12h4.6
		c2.1,0,3.7-0.6,5-1.8c1.2-1.2,1.9-2.7,1.9-4.5c0-3.8-2.2-5.6-6.7-5.6H376z"/>
	<path class="st2" d="M426.5,497.4h-18.8c0.3,4.8,3,7.2,8.2,7.2c3.1,0,5.9-0.8,8.4-2.5v5.7c-2.6,1.5-6,2.3-10.1,2.3
		c-4.4,0-7.8-1.3-10.2-3.8c-2.4-2.5-3.7-6.1-3.7-10.6c0-4.5,1.3-8.1,3.9-10.9c2.6-2.8,5.9-4.2,9.8-4.2c3.9,0,7,1.2,9.2,3.6
		s3.3,5.7,3.3,9.9V497.4z M419.4,492.4c0-4.5-1.8-6.7-5.5-6.7c-1.5,0-2.9,0.6-4.1,1.8s-1.9,2.8-2.2,4.9H419.4z"/>
	<path class="st2" d="M452.9,508.2c-2,1.2-4.8,1.8-8.3,1.8c-4.2,0-7.6-1.3-10.3-3.9c-2.6-2.6-3.9-6-3.9-10.2c0-4.8,1.4-8.6,4.2-11.3
		c2.8-2.8,6.6-4.1,11.2-4.1c3.1,0,5.4,0.4,7,1.3v6.6c-1.9-1.4-4-2.1-6.3-2.1c-2.6,0-4.7,0.8-6.3,2.5c-1.6,1.6-2.4,3.8-2.4,6.6
		c0,2.8,0.7,4.9,2.2,6.5c1.5,1.6,3.5,2.3,6.1,2.3c2.3,0,4.5-0.7,6.6-2.1V508.2z"/>
	<path class="st2" d="M458.2,471.9c0-1.1,0.4-2.1,1.2-2.9s1.9-1.2,3.2-1.2c1.3,0,2.3,0.4,3.1,1.1c0.8,0.8,1.3,1.7,1.3,2.9
		c0,1.2-0.4,2.1-1.2,2.9c-0.8,0.8-1.9,1.2-3.2,1.2c-1.3,0-2.3-0.4-3.1-1.2C458.6,474,458.2,473,458.2,471.9z M458.8,509.3v-28.2h7.5
		v28.2H458.8z"/>
	<path class="st2" d="M481.5,505.8v16.5H474v-41.2h7.5v4.5h0.1c2.2-3.4,5.3-5.1,9.3-5.1c3.6,0,6.4,1.2,8.4,3.7
		c2,2.5,3.1,5.9,3.1,10.2c0,4.7-1.2,8.5-3.5,11.3c-2.3,2.9-5.4,4.3-9.3,4.3C486.1,510,483.4,508.6,481.5,505.8L481.5,505.8z
		 M481.3,497.1c0,2,0.6,3.7,1.8,5.1c1.2,1.4,2.7,2,4.5,2c2.2,0,3.9-0.8,5.1-2.5s1.8-4.1,1.8-7.2c0-5.5-2.2-8.2-6.5-8.2
		c-2,0-3.7,0.8-4.9,2.3c-1.3,1.5-1.9,3.4-1.9,5.7V497.1z"/>
	<path class="st2" d="M532.9,497.4h-18.8c0.3,4.8,3,7.2,8.2,7.2c3.1,0,5.9-0.8,8.4-2.5v5.7c-2.6,1.5-6,2.3-10.1,2.3
		c-4.4,0-7.8-1.3-10.2-3.8c-2.4-2.5-3.7-6.1-3.7-10.6c0-4.5,1.3-8.1,3.9-10.9c2.6-2.8,5.9-4.2,9.8-4.2c3.9,0,7,1.2,9.2,3.6
		s3.3,5.7,3.3,9.9V497.4z M525.9,492.4c0-4.5-1.8-6.7-5.5-6.7c-1.5,0-2.9,0.6-4.1,1.8s-1.9,2.8-2.2,4.9H525.9z"/>
</g>
<path class="st0" d="M-137.1,582.8c-19.3,0-34.9,15.6-34.9,34.9v34.9h34.9c19.3,0,34.9-15.6,34.9-34.9
	C-102.3,598.4-117.9,582.8-137.1,582.8z"/>
<g>
	<path class="st1" d="M-106,652.5h-9.5l-6.8-11.2c-1.4-2.3-2.5-3.8-3.5-4.5c-1-0.7-2-1.1-3.1-1.1h-3v16.8h-8.2v-42.5h14.4
		c9.8,0,14.7,3.8,14.7,11.5c0,2.8-0.8,5.3-2.5,7.3c-1.6,2.1-4,3.5-7,4.4v0.1c1.9,0.7,4.1,2.8,6.4,6.6L-106,652.5z M-132,616.4v12.9
		h4.9c2.2,0,4-0.6,5.4-1.9s2-2.9,2-4.9c0-4-2.4-6.1-7.2-6.1H-132z"/>
	<path class="st2" d="M-77.5,639.6h-20.3c0.3,5.2,3.3,7.7,8.8,7.7c3.4,0,6.4-0.9,9-2.7v6.1c-2.8,1.6-6.4,2.5-10.8,2.5
		c-4.7,0-8.4-1.4-11-4.1s-3.9-6.6-3.9-11.5c0-4.8,1.4-8.7,4.2-11.7c2.8-3,6.3-4.5,10.6-4.5c4.2,0,7.5,1.3,9.9,3.9
		c2.4,2.6,3.6,6.2,3.6,10.7V639.6z M-85.1,634.3c0-4.8-2-7.2-6-7.2c-1.7,0-3.1,0.7-4.4,2s-2,3.1-2.4,5.3H-85.1z"/>
	<path class="st2" d="M-70.7,624c1.4-0.8,3.1-1.4,5.3-1.9c2.2-0.5,4.1-0.7,5.9-0.7c8.2,0,12.3,4.2,12.3,12.5v18.6h-7.7V648h-0.1
		c-2,3.5-5.1,5.2-9.1,5.2c-2.9,0-5.2-0.8-7-2.5c-1.7-1.6-2.6-3.9-2.6-6.6c0-5.8,3.4-9.2,10.3-10.1l8.5-1.2c0-3.9-1.9-5.8-5.7-5.8
		c-3.6,0-7,1.1-10.2,3.4V624z M-60.9,638.6c-3.5,0.4-5.2,2-5.2,4.7c0,1.2,0.4,2.2,1.2,2.9c0.8,0.8,1.9,1.1,3.4,1.1
		c1.9,0,3.5-0.7,4.8-2c1.3-1.4,1.9-3.1,1.9-5.1v-2.3L-60.9,638.6z"/>
	<path class="st2" d="M-10.7,652.5h-8V648h-0.1c-2.2,3.5-5.4,5.2-9.7,5.2c-3.8,0-6.9-1.4-9.2-4.1c-2.3-2.7-3.4-6.5-3.4-11.1
		c0-5,1.3-9,3.8-12c2.6-3,5.9-4.5,10-4.5c4,0,6.8,1.5,8.4,4.4h0.1v-18.3h8V652.5z M-18.6,635.1c0-2.1-0.7-3.9-2-5.3
		c-1.3-1.4-3-2.1-4.9-2.1c-2.3,0-4.1,0.9-5.5,2.7c-1.3,1.8-2,4.3-2,7.4c0,2.9,0.6,5.2,1.9,6.8c1.3,1.6,3,2.4,5.2,2.4
		c2.1,0,3.9-0.8,5.2-2.5c1.3-1.7,2-3.8,2-6.4V635.1z"/>
	<path class="st2" d="M25.2,622.1l-12.8,33.5c-2.8,7.4-7,11.1-12.6,11.1c-1.9,0-3.6-0.2-4.9-0.7v-6.6c1.2,0.6,2.4,0.9,3.8,0.9
		c2.4,0,4.1-1.2,5.2-3.7l1.8-4.3l-12.2-30.3h8.9L8.9,642c0.2,0.6,0.5,1.8,0.8,3.6h0.1c0.2-1,0.4-2.2,0.9-3.5l6.6-20H25.2z"/>
</g>
<path class="st0" d="M377,316.3c-22.5,0-40.8,18.3-40.8,40.8v40.8H377c22.5,0,40.8-18.3,40.8-40.8
	C417.8,334.6,399.5,316.3,377,316.3z"/>
<g>
	<path class="st1" d="M378.7,384.1c3.9,3.3,8.5,4.9,13.6,4.9c3.1,0,5.4-0.5,6.9-1.6c1.5-1.1,2.3-2.5,2.3-4.2c0-1.5-0.6-2.9-1.9-4.2
		c-1.3-1.3-4.3-2.9-9.2-5c-4.1-1.8-7.1-3.9-9-6.2c-1.9-2.3-2.8-5-2.8-8.1c0-4.5,1.7-8,5.2-10.5c3.5-2.5,8-3.8,13.7-3.8
		c5,0,9,0.6,11.9,1.9v9.2c-3.2-2.2-7.1-3.3-11.7-3.3c-2.7,0-4.9,0.5-6.5,1.5c-1.7,1-2.5,2.4-2.5,4.2c0,1.4,0.6,2.7,1.7,3.9
		c1.1,1.2,3.8,2.7,8.1,4.6c4.9,2.1,8.2,4.3,10.1,6.7c1.9,2.3,2.8,5.1,2.8,8.4c0,4.7-1.7,8.3-5,10.7c-3.3,2.5-8,3.7-14.1,3.7
		c-5.6,0-10.2-0.9-13.7-2.8V384.1z"/>
	<path class="st2" d="M437.3,395.6c-1.6,0.8-3.8,1.2-6.7,1.2c-7.3,0-10.9-3.9-10.9-11.6v-17.6h-5.9v-7.2h5.9v-7.9l9.4-2.7v10.7h8.2
		v7.2h-8.2v16c0,3.9,1.5,5.9,4.6,5.9c1.3,0,2.5-0.4,3.6-1.1V395.6z"/>
	<path class="st2" d="M474.5,380.8h-23.7c0.4,6,3.8,9.1,10.3,9.1c3.9,0,7.5-1,10.5-3.1v7.2c-3.3,1.9-7.5,2.9-12.7,2.9
		c-5.5,0-9.8-1.6-12.9-4.8c-3.1-3.2-4.6-7.7-4.6-13.4c0-5.6,1.7-10.2,5-13.7c3.3-3.5,7.4-5.3,12.4-5.3c5,0,8.8,1.5,11.6,4.6
		c2.8,3,4.2,7.2,4.2,12.5V380.8z M465.6,374.6c0-5.6-2.3-8.5-7-8.5c-1.9,0-3.6,0.8-5.1,2.3c-1.5,1.5-2.4,3.6-2.8,6.2H465.6z"/>
	<path class="st2" d="M491.1,391.5v20.8h-9.4v-51.9h9.4v5.6h0.1c2.7-4.3,6.6-6.5,11.7-6.5c4.5,0,8,1.6,10.6,4.7
		c2.6,3.1,3.9,7.4,3.9,12.9c0,5.9-1.5,10.7-4.4,14.2c-2.9,3.6-6.8,5.4-11.7,5.4c-4.4,0-7.7-1.8-10.1-5.3H491.1z M491,380.5
		c0,2.6,0.7,4.7,2.2,6.4c1.5,1.7,3.4,2.6,5.7,2.6c2.7,0,4.9-1.1,6.5-3.2c1.6-2.1,2.3-5.1,2.3-9c0-6.9-2.7-10.3-8.1-10.3
		c-2.6,0-4.6,1-6.2,2.9c-1.6,1.9-2.4,4.3-2.4,7.2V380.5z"/>
</g>
<path class="st0" d="M424.6,157.3c-5.9,0-10.7,4.8-10.7,10.7v10.7h10.7c5.9,0,10.7-4.8,10.7-10.7
	C435.3,162.1,430.5,157.3,424.6,157.3z"/>
<g>
	<path class="st1" d="M431.3,165.4v13.2h-2.5v-10.2c-0.3,0.3-0.7,0.5-1.2,0.7c-0.5,0.2-1,0.4-1.6,0.4v-2.2c1.3-0.4,2.5-1,3.7-1.9
		H431.3z"/>
</g>
<path class="st0" d="M424.6,186.8c-5.9,0-10.7,4.8-10.7,10.7v10.7h10.7c5.9,0,10.7-4.8,10.7-10.7
	C435.3,191.6,430.5,186.8,424.6,186.8z"/>
<g>
	<path class="st1" d="M427.9,206.1h5.5v2.1h-8.1v-1c0-0.7,0.1-1.3,0.4-1.9c0.2-0.6,0.6-1.1,1-1.7c0.4-0.5,1.4-1.3,2.8-2.4
		c0.6-0.4,1-0.8,1.2-1.2c0.2-0.4,0.4-0.8,0.4-1.3c0-0.6-0.2-1-0.5-1.3c-0.3-0.3-0.9-0.5-1.6-0.5c-1.1,0-2.2,0.4-3.2,1.3V196
		c1-0.7,2.2-1.1,3.6-1.1c1.3,0,2.4,0.3,3.1,1c0.7,0.7,1.1,1.6,1.1,2.7c0,0.6-0.1,1.1-0.3,1.6c-0.2,0.5-0.4,0.9-0.8,1.3
		s-0.7,0.7-1.1,1c-0.4,0.3-0.8,0.6-1.3,1c-0.8,0.6-1.4,1.1-1.7,1.5S427.9,205.8,427.9,206.1z"/>
</g>
<path class="st0" d="M424.6,213.5c-5.9,0-10.7,4.8-10.7,10.7v10.7h10.7c5.9,0,10.7-4.8,10.7-10.7S430.5,213.5,424.6,213.5z"/>
<g>
	<path class="st1" d="M425.5,232.2c0.9,0.7,1.9,1,3,1c0.8,0,1.4-0.2,1.8-0.5c0.5-0.3,0.7-0.8,0.7-1.5c0-1.4-1-2-3.1-2h-1.1v-1.9h1.1
		c1.8,0,2.7-0.6,2.7-1.9c0-1.2-0.7-1.8-2.1-1.8c-0.9,0-1.7,0.3-2.6,0.9v-2.1c0.9-0.5,1.9-0.7,3.1-0.7c1.2,0,2.2,0.3,2.9,0.8
		s1.1,1.4,1.1,2.4c0,1.7-0.9,2.8-2.6,3.2v0c0.9,0.1,1.6,0.4,2.2,1c0.5,0.6,0.8,1.3,0.8,2.1c0,1.2-0.4,2.2-1.3,2.9
		c-0.9,0.7-2.1,1-3.6,1c-1.3,0-2.4-0.2-3.2-0.7V232.2z"/>
</g>
<path class="st0" d="M424.6,242.4c-5.9,0-10.7,4.8-10.7,10.7v10.7h10.7c5.9,0,10.7-4.8,10.7-10.7S430.5,242.4,424.6,242.4z"/>
<g>
	<path class="st1" d="M432.6,250.7v8.3h1.6v1.8h-1.6v2.9h-2.3v-2.9h-5.7V259c1.2-1.4,2.3-2.8,3.3-4.2c1-1.5,1.8-2.8,2.3-4H432.6z
		 M426.7,259.1h3.6v-5c-0.4,0.6-0.9,1.4-1.5,2.4C428.1,257.4,427.4,258.3,426.7,259.1z"/>
</g>
<path class="st0" d="M424.6,271c-5.9,0-10.7,4.8-10.7,10.7v10.7h10.7c5.9,0,10.7-4.8,10.7-10.7S430.5,271,424.6,271z"/>
<g>
	<path class="st1" d="M425.5,292v-2.2c0.4,0.3,0.8,0.5,1.3,0.7c0.5,0.2,1,0.2,1.5,0.2c0.8,0,1.5-0.2,2-0.6s0.7-1,0.7-1.7
		c0-0.7-0.3-1.3-0.8-1.6s-1.3-0.5-2.3-0.5c-0.7,0-1.5,0.1-2.2,0.2l0.5-7.1h6.7v2.1h-4.7l-0.2,3c0.7-0.1,1.1-0.1,1.3-0.1
		c1.3,0,2.3,0.3,3.1,1s1.2,1.6,1.2,2.8c0,1.4-0.4,2.5-1.3,3.3c-0.9,0.8-2.1,1.2-3.6,1.2C427.3,292.6,426.3,292.4,425.5,292z"/>
</g>
<path class="st0" d="M424.6,296.7c-5.9,0-10.7,4.8-10.7,10.7V318h10.7c5.9,0,10.7-4.8,10.7-10.7S430.5,296.7,424.6,296.7z"/>
<g>
	<path class="st1" d="M433.1,307.2c-0.7-0.4-1.4-0.5-2.1-0.5c-1,0-1.9,0.4-2.5,1.3c-0.6,0.8-0.9,1.9-0.9,3.3h0.1
		c0.6-1,1.6-1.5,2.8-1.5c1.1,0,2,0.4,2.6,1.1c0.6,0.7,1,1.7,1,2.9c0,1.3-0.4,2.4-1.2,3.2c-0.8,0.8-1.9,1.3-3.1,1.3
		c-1.5,0-2.6-0.5-3.4-1.6c-0.8-1.1-1.2-2.5-1.2-4.4c0-2.2,0.5-4,1.5-5.4c1-1.4,2.4-2.1,4.2-2.1c1,0,1.8,0.1,2.3,0.4V307.2z
		 M427.7,313.7c0,0.7,0.2,1.3,0.5,1.8c0.4,0.5,0.8,0.8,1.5,0.8c0.6,0,1.1-0.2,1.4-0.7c0.3-0.5,0.5-1,0.5-1.7c0-1.6-0.6-2.3-1.9-2.3
		c-0.6,0-1.1,0.2-1.4,0.6C427.8,312.6,427.7,313.1,427.7,313.7z"/>
</g>
<path class="st0" d="M116.8,582.8c-20.3,0-36.8,16.5-36.8,36.8v36.8h36.8c20.3,0,36.8-16.5,36.8-36.8S137.1,582.8,116.8,582.8z"/>
<g>
	<path class="st1" d="M149.2,656.8h-10l-7.1-11.8c-1.4-2.4-2.7-4-3.7-4.7c-1-0.8-2.1-1.1-3.3-1.1h-3.2v17.7h-8.7v-44.8h15.2
		c10.4,0,15.5,4,15.5,12.1c0,3-0.9,5.5-2.6,7.7s-4.2,3.7-7.4,4.6v0.1c2.1,0.7,4.3,3,6.8,6.9L149.2,656.8z M121.8,618.7v13.6h5.2
		c2.4,0,4.2-0.7,5.6-2.1s2.1-3.1,2.1-5.1c0-4.3-2.5-6.4-7.6-6.4H121.8z"/>
	<path class="st2" d="M179.2,643.1h-21.4c0.3,5.4,3.4,8.2,9.3,8.2c3.6,0,6.7-0.9,9.5-2.8v6.5c-3,1.7-6.8,2.6-11.4,2.6
		c-5,0-8.8-1.4-11.6-4.3c-2.8-2.9-4.2-6.9-4.2-12.1c0-5.1,1.5-9.2,4.5-12.4c3-3.2,6.7-4.8,11.2-4.8c4.5,0,7.9,1.4,10.4,4.1
		c2.5,2.7,3.7,6.5,3.7,11.3V643.1z M171.2,637.6c0-5.1-2.1-7.6-6.3-7.6c-1.7,0-3.3,0.7-4.6,2.1c-1.3,1.4-2.2,3.2-2.5,5.5H171.2z"/>
	<path class="st2" d="M194.1,652.8v18.7h-8.5v-46.7h8.5v5.1h0.1c2.5-3.9,6-5.8,10.5-5.8c4,0,7.2,1.4,9.5,4.2
		c2.3,2.8,3.5,6.7,3.5,11.6c0,5.3-1.3,9.6-4,12.8c-2.6,3.2-6.2,4.9-10.5,4.9C199.4,657.6,196.4,656,194.1,652.8L194.1,652.8z
		 M194,642.8c0,2.3,0.7,4.2,2,5.8c1.3,1.5,3.1,2.3,5.1,2.3c2.5,0,4.4-1,5.8-2.9c1.4-1.9,2.1-4.6,2.1-8.1c0-6.2-2.4-9.3-7.3-9.3
		c-2.3,0-4.2,0.9-5.6,2.6c-1.4,1.7-2.1,3.9-2.1,6.5V642.8z"/>
	<path class="st2" d="M224.6,656.8v-47.4h8.5v47.4H224.6z"/>
	<path class="st2" d="M270.9,624.8l-13.5,35.3c-3,7.8-7.4,11.7-13.3,11.7c-2,0-3.7-0.2-5.1-0.7v-6.9c1.2,0.6,2.5,1,4,1
		c2.5,0,4.4-1.3,5.5-3.9l1.9-4.6l-12.9-31.9h9.4l6.7,21c0.2,0.7,0.5,1.9,0.8,3.7h0.1c0.2-1.1,0.5-2.3,0.9-3.7l6.9-21H270.9z"/>
</g>
<g>
	<path class="st3" d="M-144.2,369.4v5.2h-18v-5.2h6.5V366c-0.8-0.3-1.6-0.7-2.3-1.2s-1.3-1.1-1.8-1.8c-0.5-0.7-0.9-1.5-1.2-2.3
		c-0.3-0.8-0.4-1.7-0.4-2.7c0-1.2,0.2-2.2,0.7-3.2c0.4-1,1-1.9,1.8-2.7c0.7-0.8,1.6-1.4,2.6-1.8c1-0.4,2.1-0.7,3.2-0.7
		s2.2,0.2,3.2,0.7c1,0.4,1.9,1,2.7,1.8c0.8,0.8,1.4,1.6,1.8,2.7c0.4,1,0.7,2.1,0.7,3.2c0,0.9-0.1,1.8-0.4,2.6
		c-0.3,0.8-0.7,1.6-1.2,2.3c-0.5,0.7-1.1,1.3-1.8,1.8c-0.7,0.5-1.5,0.9-2.3,1.2v3.4H-144.2z M-153.1,355.6c-0.7,0-1.3,0.2-1.8,0.7
		c-0.5,0.5-0.7,1.1-0.7,1.8c0,0.7,0.2,1.3,0.7,1.8c0.5,0.5,1.1,0.7,1.8,0.7s1.3-0.2,1.8-0.7c0.5-0.5,0.7-1.1,0.7-1.8
		c0-0.7-0.2-1.3-0.7-1.8C-151.9,355.8-152.5,355.6-153.1,355.6z"/>
	<path class="st3" d="M-123.4,369.5v5.2h-18v-5.2H-123.4z M-141.2,401.8v-12.7c0-0.7,0.2-1.3,0.7-1.8c0.5-0.5,1.1-0.8,1.9-0.8h8.6
		c0.9,0,1.3-0.4,1.3-1.3v-2.2c0-0.9-0.4-1.3-1.3-1.3h-11.3v-5.2h17.8v15.3h-11.3c-0.9,0-1.3,0.4-1.3,1.3v2.2c0,0.9,0.4,1.3,1.3,1.3
		h11.3v5.2H-141.2z M-141.2,366.7V356c0-0.7,0.2-1.4,0.7-1.9c0.5-0.5,1.1-0.7,1.8-0.7h2.6v6.7c0,0.9,0.4,1.3,1.3,1.3h11.2v5.2
		H-141.2z"/>
</g>
<g>
	<path class="st0" d="M-111,389.1v-12.9h37.8v12.9h-12.6v12.7h-12.9v-12.7H-111z M-109,338.2c1.3-1.2,2.9-1.9,4.6-1.9H-73V347h6.9
		v-10.5h12.9v41.2H-66v-17.8H-73v9.2h-37.9v-26.4C-110.9,341-110.3,339.5-109,338.2z M-98.1,353.1c0,2.1,1.1,3.2,3.2,3.2h8.9v-7.2
		h-8.9c-2.1,0-3.2,1.1-3.2,3.2V353.1z"/>
</g>
<g>
	<path class="st3" d="M-47.8,370c0.5-0.5,1.1-0.7,1.8-0.7h11.3v5.8h4.7v-5.8h5.2v16.6H-30v-5.6h-4.7v5.6h-13.9v-14
		C-48.6,371.1-48.3,370.5-47.8,370z M-43.4,379.4c0,0.9,0.4,1.3,1.3,1.3h2.2v-6.3h-2.2c-0.9,0-1.3,0.4-1.3,1.3V379.4z M-24.7,399
		c0,0.7-0.2,1.3-0.7,1.9c-0.5,0.5-1.2,0.7-1.9,0.7h-2.6V394c0-0.9-0.4-1.3-1.3-1.3h-7.9v-5.2h14.3V399z"/>
	<path class="st3" d="M-1.5,382.7l-4.9,3.2l-2.2-3.7l-3.6-5.9l-3.6,5.9l-2.3,3.7l-2.5-1.3c-0.4-0.2-0.7-0.4-1-0.6
		c-0.3-0.2-0.5-0.4-0.6-0.8c-0.2-0.7-0.1-1.4,0.3-2.1l0.7-1.1l2.9-4.7l0.5-0.7v0h-4.1v-5.2h20.1v5.2h-4.8l0,0l0.4,0.7l2.9,4.7
		L-1.5,382.7z M7.4,385.9H2.2v-16.6h5.2V385.9z"/>
	<path class="st3" d="M16.6,385.9c0,0.4-0.1,0.8-0.2,1.1c-0.1,0.4-0.4,0.7-0.6,0.9c-0.3,0.3-0.6,0.5-0.9,0.6
		c-0.4,0.2-0.7,0.2-1.1,0.2c-0.4,0-0.8-0.1-1.1-0.2c-0.4-0.2-0.7-0.4-0.9-0.6c-0.3-0.3-0.5-0.6-0.6-0.9c-0.1-0.4-0.2-0.7-0.2-1.1
		c0-0.8,0.3-1.5,0.9-2c0.6-0.6,1.2-0.8,2-0.8c0.8,0,1.5,0.3,2.1,0.8C16.3,384.4,16.6,385.1,16.6,385.9z M20.6,364.2
		c0.5,0.5,0.8,1.1,0.8,1.9v8.6c0,0.7-0.3,1.3-0.8,1.9c-0.5,0.5-1.2,0.8-1.9,0.8h-2.4v3.5h-5.3v-8.7h5v-3.4h-5v-5.3h7.6
		C19.4,363.4,20,363.7,20.6,364.2z"/>
</g>
<path class="st0" d="M-118,343.5c0,0-6.2-3.7-9.9-7.3c3.6-1.9,5.4-6.2,4.1-10.2c-1.5-4.5-6.3-6.9-10.7-5.4c-0.9,0.3-1.8,0.8-2.5,1.4
	c-2.2-2.2-5.5-3.2-8.7-2.1c-4.5,1.5-6.9,6.3-5.4,10.7c0.8,2.4,2.6,4.2,4.8,5.1c-1.2,2-1.6,4.6-0.8,7c1.5,4.5,6.3,6.9,10.7,5.4
	c3.2-1.1,5.3-3.8,5.7-6.9C-127.7,343-123.5,344.4-118,343.5z"/>
<path class="st0" d="M-20.8,319.5c-3.2-1.1-6.5-0.1-8.7,2.1c-0.7-0.6-1.6-1.1-2.5-1.4c-4.5-1.5-9.3,0.9-10.7,5.4
	c-1.3,4,0.5,8.3,4.1,10.2c-3.7,3.6-9.9,7.3-9.9,7.3c5.6,0.9,9.7-0.5,12.7-2.3c0.4,3.1,2.5,5.9,5.7,6.9c4.5,1.5,9.3-0.9,10.7-5.4
	c0.8-2.4,0.4-4.9-0.8-7c2.2-0.9,4-2.7,4.8-5.1C-14,325.8-16.4,321-20.8,319.5z"/>
<circle class="st0" cx="-33.2" cy="357.5" r="4"/>
<circle class="st0" cx="-6.8" cy="357.5" r="4"/>
<g>
	<path class="st1" d="M-144.2,235.2v5.2h-18v-5.2h6.5v-3.4c-0.8-0.3-1.6-0.7-2.3-1.2s-1.3-1.1-1.8-1.8c-0.5-0.7-0.9-1.5-1.2-2.3
		c-0.3-0.8-0.4-1.7-0.4-2.7c0-1.2,0.2-2.2,0.7-3.2c0.4-1,1-1.9,1.8-2.7c0.7-0.8,1.6-1.4,2.6-1.8c1-0.4,2.1-0.7,3.2-0.7
		s2.2,0.2,3.2,0.7c1,0.4,1.9,1,2.7,1.8c0.8,0.8,1.4,1.6,1.8,2.7c0.4,1,0.7,2.1,0.7,3.2c0,0.9-0.1,1.8-0.4,2.6
		c-0.3,0.8-0.7,1.6-1.2,2.3c-0.5,0.7-1.1,1.3-1.8,1.8c-0.7,0.5-1.5,0.9-2.3,1.2v3.4H-144.2z M-153.1,221.3c-0.7,0-1.3,0.2-1.8,0.7
		c-0.5,0.5-0.7,1.1-0.7,1.8c0,0.7,0.2,1.3,0.7,1.8c0.5,0.5,1.1,0.7,1.8,0.7s1.3-0.2,1.8-0.7c0.5-0.5,0.7-1.1,0.7-1.8
		c0-0.7-0.2-1.3-0.7-1.8C-151.9,221.6-152.5,221.3-153.1,221.3z"/>
	<path class="st1" d="M-123.4,235.2v5.2h-18v-5.2H-123.4z M-141.2,267.5v-12.7c0-0.7,0.2-1.3,0.7-1.8c0.5-0.5,1.1-0.8,1.9-0.8h8.6
		c0.9,0,1.3-0.4,1.3-1.3v-2.2c0-0.9-0.4-1.3-1.3-1.3h-11.3v-5.2h17.8v15.3h-11.3c-0.9,0-1.3,0.4-1.3,1.3v2.2c0,0.9,0.4,1.3,1.3,1.3
		h11.3v5.2H-141.2z M-141.2,232.4v-10.6c0-0.7,0.2-1.4,0.7-1.9c0.5-0.5,1.1-0.7,1.8-0.7h2.6v6.7c0,0.9,0.4,1.3,1.3,1.3h11.2v5.2
		H-141.2z"/>
</g>
<g>
	<path class="st1" d="M-111,254.9V242h37.8v12.9h-12.6v12.7h-12.9v-12.7H-111z M-109,203.9c1.3-1.2,2.9-1.9,4.6-1.9H-73v10.7h6.9
		v-10.5h12.9v41.2H-66v-17.8H-73v9.2h-37.9v-26.4C-110.9,206.8-110.3,205.2-109,203.9z M-98.1,218.8c0,2.1,1.1,3.2,3.2,3.2h8.9v-7.2
		h-8.9c-2.1,0-3.2,1.1-3.2,3.2V218.8z"/>
</g>
<g>
	<path class="st1" d="M-47.8,235.7c0.5-0.5,1.1-0.7,1.8-0.7h11.3v5.8h4.7V235h5.2v16.6H-30V246h-4.7v5.6h-13.9v-14
		C-48.6,236.8-48.3,236.2-47.8,235.7z M-43.4,245.1c0,0.9,0.4,1.3,1.3,1.3h2.2v-6.3h-2.2c-0.9,0-1.3,0.4-1.3,1.3V245.1z
		 M-24.7,264.7c0,0.7-0.2,1.3-0.7,1.9c-0.5,0.5-1.2,0.7-1.9,0.7h-2.6v-7.6c0-0.9-0.4-1.3-1.3-1.3h-7.9v-5.2h14.3V264.7z"/>
	<path class="st1" d="M-1.5,248.4l-4.9,3.2l-2.2-3.7l-3.6-5.9l-3.6,5.9l-2.3,3.7l-2.5-1.3c-0.4-0.2-0.7-0.4-1-0.6
		c-0.3-0.2-0.5-0.4-0.6-0.8c-0.2-0.7-0.1-1.4,0.3-2.1l0.7-1.1l2.9-4.7l0.5-0.7v0h-4.1V235h20.1v5.2h-4.8l0,0l0.4,0.7l2.9,4.7
		L-1.5,248.4z M7.4,251.6H2.2V235h5.2V251.6z"/>
	<path class="st1" d="M16.6,251.6c0,0.4-0.1,0.8-0.2,1.1c-0.1,0.4-0.4,0.7-0.6,0.9c-0.3,0.3-0.6,0.5-0.9,0.6
		c-0.4,0.2-0.7,0.2-1.1,0.2c-0.4,0-0.8-0.1-1.1-0.2c-0.4-0.2-0.7-0.4-0.9-0.6c-0.3-0.3-0.5-0.6-0.6-0.9c-0.1-0.4-0.2-0.7-0.2-1.1
		c0-0.8,0.3-1.5,0.9-2c0.6-0.6,1.2-0.8,2-0.8c0.8,0,1.5,0.3,2.1,0.8C16.3,250.1,16.6,250.8,16.6,251.6z M20.6,229.9
		c0.5,0.5,0.8,1.1,0.8,1.9v8.6c0,0.7-0.3,1.3-0.8,1.9c-0.5,0.5-1.2,0.8-1.9,0.8h-2.4v3.5h-5.3v-8.7h5v-3.4h-5v-5.3h7.6
		C19.4,229.2,20,229.4,20.6,229.9z"/>
</g>
<path class="st1" d="M-118,209.2c0,0-6.2-3.7-9.9-7.3c3.6-1.9,5.4-6.2,4.1-10.2c-1.5-4.5-6.3-6.9-10.7-5.4c-0.9,0.3-1.8,0.8-2.5,1.4
	c-2.2-2.2-5.5-3.2-8.7-2.1c-4.5,1.5-6.9,6.3-5.4,10.7c0.8,2.4,2.6,4.2,4.8,5.1c-1.2,2-1.6,4.6-0.8,7c1.5,4.5,6.3,6.9,10.7,5.4
	c3.2-1.1,5.3-3.8,5.7-6.9C-127.7,208.7-123.5,210.1-118,209.2z"/>
<path class="st1" d="M-20.8,185.2c-3.2-1.1-6.5-0.1-8.7,2.1c-0.7-0.6-1.6-1.1-2.5-1.4c-4.5-1.5-9.3,0.9-10.7,5.4
	c-1.3,4,0.5,8.3,4.1,10.2c-3.7,3.6-9.9,7.3-9.9,7.3c5.6,0.9,9.7-0.5,12.7-2.3c0.4,3.1,2.5,5.9,5.7,6.9c4.5,1.5,9.3-0.9,10.7-5.4
	c0.8-2.4,0.4-4.9-0.8-7c2.2-0.9,4-2.7,4.8-5.1C-14,191.5-16.4,186.7-20.8,185.2z"/>
<circle class="st1" cx="-33.2" cy="223.2" r="4"/>
<circle class="st1" cx="-6.8" cy="223.2" r="4"/>
<path class="st0" d="M-134.7,706.8c-19.2,0-34.8,15.6-34.8,34.8v34.8h34.8c19.2,0,34.8-15.6,34.8-34.8
	C-99.9,722.4-115.5,706.8-134.7,706.8z"/>
<g>
	<path class="st1" d="M-105.9,773.3h-24.3v-42.4h8.2v35.6h16.1V773.3z"/>
	<path class="st2" d="M-102.6,758.3c0-5,1.5-8.9,4.4-11.7c2.9-2.9,6.9-4.3,11.9-4.3c4.8,0,8.6,1.4,11.4,4.2s4.2,6.6,4.2,11.3
		c0,4.9-1.4,8.9-4.3,11.8c-2.9,2.9-6.8,4.4-11.7,4.4c-4.8,0-8.7-1.4-11.5-4.3C-101.2,766.9-102.6,763.1-102.6,758.3z M-94.5,758.2
		c0,6.4,2.6,9.5,7.9,9.5c5.1,0,7.6-3.3,7.6-9.8c0-6.3-2.6-9.5-7.7-9.5c-2.5,0-4.4,0.9-5.8,2.6C-93.8,752.8-94.5,755.2-94.5,758.2z"
		/>
	<path class="st2" d="M-35.6,770.1c0,5.6-1.5,9.9-4.6,12.9c-3.1,3-7.6,4.5-13.5,4.5c-4,0-7.2-0.6-9.7-1.9v-7
		c3.2,1.8,6.4,2.7,9.5,2.7c3.3,0,5.8-0.9,7.6-2.6c1.8-1.7,2.7-4.2,2.7-7.4v-2.7h-0.1c-2.2,3.6-5.4,5.3-9.7,5.3
		c-3.8,0-6.8-1.4-9.1-4.1c-2.3-2.7-3.5-6.4-3.5-11c0-5.1,1.3-9.2,3.8-12.2c2.5-3,5.9-4.6,10-4.6c3.7,0,6.6,1.5,8.5,4.4h0.1V743h8
		V770.1z M-43.6,756c0-2.1-0.6-3.8-1.9-5.3c-1.3-1.5-2.9-2.2-4.9-2.2c-2.3,0-4.1,0.9-5.5,2.7c-1.4,1.8-2,4.3-2,7.5
		c0,2.8,0.6,5,1.9,6.6c1.3,1.6,3,2.5,5.1,2.5c2.2,0,3.9-0.8,5.3-2.5c1.3-1.6,2-3.7,2-6.3V756z"/>
	<path class="st2" d="M-28,733c0-1.2,0.4-2.3,1.3-3.1c0.9-0.8,2-1.2,3.4-1.2c1.3,0,2.5,0.4,3.4,1.2c0.9,0.8,1.4,1.8,1.4,3.1
		s-0.4,2.3-1.3,3.1s-2,1.2-3.4,1.2c-1.4,0-2.5-0.4-3.4-1.3C-27.5,735.2-28,734.2-28,733z M-27.4,773.3V743h8v30.3H-27.4z"/>
	<path class="st2" d="M17,773.3H9v-17c0-5.2-1.9-7.8-5.6-7.8c-1.9,0-3.4,0.7-4.6,2.1C-2.4,752-3,753.8-3,756v17.3h-8V743h8v4.9h0.1
		c2.2-3.7,5.5-5.6,9.8-5.6c6.7,0,10.1,4.2,10.1,12.5V773.3z"/>
</g>
<rect x="164.7" y="91" class="st1" width="145.7" height="145.7"/>
<rect x="234.5" y="152.3" class="st4" width="6" height="23"/>
<rect x="226" y="160.8" class="st4" width="23" height="6"/>
<rect x="164.7" y="-73.5" class="st1" width="145.7" height="145.7"/>
<rect x="234.5" y="-12.2" transform="matrix(0.7071 0.7071 -0.7071 0.7071 69.0907 -168.1331)" class="st4" width="6" height="23"/>
<rect x="234.5" y="-12.2" transform="matrix(-0.7071 0.7071 -0.7071 -0.7071 404.9665 -169.0759)" class="st4" width="6" height="23"/>
<rect x="234.3" y="-263.7" transform="matrix(0.7071 0.7071 -0.7071 0.7071 -108.8198 -241.619)" class="st4" width="6" height="23"/>
<rect x="234.3" y="-263.7" transform="matrix(-0.7071 0.7071 -0.7071 -0.7071 226.7023 -598.2365)" class="st4" width="6" height="23"/>
<circle class="st0" cx="14.5" cy="14.6" r="12.6"/>
<rect x="6" y="12.4" class="st1" width="16.9" height="4.4"/>
<g>
	<path d="M41.3,15.2V19h-1.3v-3.8h-6.7v-1.1h14.7v1.1H41.3z M46.6,12.3c-1.3-0.2-2.5-0.6-3.6-1.3c-1.1-0.7-1.9-1.3-2.3-2
		c-0.4,0.7-1.2,1.3-2.3,2s-2.3,1.1-3.6,1.3l-0.7-1c1.7-0.2,3.1-0.7,4.3-1.5c1.2-0.9,1.7-1.7,1.7-2.4V6.8h1.2v0.6
		c0,0.8,0.6,1.6,1.7,2.4c1.2,0.8,2.6,1.3,4.2,1.5L46.6,12.3z M35.7,21.4v-4.8H37v3.7h9v1.1H35.7z"/>
	<path d="M59.1,17.9c-0.9-0.7-1.7-1.5-2.5-2.6s-1.3-1.9-1.5-2.7c-0.3,0.9-0.8,1.8-1.5,2.8s-1.6,1.9-2.5,2.6l-0.9-0.8
		c1.3-0.9,2.3-2,3.1-3.4c0.8-1.4,1.2-2.8,1.2-4.2V7.2h1.2v2.5c0,1.4,0.4,2.7,1.1,4c0.8,1.3,1.8,2.4,3.1,3.2L59.1,17.9z M62.2,22
		v-9.6h-3.7v-1.1h3.7V6.1h1.2V22H62.2z"/>
	<path d="M75.5,14.3c-0.7-0.4-1.4-0.9-2.2-1.6c-0.8-0.7-1.3-1.4-1.6-2c-0.3,0.7-0.8,1.4-1.5,2.2s-1.5,1.4-2.3,1.8l-0.9-0.8
		c1.2-0.6,2.1-1.4,2.9-2.4c0.8-1,1.2-2.1,1.2-3.2V6.5h1.2v1.7c0,1.1,0.4,2.1,1.2,3s1.7,1.7,2.8,2.2L75.5,14.3z M78.3,22v-4.8h-9
		v-1.1h10.2V22H78.3z M79.5,11.5v3.7h-1.2V6.1h1.2v4.4h2.4v1.1H79.5z"/>
	<path d="M91.1,18.2c-1.4-1.4-2.4-3.1-3-5c-0.2,0.8-0.6,1.7-1.2,2.7c-0.6,1-1.3,1.8-2,2.5l-1-0.8c0.9-0.7,1.8-1.7,2.5-3.1
		c0.7-1.4,1.1-2.8,1.1-4.2V8.5h-3V7.4h7.2v1.1h-3v1.8c0,1.3,0.3,2.6,1,4s1.4,2.3,2.3,3.1L91.1,18.2z M93.3,21.5v-8.8h-2.8v-1.1h2.8
		V6.4h1.2v15.1H93.3z M96.2,22V6.1h1.2V22H96.2z"/>
</g>
<circle class="st0" cx="14.5" cy="-33.9" r="12.6"/>
<rect x="12.3" y="-42.3" class="st1" width="4.4" height="16.9"/>
<rect x="6" y="-36.1" class="st1" width="16.9" height="4.4"/>
<g>
	<path d="M41.3-33.3v3.8h-1.3v-3.8h-6.7v-1.1h14.7v1.1H41.3z M46.6-36.1c-1.3-0.2-2.5-0.6-3.6-1.3c-1.1-0.7-1.9-1.3-2.3-2
		c-0.4,0.7-1.2,1.3-2.3,2s-2.3,1.1-3.6,1.3l-0.7-1c1.7-0.2,3.1-0.7,4.3-1.5c1.2-0.9,1.7-1.7,1.7-2.4v-0.6h1.2v0.6
		c0,0.8,0.6,1.6,1.7,2.4c1.2,0.8,2.6,1.3,4.2,1.5L46.6-36.1z M35.7-27v-4.8H37v3.7h9v1.1H35.7z"/>
	<path d="M59.1-30.5c-0.9-0.7-1.7-1.5-2.5-2.6s-1.3-1.9-1.5-2.7c-0.3,0.9-0.8,1.8-1.5,2.8c-0.8,1-1.6,1.9-2.5,2.6l-0.9-0.8
		c1.3-0.9,2.3-2,3.1-3.4c0.8-1.4,1.2-2.8,1.2-4.2v-2.6h1.2v2.5c0,1.4,0.4,2.7,1.1,4c0.8,1.3,1.8,2.4,3.1,3.2L59.1-30.5z M62.2-26.5
		v-9.6h-3.7v-1.1h3.7v-5.2h1.2v15.9H62.2z"/>
	<path d="M75-32.4v5.9h-1.2v-5.9h-6.7v-1.1h14.7v1.1H75z M80.3-35.2c-1.1-0.2-2.3-0.7-3.5-1.3c-1.2-0.6-2-1.3-2.4-1.8
		c-0.3,0.6-1.1,1.2-2.2,1.8s-2.3,1.1-3.6,1.4l-0.9-1.1c1.5-0.2,2.8-0.6,4-1.3c1.2-0.7,1.9-1.5,2-2.3h-5.1V-41h5.1v-1.6h1.3v1.6h5.1
		v1.1h-5.1c0.1,0.8,0.8,1.5,1.9,2.2s2.5,1.2,4.1,1.4L80.3-35.2z"/>
	<path d="M92.4-41c-0.1,4.5-2.5,8.1-7.2,10.7l-0.9-1c1.7-0.7,3.2-1.8,4.5-3.3s2.1-3.3,2.3-5.3H85V-41H92.4z M96.3-34.8v8.2h-1.2
		v-15.9h1.2v6.6h2.9v1.1H96.3z"/>
</g>
<circle class="st0" cx="-20.3" cy="-216.9" r="12.6"/>
<rect x="-22.5" y="-225.4" class="st1" width="4.4" height="16.9"/>
<rect x="-28.7" y="-219.1" class="st1" width="16.9" height="4.4"/>
<g>
	<path d="M6.5-216.1v5.9H5.3v-5.9h-6.7v-1.1h14.7v1.1H6.5z M11.8-218.8c-1.1-0.2-2.3-0.7-3.5-1.3c-1.2-0.6-2-1.3-2.4-1.8
		c-0.3,0.6-1.1,1.2-2.2,1.8s-2.3,1.1-3.6,1.4l-0.9-1.1c1.5-0.2,2.8-0.6,4-1.3c1.2-0.7,1.9-1.5,2-2.3H0.2v-1.1h5.1v-1.6h1.3v1.6h5.1
		v1.1H6.6c0.1,0.8,0.8,1.5,1.9,2.2s2.5,1.2,4.1,1.4L11.8-218.8z"/>
	<path d="M23.9-224.6c-0.1,4.5-2.5,8.1-7.2,10.7l-0.9-1c1.7-0.7,3.2-1.8,4.5-3.3s2.1-3.3,2.3-5.3h-6.1v-1.1H23.9z M27.8-218.4v8.2
		h-1.2V-226h1.2v6.6h2.9v1.1H27.8z"/>
</g>
<circle class="st0" cx="-20.3" cy="-172.8" r="12.6"/>
<rect x="-28.7" y="-175" class="st1" width="16.9" height="4.4"/>
<g>
	<path d="M7-173.7c-0.7-0.4-1.4-0.9-2.2-1.6c-0.8-0.7-1.3-1.4-1.6-2c-0.3,0.7-0.8,1.4-1.5,2.2s-1.5,1.4-2.3,1.8l-0.9-0.8
		c1.2-0.6,2.1-1.4,2.9-2.4c0.8-1,1.2-2.1,1.2-3.2v-1.7h1.2v1.7c0,1.1,0.4,2.1,1.2,3s1.7,1.7,2.8,2.2L7-173.7z M9.8-166v-4.8h-9v-1.1
		H11v5.9H9.8z M11-176.4v3.7H9.8v-9.1H11v4.4h2.4v1.1H11z"/>
	<path d="M22.6-169.7c-1.4-1.4-2.4-3.1-3-5c-0.2,0.8-0.6,1.7-1.2,2.7c-0.6,1-1.3,1.8-2,2.5l-1-0.8c0.9-0.7,1.8-1.7,2.5-3.1
		c0.7-1.4,1.1-2.8,1.1-4.2v-1.8h-3v-1.1h7.2v1.1h-3v1.8c0,1.3,0.3,2.6,1,4s1.4,2.3,2.3,3.1L22.6-169.7z M24.8-166.5v-8.8H22v-1.1
		h2.8v-5.1H26v15.1H24.8z M27.6-166v-15.9h1.2v15.9H27.6z"/>
</g>
<g>
</g>
<g>
</g>
<g>
</g>
<g>
</g>
<g>
</g>
<g>
</g>
</svg>
