<?xml version="1.0" encoding="utf-8"?>
<!-- Generator: Adobe Illustrator 19.1.0, SVG Export Plug-In . SVG Version: 6.00 Build 0)  -->
<svg version="1.1" id="레이어_1" xmlns="http://www.w3.org/2000/svg" xmlns:xlink="http://www.w3.org/1999/xlink" x="0px"
	 y="0px" viewBox="0 0 193 81.5" style="enable-background:new 0 0 193 81.5;" xml:space="preserve">
<style type="text/css">
	.st0{fill:#116729;}
	.st1{fill:#FFFFFF;}
	.st2{fill:#040404;}
	.st3{fill:#090705;}
</style>
<path class="st0" d="M36.8,1C16.5,1,0.1,17.4,0.1,37.7v36.7h36.7C57,74.4,73.5,58,73.5,37.7S57,1,36.8,1z"/>
<g>
	<path class="st1" d="M69.6,36H53.3v12.3h15v7.1h-15v18.1h-8.7V28.8h24.9V36z"/>
	<path class="st2" d="M75.6,31.1c0-1.3,0.5-2.4,1.4-3.3c0.9-0.9,2.1-1.3,3.6-1.3c1.4,0,2.6,0.4,3.6,1.3c1,0.9,1.4,2,1.4,3.3
		c0,1.3-0.5,2.4-1.4,3.3s-2.1,1.3-3.6,1.3c-1.4,0-2.6-0.4-3.6-1.3C76.1,33.5,75.6,32.4,75.6,31.1z M76.3,73.6v-32h8.5v32H76.3z"/>
	<path class="st2" d="M93.4,73.6V26.3h8.5v47.3H93.4z"/>
	<path class="st2" d="M128.6,73.2c-1.4,0.7-3.4,1.1-6,1.1c-6.5,0-9.8-3.5-9.8-10.4V48.1h-5.3v-6.4h5.3v-7.1l8.5-2.5v9.6h7.4v6.4
		h-7.4v14.4c0,3.5,1.4,5.3,4.2,5.3c1.2,0,2.2-0.3,3.2-1V73.2z"/>
	<path class="st2" d="M162.1,60h-21.3c0.3,5.4,3.4,8.1,9.2,8.1c3.5,0,6.7-0.9,9.5-2.8v6.4c-3,1.7-6.8,2.6-11.4,2.6
		c-5,0-8.8-1.4-11.6-4.3s-4.1-6.9-4.1-12.1c0-5.1,1.5-9.2,4.5-12.4s6.7-4.8,11.1-4.8s7.9,1.4,10.4,4.1c2.5,2.7,3.7,6.5,3.7,11.3V60z
		 M154.1,54.4c0-5.1-2.1-7.6-6.3-7.6c-1.7,0-3.3,0.7-4.6,2.1c-1.3,1.4-2.2,3.2-2.5,5.5H154.1z"/>
	<path class="st2" d="M188.1,49.4c-1.1-0.7-2.5-1-4.1-1c-2.1,0-3.8,0.9-5.1,2.6c-1.3,1.7-1.9,4.1-1.9,7v15.6h-8.5v-32h8.5v6.1h0.1
		c1.6-4.5,4.4-6.7,8.4-6.7c1.2,0,2,0.1,2.6,0.4V49.4z"/>
</g>
</svg>
