<?xml version="1.0" encoding="utf-8"?>
<!-- Generator: Adobe Illustrator 19.1.0, SVG Export Plug-In . SVG Version: 6.00 Build 0)  -->
<svg version="1.1" id="레이어_1" xmlns="http://www.w3.org/2000/svg" xmlns:xlink="http://www.w3.org/1999/xlink" x="0px"
	 y="0px" viewBox="0 0 154 154" style="enable-background:new 0 0 154 154;" xml:space="preserve">
<style type="text/css">
	.st0{fill:#1A1A1A;}
	.st1{fill:#116729;}
	.st2{fill:#FFFFFF;}
	.st3{fill:#040404;}
	.st4{fill:#090705;}
	.st5{fill:#808080;}
	.st6{fill:#F2F2F2;}
	.st7{fill:#AE0000;}
	.st8{fill:#FFFFFF;stroke:#AE0000;stroke-width:5;stroke-miterlimit:10;}
	.st9{fill:#317120;}
	.st10{fill:#FFFFFF;stroke:#317120;stroke-width:5;stroke-miterlimit:10;}
	.st11{fill:#FFFFFF;stroke:#000000;stroke-width:5;stroke-miterlimit:10;}
	.st12{fill:#29571A;}
	.st13{fill:#9E0100;}
	.st14{fill:#7C0001;}
	.st15{fill:#FFFFFF;stroke:#9E0100;stroke-width:5;stroke-miterlimit:10;}
</style>
<g>
	<g>
		<path class="st2" d="M97.2,147.9c-7,0-14.2-0.5-21.7-1.4c-4.4-0.5-8.6-1.1-12.7-2.5c-3.8-1.3-7.7-2.6-11.5-4.2
			c-0.2-0.1-0.6-0.2-1.1-0.5c-10.4-4.3-11.5-5.2-11.5-7.3V60c0-1.2,0.8-2.2,2-2.5c1.1-0.2,28.1-6.3,28.1-44.2c0-4.1,3.9-7.6,7.5-8.4
			c0.9-0.2,1.9-0.3,2.8-0.3C90,4.6,95.9,19,97.5,23.5c1.7,4.9,2.4,9.6,1.9,14c-0.3,2.8-1,5.7-2.2,8.6c-0.7,1.7-1.3,3.1-1.9,4.2h39.8
			c4.5,0,13.1,3.2,13.1,15.2c0,0.4-0.1,7.8-4.4,12.2c1.4,1.8,2.6,4.9,2.5,10.1c0,1.1,0.1,7.9-3.8,11.9c-0.6,0.6-1.3,1.2-2,1.6
			c1.2,2.2,1.6,4.7,1.7,5.1c0.7,4,0,8.5-2,12.5c-0.9,1.9-2,3.3-3.2,4.4c0,0-0.9,0.7-2.1,1.3c1.5,4.5,0.2,9.6-1.9,13.3
			c-5,8.7-16.3,9.3-24.6,9.7c-0.8,0-1.6,0.1-2.4,0.1C103.1,147.8,100.2,147.9,97.2,147.9z"/>
		<path d="M79.1,7.1c8.2,0,13.8,10.9,16.1,17.2c1.5,4.1,2.2,8.5,1.8,12.9c-0.3,2.7-1,5.4-2.1,7.9c-0.4,1-3.2,7.7-4.1,7.7
			c0,0,44.4,0,44.4,0s10.6,0,10.6,12.7c0,0,0,9.7-6.3,12.2c0,0,4.6,0.4,4.4,10.1c0,0,0.4,12.3-8.4,12.3c0,0,0,0,0,0
			c2.6,0,4,4.8,4.3,6.7c0.6,3.7-0.2,7.6-1.8,11c-0.6,1.3-1.4,2.6-2.6,3.6c-0.3,0.3-2.9,1.8-3.8,1.8c-0.1,0-0.2,0-0.3-0.1
			c2.9,4,1.8,9.6-0.5,13.6c-4.7,8.3-16.7,8.1-25,8.6c-2.9,0.2-5.7,0.2-8.6,0.2c-7.1,0-14.3-0.5-21.4-1.3c-4.1-0.5-8.3-1.1-12.2-2.4
			c-3.8-1.3-7.6-2.5-11.3-4.2c-1.3-0.6-11.2-4.4-11.2-5.5c0,0,0-72,0-72s30.1-6.1,30.1-46.7c0-2.9,3-5.4,5.5-6
			C77.6,7.2,78.4,7.1,79.1,7.1 M79.1,2.1C79.1,2.1,79.1,2.1,79.1,2.1c-1.1,0-2.2,0.1-3.4,0.4c-4.6,1.1-9.4,5.4-9.4,10.9
			c0,35.7-25.1,41.5-26.2,41.8c-2.3,0.5-4,2.5-4,4.9v72c0,3.8,3.5,5.4,6.8,6.9c2.2,1,4.8,2.1,6.3,2.7c0.5,0.2,0.9,0.4,1.1,0.4
			c3.9,1.7,7.8,3,11.6,4.3l0.1,0c4.3,1.5,8.7,2.1,13.2,2.6c7.5,0.9,14.9,1.4,22,1.4c3,0,6-0.1,8.9-0.3c0.8,0,1.5-0.1,2.3-0.1
			c8.9-0.4,21-1,26.7-11c2.1-3.7,3.5-8.6,2.6-13.3c0.5-0.3,0.8-0.6,0.8-0.6c1.5-1.3,2.8-3,3.9-5.2c2.1-4.5,2.9-9.4,2.2-14
			c-0.2-1.3-0.6-2.7-1-4c0.2-0.2,0.4-0.4,0.6-0.6c4.5-4.7,4.6-12.2,4.5-13.7c0.1-4.5-0.7-7.7-1.9-9.9c3.7-4.9,3.8-11.5,3.8-12.5
			c0-13-9.3-17.7-15.6-17.7H99.2c0.1-0.2,0.2-0.4,0.3-0.7l0-0.1c1.3-3.1,2.1-6.2,2.4-9.3c0.5-4.8-0.2-9.8-2-15
			C98.2,17.8,91.6,2.1,79.1,2.1L79.1,2.1z"/>
	</g>
	<g>
		<path class="st2" d="M16.8,143.4c-5.4,0-9.8-4.4-9.8-9.8V60c0-5.4,4.4-9.8,9.8-9.8h17.1c5.4,0,9.8,4.4,9.8,9.8v73.6
			c0,5.4-4.4,9.8-9.8,9.8H16.8z"/>
		<path d="M33.9,52.7c4,0,7.3,3.3,7.3,7.3v73.6c0,4-3.3,7.3-7.3,7.3H16.8c-4,0-7.3-3.3-7.3-7.3V60c0-4,3.3-7.3,7.3-7.3H33.9
			 M33.9,47.7H16.8C10,47.7,4.5,53.2,4.5,60v73.6c0,6.8,5.5,12.3,12.3,12.3h17.1c6.8,0,12.3-5.5,12.3-12.3V60
			C46.2,53.2,40.7,47.7,33.9,47.7L33.9,47.7z"/>
	</g>
	<circle class="st11" cx="25.4" cy="126.5" r="5.6"/>
	<line class="st11" x1="25.4" y1="120.9" x2="25.4" y2="112.4"/>
</g>
</svg>
