<?xml version="1.0" encoding="utf-8"?>
<!-- Generator: Adobe Illustrator 17.0.0, SVG Export Plug-In . SVG Version: 6.00 Build 0)  -->
<!DOCTYPE svg PUBLIC "-//W3C//DTD SVG 1.1//EN" "http://www.w3.org/Graphics/SVG/1.1/DTD/svg11.dtd">
<svg version="1.1" id="레이어_1" xmlns="http://www.w3.org/2000/svg" xmlns:xlink="http://www.w3.org/1999/xlink" x="0px"
	 y="0px" width="228.3px" height="228.3px" viewBox="0 0 228.3 228.3" style="enable-background:new 0 0 228.3 228.3;"
	 xml:space="preserve">
<style type="text/css">
	.st0{fill:#FFFFFF;}
	.st1{fill:#3E3A39;}
	.st2{fill:#008340;}
	.st3{fill:#040000;}
	.st4{fill:#0C0D05;}
	.st5{fill:#9FA0A0;}
	.st6{fill:#F7F8F8;}
	.st7{fill:#B61D22;}
	.st8{fill:#FFFFFF;stroke:#B61D22;stroke-width:5;stroke-miterlimit:10;}
	.st9{fill:#24893A;}
	.st10{fill:#FFFFFF;stroke:#24893A;stroke-width:5;stroke-miterlimit:10;}
	.st11{fill:#FFFFFF;stroke:#000000;stroke-width:5;stroke-miterlimit:10;}
	.st12{fill:#277639;}
	.st13{fill:#898989;}
	.st14{fill:#FFFFFF;stroke:#9FA0A0;stroke-width:5;stroke-miterlimit:10;}
	.st15{fill:#AC1F24;}
	.st16{fill:#931E23;}
	.st17{fill:#FFFFFF;stroke:#AC1F24;stroke-width:5;stroke-miterlimit:10;}
	.st18{fill:#93999D;}
	.st19{fill:#7C8285;}
	.st20{fill:#FFFFFF;stroke:#93999D;stroke-width:5;stroke-miterlimit:10;}
	.st21{fill:none;stroke:#000000;stroke-width:2;stroke-miterlimit:10;}
	.st22{fill:#FFFFFF;stroke:#000000;stroke-width:2;stroke-miterlimit:10;}
	.st23{fill:#22AC38;}
	.st24{fill:none;stroke:#FFFFFF;stroke-width:2;stroke-miterlimit:10;}
	.st25{fill:#22AC38;stroke:#FFFFFF;stroke-width:2;stroke-miterlimit:10;}
	.st26{fill:#FFFFFF;stroke:#FFFFFF;stroke-width:2;stroke-miterlimit:10;}
	.st27{fill:#FFFFFF;stroke:#22AC38;stroke-width:2;stroke-miterlimit:10;}
	.st28{stroke:#000000;stroke-width:2;stroke-miterlimit:10;}
	.st29{stroke:#008340;stroke-width:2;stroke-miterlimit:10;}
	.st30{fill:none;stroke:#FFFFFF;stroke-width:15;stroke-miterlimit:10;}
	.st31{fill:none;stroke:#727171;stroke-width:15;stroke-miterlimit:10;}
</style>
<circle class="st5" cx="113.9" cy="113.9" r="103.8"/>
<g>
	<path class="st13" d="M218.1,114.4c0-16.1-3.7-31.4-10.2-45l-88.6-31.2l-13.5,61.3l-55.3,66.9l27.8,45.3
		c11.2,4.2,23.4,6.4,36.1,6.4C171.7,218.1,218.1,171.7,218.1,114.4z"/>
</g>
<g>
	<g>
		<path class="st0" d="M133.5,177.9c-7,0-14.2-0.5-21.7-1.4c-4.4-0.5-8.6-1.1-12.7-2.5c-3.8-1.3-7.7-2.6-11.5-4.2
			c-0.2-0.1-0.6-0.2-1.1-0.5C76.2,165.1,75,164.1,75,162V90c0-1.2,0.8-2.2,2-2.5c1.1-0.2,28.1-6.3,28.1-44.2c0-4.1,3.9-7.6,7.5-8.4
			c0.9-0.2,1.9-0.3,2.8-0.3c10.9,0,16.9,14.4,18.4,18.9c1.7,4.9,2.4,9.6,1.9,14c-0.3,2.8-1,5.7-2.2,8.6c-0.7,1.7-1.3,3.1-1.9,4.2
			h39.8c4.5,0,13.1,3.2,13.1,15.2c0,0.4-0.1,7.8-4.4,12.2c1.4,1.8,2.6,4.9,2.5,10.1c0,1.1,0.1,7.9-3.8,11.9c-0.6,0.6-1.3,1.1-2,1.6
			c1.2,2.2,1.6,4.7,1.7,5.1c0.7,4,0,8.5-2,12.5c-0.9,1.9-2,3.3-3.2,4.4c0,0-0.9,0.7-2.1,1.3c1.5,4.5,0.2,9.6-1.9,13.3
			c-5,8.7-16.3,9.3-24.6,9.7c-0.8,0-1.6,0.1-2.4,0.1C139.5,177.8,136.5,177.9,133.5,177.9z"/>
		<path class="st5" d="M115.4,37.1c8.2,0,13.8,10.9,16.1,17.2c1.5,4.1,2.2,8.5,1.8,12.9c-0.3,2.7-1,5.4-2.1,7.9
			c-0.4,1-3.2,7.7-4.1,7.7c0,0,44.4,0,44.4,0s10.6,0,10.6,12.7c0,0,0,9.7-6.3,12.2c0,0,4.6,0.4,4.4,10.1c0,0,0.4,12.3-8.4,12.3
			c0,0,0,0,0,0c2.6,0,4,4.8,4.3,6.7c0.6,3.7-0.2,7.6-1.8,11c-0.6,1.3-1.4,2.6-2.6,3.6c-0.3,0.3-2.9,1.8-3.8,1.8
			c-0.1,0-0.2,0-0.3-0.1c2.9,4,1.8,9.6-0.5,13.6c-4.7,8.3-16.7,8.1-25,8.6c-2.9,0.2-5.7,0.2-8.6,0.2c-7.1,0-14.3-0.5-21.4-1.3
			c-4.1-0.5-8.3-1.1-12.2-2.4c-3.8-1.3-7.6-2.5-11.3-4.2c-1.3-0.6-11.2-4.4-11.2-5.5c0,0,0-72,0-72s30.1-6.1,30.1-46.7
			c0-2.9,3-5.4,5.5-6C114,37.2,114.7,37.1,115.4,37.1 M115.4,32.1L115.4,32.1c-1.1,0-2.2,0.1-3.4,0.4c-4.6,1.1-9.4,5.4-9.4,10.9
			c0,36.1-25.9,41.7-26.1,41.8c-2.3,0.5-4,2.5-4,4.9v72c0,3.8,3.5,5.4,6.8,6.9c2.2,1,4.8,2.1,6.3,2.7c0.5,0.2,0.9,0.4,1.1,0.4
			c3.9,1.7,7.8,3,11.6,4.3l0.1,0c4.3,1.5,8.7,2.1,13.2,2.6c7.5,0.9,14.9,1.4,22,1.4c3,0,6-0.1,8.9-0.3c0.8,0,1.5-0.1,2.3-0.1
			c8.9-0.4,21-1,26.7-11c2.1-3.7,3.5-8.6,2.6-13.3c0.5-0.3,0.8-0.6,0.8-0.6c1.5-1.3,2.8-3,3.9-5.2c2.1-4.5,2.9-9.4,2.2-14
			c-0.2-1.3-0.6-2.7-1-4c0.2-0.2,0.4-0.4,0.6-0.6c4.5-4.7,4.6-12.2,4.5-13.7c0.1-4.5-0.7-7.7-1.9-9.9c3.7-4.9,3.8-11.5,3.8-12.5
			c0-13-9.3-17.7-15.6-17.7h-35.9c0.1-0.2,0.2-0.4,0.3-0.7l0-0.1c1.3-3.1,2.1-6.2,2.4-9.3c0.5-4.8-0.2-9.8-2-15
			C134.5,47.8,128,32.1,115.4,32.1L115.4,32.1z"/>
	</g>
	<g>
		<path class="st0" d="M53.1,173.5c-5.4,0-9.8-4.4-9.8-9.8V90c0-5.4,4.4-9.8,9.8-9.8h17.1c5.4,0,9.8,4.4,9.8,9.8v73.6
			c0,5.4-4.4,9.8-9.8,9.8H53.1z"/>
		<path class="st5" d="M70.2,82.8c4,0,7.3,3.3,7.3,7.3v73.6c0,4-3.3,7.3-7.3,7.3H53.1c-4,0-7.3-3.3-7.3-7.3V90c0-4,3.3-7.3,7.3-7.3
			H70.2 M70.2,77.8H53.1c-6.8,0-12.3,5.5-12.3,12.3v73.6c0,6.8,5.5,12.3,12.3,12.3h17.1c6.8,0,12.3-5.5,12.3-12.3V90
			C82.5,83.3,77,77.8,70.2,77.8L70.2,77.8z"/>
	</g>
	<circle class="st14" cx="61.7" cy="156.5" r="5.6"/>
	<line class="st14" x1="61.7" y1="150.9" x2="61.7" y2="142.4"/>
</g>
</svg>
