<?xml version="1.0" encoding="utf-8"?>
<!-- Generator: Adobe Illustrator 19.1.0, SVG Export Plug-In . SVG Version: 6.00 Build 0)  -->
<svg version="1.1" id="레이어_1" xmlns="http://www.w3.org/2000/svg" xmlns:xlink="http://www.w3.org/1999/xlink" x="0px"
	 y="0px" viewBox="0 0 65.1 25.1" style="enable-background:new 0 0 65.1 25.1;" xml:space="preserve">
<style type="text/css">
	.st0{fill:#116729;}
	.st1{fill:#FFFFFF;}
	.st2{fill:#040404;}
	.st3{fill:#090705;}
	.st4{fill:#808080;}
</style>
<circle class="st0" cx="12.6" cy="12.6" r="12.6"/>
<rect x="10.4" y="4.1" class="st1" width="4.4" height="16.9"/>
<rect x="4.1" y="10.4" class="st1" width="16.9" height="4.4"/>
<g>
	<path d="M39.4,13.4v5.9h-1.2v-5.9h-6.7v-1.1h14.7v1.1H39.4z M44.7,10.7c-1.1-0.2-2.3-0.7-3.5-1.3c-1.2-0.6-2-1.3-2.4-1.8
		c-0.3,0.6-1.1,1.2-2.2,1.8c-1.1,0.6-2.3,1.1-3.6,1.4l-0.9-1.1c1.5-0.2,2.8-0.6,4-1.3c1.2-0.7,1.9-1.5,2-2.3H33V4.9h5.1V3.2h1.3v1.6
		h5.1v1.1h-5.1c0.1,0.8,0.8,1.5,1.9,2.2s2.5,1.2,4.1,1.4L44.7,10.7z"/>
	<path d="M56.7,4.9c-0.1,4.5-2.5,8.1-7.2,10.7l-0.9-1c1.7-0.7,3.2-1.8,4.5-3.3S55.2,8,55.4,6h-6.1V4.9H56.7z M60.6,11.1v8.2h-1.2
		V3.5h1.2V10h2.9v1.1H60.6z"/>
</g>
</svg>
