<?xml version="1.0" encoding="utf-8"?>
<!-- Generator: Adobe Illustrator 19.1.0, SVG Export Plug-In . SVG Version: 6.00 Build 0)  -->
<svg version="1.1" id="레이어_1" xmlns="http://www.w3.org/2000/svg" xmlns:xlink="http://www.w3.org/1999/xlink" x="0px"
	 y="0px" viewBox="0 0 149.8 76" style="enable-background:new 0 0 149.8 76;" xml:space="preserve">
<style type="text/css">
	.st0{fill:#116729;}
	.st1{fill:#FFFFFF;}
	.st2{fill:#040404;}
	.st3{fill:#090705;}
</style>
<path class="st0" d="M34,1C15.2,1,0,16.2,0,35v34h34c18.8,0,34-15.2,34-34S52.8,1,34,1z"/>
<g>
	<path class="st1" d="M57.9,52.3c0,5.4-1.2,9.6-3.7,12.4c-2.5,2.9-5.9,4.3-10.3,4.3c-1.9,0-3.7-0.3-5.4-1v-7.6
		c1.4,1.1,3.1,1.6,5,1.6c4.3,0,6.4-3.3,6.4-10V26.8h8V52.3z"/>
	<path d="M64.7,53.7c0-4.8,1.4-8.7,4.3-11.5c2.9-2.8,6.7-4.2,11.6-4.2c4.7,0,8.4,1.4,11.2,4.1c2.7,2.8,4.1,6.4,4.1,11.1
		c0,4.8-1.4,8.7-4.2,11.5C88.8,67.6,85,69,80.2,69c-4.7,0-8.5-1.4-11.3-4.2C66.1,62.1,64.7,58.3,64.7,53.7z M72.7,53.5
		c0,6.2,2.6,9.3,7.8,9.3c5,0,7.5-3.2,7.5-9.6c0-6.2-2.5-9.2-7.5-9.2c-2.4,0-4.3,0.8-5.7,2.5C73.4,48.3,72.7,50.6,72.7,53.5z"/>
	<path d="M101.6,28.9c0-1.2,0.4-2.2,1.3-3c0.9-0.8,2-1.2,3.3-1.2c1.3,0,2.4,0.4,3.3,1.2c0.9,0.8,1.3,1.8,1.3,3c0,1.2-0.4,2.2-1.3,3
		c-0.9,0.8-2,1.2-3.3,1.2s-2.4-0.4-3.3-1.2C102,31.1,101.6,30.1,101.6,28.9z M102.2,68.3V38.7h7.8v29.6H102.2z"/>
	<path d="M145.6,68.3h-7.8V51.7c0-5.1-1.8-7.6-5.5-7.6c-1.8,0-3.3,0.7-4.5,2.1c-1.2,1.4-1.7,3.1-1.7,5.3v16.9h-7.9V38.7h7.9v4.8h0.1
		c2.2-3.6,5.4-5.5,9.6-5.5c6.6,0,9.9,4.1,9.9,12.2V68.3z"/>
</g>
</svg>
