<?xml version="1.0" encoding="utf-8"?>
<!-- Generator: Adobe Illustrator 19.1.0, SVG Export Plug-In . SVG Version: 6.00 Build 0)  -->
<svg version="1.1" id="레이어_1" xmlns="http://www.w3.org/2000/svg" xmlns:xlink="http://www.w3.org/1999/xlink" x="0px"
	 y="0px" viewBox="0 0 205 98" style="enable-background:new 0 0 205 98;" xml:space="preserve">
<style type="text/css">
	.st0{fill:#116729;}
	.st1{fill:#FFFFFF;}
	.st2{fill:#040404;}
	.st3{fill:#090705;}
</style>
<path class="st0" d="M40.8,2C18.3,2,0,20.3,0,42.8v40.8h40.8c22.5,0,40.8-18.3,40.8-40.8S63.3,2,40.8,2z"/>
<g>
	<path class="st1" d="M42.6,69.8c3.9,3.3,8.5,4.9,13.6,4.9c3.1,0,5.4-0.5,6.9-1.6c1.5-1.1,2.3-2.5,2.3-4.2c0-1.5-0.6-2.9-1.9-4.2
		c-1.3-1.3-4.3-2.9-9.2-5c-4.1-1.8-7.1-3.9-9-6.2c-1.9-2.3-2.8-5-2.8-8.1c0-4.5,1.7-8,5.2-10.5c3.5-2.5,8-3.8,13.7-3.8
		c5,0,9,0.6,11.9,1.9v9.2c-3.2-2.2-7.1-3.3-11.7-3.3c-2.7,0-4.9,0.5-6.5,1.5c-1.7,1-2.5,2.4-2.5,4.2c0,1.4,0.6,2.7,1.7,3.9
		c1.1,1.2,3.8,2.7,8.1,4.6c4.9,2.1,8.2,4.3,10.1,6.7c1.9,2.3,2.8,5.1,2.8,8.4c0,4.7-1.7,8.3-5,10.7c-3.3,2.5-8,3.7-14.1,3.7
		c-5.6,0-10.2-0.9-13.7-2.8V69.8z"/>
	<path class="st2" d="M101.1,81.2c-1.6,0.8-3.8,1.2-6.7,1.2c-7.3,0-10.9-3.9-10.9-11.6V53.2h-5.9v-7.2h5.9v-7.9l9.4-2.7v10.7h8.2
		v7.2h-8.2v16c0,3.9,1.5,5.9,4.6,5.9c1.3,0,2.5-0.4,3.6-1.1V81.2z"/>
	<path class="st2" d="M138.4,66.5h-23.7c0.4,6,3.8,9.1,10.3,9.1c3.9,0,7.5-1,10.5-3.1v7.2c-3.3,1.9-7.5,2.9-12.7,2.9
		c-5.5,0-9.8-1.6-12.9-4.8c-3.1-3.2-4.6-7.7-4.6-13.4c0-5.6,1.7-10.2,5-13.7c3.3-3.5,7.4-5.3,12.4-5.3c5,0,8.8,1.5,11.6,4.6
		c2.8,3,4.2,7.2,4.2,12.5V66.5z M129.5,60.3c0-5.6-2.3-8.5-7-8.5c-1.9,0-3.6,0.8-5.1,2.3c-1.5,1.5-2.4,3.6-2.8,6.2H129.5z"/>
	<path class="st2" d="M154.9,77.2V98h-9.4V46.1h9.4v5.6h0.1c2.7-4.3,6.6-6.5,11.7-6.5c4.5,0,8,1.6,10.6,4.7
		c2.6,3.1,3.9,7.4,3.9,12.9c0,5.9-1.5,10.7-4.4,14.2c-2.9,3.6-6.8,5.4-11.7,5.4c-4.4,0-7.7-1.8-10.1-5.3H154.9z M154.8,66.2
		c0,2.6,0.7,4.7,2.2,6.4c1.5,1.7,3.4,2.6,5.7,2.6c2.7,0,4.9-1.1,6.5-3.2c1.6-2.1,2.3-5.1,2.3-9c0-6.9-2.7-10.3-8.1-10.3
		c-2.6,0-4.6,1-6.2,2.9c-1.6,1.9-2.4,4.3-2.4,7.2V66.2z"/>
</g>
</svg>
