<?xml version="1.0" encoding="utf-8"?>
<!-- Generator: Adobe Illustrator 19.1.0, SVG Export Plug-In . SVG Version: 6.00 Build 0)  -->
<svg version="1.1" id="레이어_1" xmlns="http://www.w3.org/2000/svg" xmlns:xlink="http://www.w3.org/1999/xlink" x="0px"
	 y="0px" viewBox="0 0 21.4 21.4" style="enable-background:new 0 0 21.4 21.4;" xml:space="preserve">
<style type="text/css">
	.st0{fill:#116729;}
	.st1{fill:#FFFFFF;}
	.st2{fill:#040404;}
	.st3{fill:#090705;}
	.st4{fill:#808080;}
</style>
<path class="st0" d="M10.7,0C4.8,0,0,4.8,0,10.7v10.7h10.7c5.9,0,10.7-4.8,10.7-10.7S16.6,0,10.7,0z"/>
<g>
	<path class="st1" d="M18.6,8.3v8.3h1.6v1.8h-1.6v2.9h-2.3v-2.9h-5.7v-1.9c1.2-1.4,2.3-2.8,3.3-4.2c1-1.5,1.8-2.8,2.3-4H18.6z
		 M12.7,16.7h3.6v-5c-0.4,0.6-0.9,1.4-1.5,2.4S13.4,15.8,12.7,16.7z"/>
</g>
</svg>
