<?xml version="1.0" encoding="utf-8"?>
<!-- Generator: Adobe Illustrator 19.1.0, SVG Export Plug-In . SVG Version: 6.00 Build 0)  -->
<svg version="1.1" id="레이어_1" xmlns="http://www.w3.org/2000/svg" xmlns:xlink="http://www.w3.org/1999/xlink" x="0px"
	 y="0px" viewBox="0 0 185 88" style="enable-background:new 0 0 185 88;" xml:space="preserve">
<style type="text/css">
	.st0{fill:#116729;}
	.st1{fill:#FFFFFF;}
	.st2{fill:#040404;}
	.st3{fill:#090705;}
</style>
<path class="st0" d="M36.8,2C16.8,2,0.5,18.2,0.5,38.2v36.2h36.2c20,0,36.2-16.2,36.2-36.2S56.8,2,36.8,2z"/>
<g>
	<path class="st1" d="M70.4,34.1H57.8v37.1h-8.6V34.1H36.6V27h33.8V34.1z"/>
	<path class="st2" d="M75,29.2c0-1.3,0.5-2.4,1.4-3.2s2.1-1.3,3.5-1.3c1.4,0,2.6,0.4,3.5,1.3c0.9,0.9,1.4,1.9,1.4,3.2
		c0,1.3-0.5,2.4-1.4,3.2c-0.9,0.9-2.1,1.3-3.5,1.3s-2.6-0.4-3.5-1.3C75.5,31.6,75,30.5,75,29.2z M75.7,71.2V39.6H84v31.5H75.7z"/>
	<path class="st2" d="M101,67.2v18.5h-8.4V39.6h8.4v5h0.1c2.4-3.8,5.9-5.7,10.4-5.7c4,0,7.1,1.4,9.4,4.2c2.3,2.8,3.4,6.6,3.4,11.5
		c0,5.2-1.3,9.5-3.9,12.6c-2.6,3.2-6.1,4.8-10.4,4.8C106.2,71.9,103.2,70.4,101,67.2L101,67.2z M100.9,57.4c0,2.3,0.7,4.2,2,5.7
		c1.3,1.5,3,2.3,5.1,2.3c2.4,0,4.3-0.9,5.7-2.9c1.4-1.9,2.1-4.6,2.1-8c0-6.1-2.4-9.2-7.2-9.2c-2.3,0-4.1,0.9-5.5,2.6
		c-1.4,1.7-2.1,3.8-2.1,6.4V57.4z"/>
	<path class="st2" d="M161,64.1h18.7v7.1h-27.6v-3.3c0-2.4,0.4-4.6,1.2-6.6c0.8-2,2-3.9,3.5-5.6c1.5-1.7,4.7-4.4,9.5-8.1
		c1.9-1.4,3.2-2.7,4-4c0.8-1.3,1.2-2.7,1.2-4.3c0-2-0.6-3.5-1.7-4.6c-1.2-1.1-2.9-1.6-5.4-1.6c-3.8,0-7.4,1.5-10.9,4.5V30
		c3.6-2.5,7.6-3.7,12.1-3.7c4.6,0,8.1,1.1,10.6,3.3c2.5,2.2,3.7,5.3,3.7,9.2c0,2-0.3,3.8-1,5.4c-0.7,1.6-1.5,3-2.6,4.2
		c-1.1,1.3-2.3,2.5-3.7,3.5c-1.4,1.1-2.8,2.2-4.3,3.3c-2.7,2-4.6,3.7-5.8,5.1C161.6,61.8,161,63,161,64.1z"/>
</g>
</svg>
